<mxfile host="65bd71144e" pages="2">
    <diagram id="olurmlpTIaS9eGWPFwW2" name="Conceptual model">
        <mxGraphModel dx="1414" dy="821" grid="1" gridSize="8" guides="1" tooltips="1" connect="1" arrows="1" fold="1" page="1" pageScale="1" pageWidth="827" pageHeight="1169" math="0" shadow="0">
            <root>
                <mxCell id="mvMvy7dG3c4JRi--3KPx-0"/>
                <mxCell id="mvMvy7dG3c4JRi--3KPx-1" parent="mvMvy7dG3c4JRi--3KPx-0"/>
                <mxCell id="WQm5LU5CRmRc8bBMM7_D-45" style="edgeStyle=orthogonalEdgeStyle;rounded=0;orthogonalLoop=1;jettySize=auto;html=1;strokeColor=#788AA3;fontColor=#46495D;exitX=0.521;exitY=1.046;exitDx=0;exitDy=0;exitPerimeter=0;entryX=0.5;entryY=0;entryDx=0;entryDy=0;" parent="mvMvy7dG3c4JRi--3KPx-1" source="hHnrdNrwomO3HZSzoKWz-24" target="WQm5LU5CRmRc8bBMM7_D-42" edge="1">
                    <mxGeometry relative="1" as="geometry">
                        <mxPoint x="388" y="752.9999999999998" as="sourcePoint"/>
                        <mxPoint x="352" y="736" as="targetPoint"/>
                    </mxGeometry>
                </mxCell>
                <mxCell id="slEubq40laHfa5T02rUY-0" style="edgeStyle=orthogonalEdgeStyle;rounded=0;orthogonalLoop=1;jettySize=auto;html=1;exitX=0;exitY=0.5;exitDx=0;exitDy=0;startArrow=none;strokeColor=#788AA3;fontColor=#46495D;entryX=1.011;entryY=-0.116;entryDx=0;entryDy=0;entryPerimeter=0;" parent="mvMvy7dG3c4JRi--3KPx-1" source="slEubq40laHfa5T02rUY-1" target="gyolgve-ai5faWCOUoNd-15" edge="1">
                    <mxGeometry relative="1" as="geometry">
                        <mxPoint x="448" y="723" as="targetPoint"/>
                    </mxGeometry>
                </mxCell>
                <mxCell id="MGwhz3wW86RETEEKtW72-1" style="edgeStyle=orthogonalEdgeStyle;rounded=0;orthogonalLoop=1;jettySize=auto;html=1;entryX=1;entryY=0.5;entryDx=0;entryDy=0;strokeColor=#788AA3;fontColor=#46495D;exitX=0.55;exitY=1.073;exitDx=0;exitDy=0;exitPerimeter=0;" parent="mvMvy7dG3c4JRi--3KPx-1" source="J1Xi__0R0ApcOaYCKPqU-0" target="slEubq40laHfa5T02rUY-1" edge="1">
                    <mxGeometry relative="1" as="geometry">
                        <mxPoint x="660" y="721" as="sourcePoint"/>
                        <Array as="points">
                            <mxPoint x="645" y="512"/>
                        </Array>
                    </mxGeometry>
                </mxCell>
                <mxCell id="gyolgve-ai5faWCOUoNd-241" style="edgeStyle=orthogonalEdgeStyle;curved=0;rounded=1;sketch=0;orthogonalLoop=1;jettySize=auto;html=1;exitX=0.5;exitY=0;exitDx=0;exitDy=0;entryX=1;entryY=0.5;entryDx=0;entryDy=0;fontColor=#46495D;strokeColor=#788AA3;fillColor=#B2C9AB;" parent="mvMvy7dG3c4JRi--3KPx-1" source="JsH2GUi7b-OpdOykYzpg-0" target="gyolgve-ai5faWCOUoNd-75" edge="1">
                    <mxGeometry relative="1" as="geometry"/>
                </mxCell>
                <mxCell id="JsH2GUi7b-OpdOykYzpg-0" value="work with&amp;nbsp;" style="rhombus;whiteSpace=wrap;html=1;fillColor=#B2C9AB;strokeColor=#788AA3;fontColor=#46495D;" parent="mvMvy7dG3c4JRi--3KPx-1" vertex="1">
                    <mxGeometry x="720" y="552" width="80" height="42" as="geometry"/>
                </mxCell>
                <mxCell id="slEubq40laHfa5T02rUY-1" value="has" style="rhombus;whiteSpace=wrap;html=1;fillColor=#B2C9AB;strokeColor=#788AA3;fontColor=#46495D;" parent="mvMvy7dG3c4JRi--3KPx-1" vertex="1">
                    <mxGeometry x="512" y="488" width="80" height="48" as="geometry"/>
                </mxCell>
                <mxCell id="WQm5LU5CRmRc8bBMM7_D-8" style="edgeStyle=orthogonalEdgeStyle;rounded=0;orthogonalLoop=1;jettySize=auto;html=1;strokeColor=#788AA3;fontColor=#46495D;exitX=1;exitY=0.779;exitDx=0;exitDy=0;exitPerimeter=0;" parent="mvMvy7dG3c4JRi--3KPx-1" source="gyolgve-ai5faWCOUoNd-97" target="WQm5LU5CRmRc8bBMM7_D-7" edge="1">
                    <mxGeometry relative="1" as="geometry">
                        <mxPoint x="423.9999999999998" y="942.9999999999998" as="sourcePoint"/>
                    </mxGeometry>
                </mxCell>
                <mxCell id="AO8X5yTZK7Mt72FpBVLL-0" style="edgeStyle=orthogonalEdgeStyle;rounded=0;orthogonalLoop=1;jettySize=auto;html=1;entryX=0.5;entryY=1;entryDx=0;entryDy=0;strokeColor=#788AA3;fontColor=#46495D;exitX=0.548;exitY=0.007;exitDx=0;exitDy=0;exitPerimeter=0;" parent="mvMvy7dG3c4JRi--3KPx-1" source="gyolgve-ai5faWCOUoNd-140" target="RyHsd4hZoEdZ9ZzjtlmM-4" edge="1">
                    <mxGeometry relative="1" as="geometry">
                        <mxPoint x="456" y="1289" as="sourcePoint"/>
                    </mxGeometry>
                </mxCell>
                <mxCell id="gyolgve-ai5faWCOUoNd-207" style="edgeStyle=orthogonalEdgeStyle;curved=0;rounded=1;sketch=0;orthogonalLoop=1;jettySize=auto;html=1;exitX=0.5;exitY=0;exitDx=0;exitDy=0;fontColor=#46495D;strokeColor=#788AA3;fillColor=#B2C9AB;" parent="mvMvy7dG3c4JRi--3KPx-1" source="RyHsd4hZoEdZ9ZzjtlmM-4" edge="1">
                    <mxGeometry relative="1" as="geometry">
                        <mxPoint x="353" y="1056" as="targetPoint"/>
                    </mxGeometry>
                </mxCell>
                <mxCell id="RyHsd4hZoEdZ9ZzjtlmM-4" value="sponsors" style="rhombus;whiteSpace=wrap;html=1;fillColor=#B2C9AB;strokeColor=#788AA3;fontColor=#46495D;" parent="mvMvy7dG3c4JRi--3KPx-1" vertex="1">
                    <mxGeometry x="312" y="1088" width="80" height="48" as="geometry"/>
                </mxCell>
                <mxCell id="WQm5LU5CRmRc8bBMM7_D-9" style="edgeStyle=orthogonalEdgeStyle;rounded=0;orthogonalLoop=1;jettySize=auto;html=1;exitX=1;exitY=0.5;exitDx=0;exitDy=0;strokeColor=#788AA3;fontColor=#46495D;entryX=0.5;entryY=0;entryDx=0;entryDy=0;" parent="mvMvy7dG3c4JRi--3KPx-1" source="WQm5LU5CRmRc8bBMM7_D-7" target="gyolgve-ai5faWCOUoNd-184" edge="1">
                    <mxGeometry relative="1" as="geometry">
                        <mxPoint x="684.0000000000002" y="985" as="targetPoint"/>
                    </mxGeometry>
                </mxCell>
                <mxCell id="WQm5LU5CRmRc8bBMM7_D-7" value="takes place in" style="rhombus;whiteSpace=wrap;html=1;fillColor=#B2C9AB;strokeColor=#788AA3;fontColor=#46495D;" parent="mvMvy7dG3c4JRi--3KPx-1" vertex="1">
                    <mxGeometry x="512" y="860" width="104" height="48" as="geometry"/>
                </mxCell>
                <mxCell id="gyolgve-ai5faWCOUoNd-150" value="" style="edgeStyle=orthogonalEdgeStyle;curved=0;rounded=1;sketch=0;orthogonalLoop=1;jettySize=auto;html=1;fontColor=#46495D;strokeColor=#788AA3;fillColor=#B2C9AB;entryX=0.5;entryY=0;entryDx=0;entryDy=0;" parent="mvMvy7dG3c4JRi--3KPx-1" source="WQm5LU5CRmRc8bBMM7_D-28" target="gyolgve-ai5faWCOUoNd-11" edge="1">
                    <mxGeometry relative="1" as="geometry"/>
                </mxCell>
                <mxCell id="WQm5LU5CRmRc8bBMM7_D-28" value="approves" style="rhombus;whiteSpace=wrap;html=1;fillColor=#B2C9AB;strokeColor=#788AA3;fontColor=#46495D;" parent="mvMvy7dG3c4JRi--3KPx-1" vertex="1">
                    <mxGeometry x="312" y="368" width="80" height="48" as="geometry"/>
                </mxCell>
                <mxCell id="gyolgve-ai5faWCOUoNd-208" style="edgeStyle=orthogonalEdgeStyle;curved=0;rounded=1;sketch=0;orthogonalLoop=1;jettySize=auto;html=1;exitX=0.5;exitY=1;exitDx=0;exitDy=0;entryX=0.548;entryY=-0.005;entryDx=0;entryDy=0;entryPerimeter=0;fontColor=#46495D;strokeColor=#788AA3;fillColor=#B2C9AB;" parent="mvMvy7dG3c4JRi--3KPx-1" source="WQm5LU5CRmRc8bBMM7_D-42" target="gyolgve-ai5faWCOUoNd-96" edge="1">
                    <mxGeometry relative="1" as="geometry"/>
                </mxCell>
                <mxCell id="WQm5LU5CRmRc8bBMM7_D-42" value="show up at" style="rhombus;whiteSpace=wrap;html=1;fillColor=#B2C9AB;strokeColor=#788AA3;fontColor=#46495D;" parent="mvMvy7dG3c4JRi--3KPx-1" vertex="1">
                    <mxGeometry x="304" y="720" width="96" height="48" as="geometry"/>
                </mxCell>
                <mxCell id="ze_rFYOEPnkliIlRcW4k-2" style="edgeStyle=orthogonalEdgeStyle;rounded=0;orthogonalLoop=1;jettySize=auto;html=1;entryX=0.5;entryY=1;entryDx=0;entryDy=0;strokeColor=#788AA3;fontColor=#46495D;exitX=0;exitY=0.5;exitDx=0;exitDy=0;" parent="mvMvy7dG3c4JRi--3KPx-1" source="gyolgve-ai5faWCOUoNd-246" target="ze_rFYOEPnkliIlRcW4k-1" edge="1">
                    <mxGeometry relative="1" as="geometry"/>
                </mxCell>
                <mxCell id="ze_rFYOEPnkliIlRcW4k-3" style="edgeStyle=orthogonalEdgeStyle;rounded=0;orthogonalLoop=1;jettySize=auto;html=1;strokeColor=#788AA3;fontColor=#46495D;entryX=0.793;entryY=1.073;entryDx=0;entryDy=0;entryPerimeter=0;" parent="mvMvy7dG3c4JRi--3KPx-1" source="ze_rFYOEPnkliIlRcW4k-1" target="J1Xi__0R0ApcOaYCKPqU-0" edge="1">
                    <mxGeometry relative="1" as="geometry">
                        <mxPoint x="720" y="746" as="targetPoint"/>
                        <Array as="points">
                            <mxPoint x="688" y="561"/>
                            <mxPoint x="690" y="561"/>
                        </Array>
                    </mxGeometry>
                </mxCell>
                <mxCell id="ze_rFYOEPnkliIlRcW4k-1" value="tests" style="rhombus;whiteSpace=wrap;html=1;fillColor=#B2C9AB;strokeColor=#788AA3;fontColor=#46495D;" parent="mvMvy7dG3c4JRi--3KPx-1" vertex="1">
                    <mxGeometry x="648" y="664" width="80" height="42" as="geometry"/>
                </mxCell>
                <mxCell id="gyolgve-ai5faWCOUoNd-151" style="edgeStyle=orthogonalEdgeStyle;curved=0;rounded=1;sketch=0;orthogonalLoop=1;jettySize=auto;html=1;exitX=0.5;exitY=1;exitDx=0;exitDy=0;entryX=0.5;entryY=0;entryDx=0;entryDy=0;fontColor=#46495D;strokeColor=#788AA3;fillColor=#B2C9AB;" parent="mvMvy7dG3c4JRi--3KPx-1" source="gyolgve-ai5faWCOUoNd-0" target="WQm5LU5CRmRc8bBMM7_D-28" edge="1">
                    <mxGeometry relative="1" as="geometry"/>
                </mxCell>
                <mxCell id="gyolgve-ai5faWCOUoNd-0" value="Judge" style="shape=table;startSize=24;container=1;collapsible=0;childLayout=tableLayout;fixedRows=1;rowLines=0;fontStyle=1;align=center;rounded=0;sketch=0;fontColor=#46495D;strokeColor=#788AA3;fillColor=#B2C9AB;" parent="mvMvy7dG3c4JRi--3KPx-1" vertex="1">
                    <mxGeometry x="262" y="56" width="180" height="294" as="geometry"/>
                </mxCell>
                <mxCell id="gyolgve-ai5faWCOUoNd-7" value="" style="shape=partialRectangle;html=1;whiteSpace=wrap;collapsible=0;dropTarget=0;pointerEvents=0;fillColor=none;top=0;left=0;bottom=0;right=0;points=[[0,0.5],[1,0.5]];portConstraint=eastwest;" parent="gyolgve-ai5faWCOUoNd-0" vertex="1">
                    <mxGeometry y="24" width="180" height="30" as="geometry"/>
                </mxCell>
                <mxCell id="gyolgve-ai5faWCOUoNd-8" value="1" style="shape=partialRectangle;html=1;whiteSpace=wrap;connectable=0;fillColor=none;top=0;left=0;bottom=0;right=0;overflow=hidden;" parent="gyolgve-ai5faWCOUoNd-7" vertex="1">
                    <mxGeometry width="40" height="30" as="geometry"/>
                </mxCell>
                <mxCell id="gyolgve-ai5faWCOUoNd-9" value="JudgeID" style="shape=partialRectangle;html=1;whiteSpace=wrap;connectable=0;fillColor=none;top=0;left=0;bottom=0;right=0;align=left;spacingLeft=6;overflow=hidden;" parent="gyolgve-ai5faWCOUoNd-7" vertex="1">
                    <mxGeometry x="40" width="140" height="30" as="geometry"/>
                </mxCell>
                <mxCell id="gyolgve-ai5faWCOUoNd-255" value="" style="shape=partialRectangle;html=1;whiteSpace=wrap;collapsible=0;dropTarget=0;pointerEvents=0;fillColor=none;top=0;left=0;bottom=0;right=0;points=[[0,0.5],[1,0.5]];portConstraint=eastwest;" parent="gyolgve-ai5faWCOUoNd-0" vertex="1">
                    <mxGeometry y="54" width="180" height="30" as="geometry"/>
                </mxCell>
                <mxCell id="gyolgve-ai5faWCOUoNd-256" value="2" style="shape=partialRectangle;html=1;whiteSpace=wrap;connectable=0;fillColor=none;top=0;left=0;bottom=0;right=0;overflow=hidden;" parent="gyolgve-ai5faWCOUoNd-255" vertex="1">
                    <mxGeometry width="40" height="30" as="geometry"/>
                </mxCell>
                <mxCell id="gyolgve-ai5faWCOUoNd-257" value="ResultID" style="shape=partialRectangle;html=1;whiteSpace=wrap;connectable=0;fillColor=none;top=0;left=0;bottom=0;right=0;align=left;spacingLeft=6;overflow=hidden;" parent="gyolgve-ai5faWCOUoNd-255" vertex="1">
                    <mxGeometry x="40" width="140" height="30" as="geometry"/>
                </mxCell>
                <mxCell id="hHnrdNrwomO3HZSzoKWz-0" value="" style="shape=partialRectangle;html=1;whiteSpace=wrap;collapsible=0;dropTarget=0;pointerEvents=0;fillColor=none;top=0;left=0;bottom=0;right=0;points=[[0,0.5],[1,0.5]];portConstraint=eastwest;" parent="gyolgve-ai5faWCOUoNd-0" vertex="1">
                    <mxGeometry y="84" width="180" height="30" as="geometry"/>
                </mxCell>
                <mxCell id="hHnrdNrwomO3HZSzoKWz-1" value="3" style="shape=partialRectangle;html=1;whiteSpace=wrap;connectable=0;fillColor=none;top=0;left=0;bottom=0;right=0;overflow=hidden;" parent="hHnrdNrwomO3HZSzoKWz-0" vertex="1">
                    <mxGeometry width="40" height="30" as="geometry"/>
                </mxCell>
                <mxCell id="hHnrdNrwomO3HZSzoKWz-2" value="SwimmerID" style="shape=partialRectangle;html=1;whiteSpace=wrap;connectable=0;fillColor=none;top=0;left=0;bottom=0;right=0;align=left;spacingLeft=6;overflow=hidden;" parent="hHnrdNrwomO3HZSzoKWz-0" vertex="1">
                    <mxGeometry x="40" width="140" height="30" as="geometry"/>
                </mxCell>
                <mxCell id="gyolgve-ai5faWCOUoNd-1" value="" style="shape=partialRectangle;html=1;whiteSpace=wrap;collapsible=0;dropTarget=0;pointerEvents=0;fillColor=none;top=0;left=0;bottom=1;right=0;points=[[0,0.5],[1,0.5]];portConstraint=eastwest;" parent="gyolgve-ai5faWCOUoNd-0" vertex="1">
                    <mxGeometry y="114" width="180" height="38" as="geometry"/>
                </mxCell>
                <mxCell id="gyolgve-ai5faWCOUoNd-2" value="4" style="shape=partialRectangle;html=1;whiteSpace=wrap;connectable=0;fillColor=none;top=0;left=0;bottom=0;right=0;overflow=hidden;" parent="gyolgve-ai5faWCOUoNd-1" vertex="1">
                    <mxGeometry width="40" height="38" as="geometry"/>
                </mxCell>
                <mxCell id="gyolgve-ai5faWCOUoNd-3" value="FirstName" style="shape=partialRectangle;html=1;whiteSpace=wrap;connectable=0;fillColor=none;top=0;left=0;bottom=0;right=0;align=left;spacingLeft=6;overflow=hidden;" parent="gyolgve-ai5faWCOUoNd-1" vertex="1">
                    <mxGeometry x="40" width="140" height="38" as="geometry"/>
                </mxCell>
                <mxCell id="gyolgve-ai5faWCOUoNd-4" value="" style="shape=partialRectangle;html=1;whiteSpace=wrap;collapsible=0;dropTarget=0;pointerEvents=0;fillColor=none;top=0;left=0;bottom=0;right=0;points=[[0,0.5],[1,0.5]];portConstraint=eastwest;" parent="gyolgve-ai5faWCOUoNd-0" vertex="1">
                    <mxGeometry y="152" width="180" height="20" as="geometry"/>
                </mxCell>
                <mxCell id="gyolgve-ai5faWCOUoNd-5" value="5" style="shape=partialRectangle;html=1;whiteSpace=wrap;connectable=0;fillColor=none;top=0;left=0;bottom=0;right=0;overflow=hidden;" parent="gyolgve-ai5faWCOUoNd-4" vertex="1">
                    <mxGeometry width="40" height="20" as="geometry"/>
                </mxCell>
                <mxCell id="gyolgve-ai5faWCOUoNd-6" value="LastName" style="shape=partialRectangle;html=1;whiteSpace=wrap;connectable=0;fillColor=none;top=0;left=0;bottom=0;right=0;align=left;spacingLeft=6;overflow=hidden;" parent="gyolgve-ai5faWCOUoNd-4" vertex="1">
                    <mxGeometry x="40" width="140" height="20" as="geometry"/>
                </mxCell>
                <mxCell id="hHnrdNrwomO3HZSzoKWz-3" value="" style="shape=partialRectangle;html=1;whiteSpace=wrap;collapsible=0;dropTarget=0;pointerEvents=0;fillColor=none;top=0;left=0;bottom=0;right=0;points=[[0,0.5],[1,0.5]];portConstraint=eastwest;" parent="gyolgve-ai5faWCOUoNd-0" vertex="1">
                    <mxGeometry y="172" width="180" height="30" as="geometry"/>
                </mxCell>
                <mxCell id="hHnrdNrwomO3HZSzoKWz-4" value="6" style="shape=partialRectangle;html=1;whiteSpace=wrap;connectable=0;fillColor=none;top=0;left=0;bottom=0;right=0;overflow=hidden;" parent="hHnrdNrwomO3HZSzoKWz-3" vertex="1">
                    <mxGeometry width="40" height="30" as="geometry"/>
                </mxCell>
                <mxCell id="hHnrdNrwomO3HZSzoKWz-5" value="PassportNumber" style="shape=partialRectangle;html=1;whiteSpace=wrap;connectable=0;fillColor=none;top=0;left=0;bottom=0;right=0;align=left;spacingLeft=6;overflow=hidden;" parent="hHnrdNrwomO3HZSzoKWz-3" vertex="1">
                    <mxGeometry x="40" width="140" height="30" as="geometry"/>
                </mxCell>
                <mxCell id="hHnrdNrwomO3HZSzoKWz-6" value="" style="shape=partialRectangle;html=1;whiteSpace=wrap;collapsible=0;dropTarget=0;pointerEvents=0;fillColor=none;top=0;left=0;bottom=0;right=0;points=[[0,0.5],[1,0.5]];portConstraint=eastwest;" parent="gyolgve-ai5faWCOUoNd-0" vertex="1">
                    <mxGeometry y="202" width="180" height="30" as="geometry"/>
                </mxCell>
                <mxCell id="hHnrdNrwomO3HZSzoKWz-7" value="7" style="shape=partialRectangle;html=1;whiteSpace=wrap;connectable=0;fillColor=none;top=0;left=0;bottom=0;right=0;overflow=hidden;" parent="hHnrdNrwomO3HZSzoKWz-6" vertex="1">
                    <mxGeometry width="40" height="30" as="geometry"/>
                </mxCell>
                <mxCell id="hHnrdNrwomO3HZSzoKWz-8" value="Country" style="shape=partialRectangle;html=1;whiteSpace=wrap;connectable=0;fillColor=none;top=0;left=0;bottom=0;right=0;align=left;spacingLeft=6;overflow=hidden;" parent="hHnrdNrwomO3HZSzoKWz-6" vertex="1">
                    <mxGeometry x="40" width="140" height="30" as="geometry"/>
                </mxCell>
                <mxCell id="hHnrdNrwomO3HZSzoKWz-9" value="" style="shape=partialRectangle;html=1;whiteSpace=wrap;collapsible=0;dropTarget=0;pointerEvents=0;fillColor=none;top=0;left=0;bottom=0;right=0;points=[[0,0.5],[1,0.5]];portConstraint=eastwest;" parent="gyolgve-ai5faWCOUoNd-0" vertex="1">
                    <mxGeometry y="232" width="180" height="30" as="geometry"/>
                </mxCell>
                <mxCell id="hHnrdNrwomO3HZSzoKWz-10" value="8" style="shape=partialRectangle;html=1;whiteSpace=wrap;connectable=0;fillColor=none;top=0;left=0;bottom=0;right=0;overflow=hidden;" parent="hHnrdNrwomO3HZSzoKWz-9" vertex="1">
                    <mxGeometry width="40" height="30" as="geometry"/>
                </mxCell>
                <mxCell id="hHnrdNrwomO3HZSzoKWz-11" value="Class" style="shape=partialRectangle;html=1;whiteSpace=wrap;connectable=0;fillColor=none;top=0;left=0;bottom=0;right=0;align=left;spacingLeft=6;overflow=hidden;" parent="hHnrdNrwomO3HZSzoKWz-9" vertex="1">
                    <mxGeometry x="40" width="140" height="30" as="geometry"/>
                </mxCell>
                <mxCell id="hHnrdNrwomO3HZSzoKWz-12" value="" style="shape=partialRectangle;html=1;whiteSpace=wrap;collapsible=0;dropTarget=0;pointerEvents=0;fillColor=none;top=0;left=0;bottom=0;right=0;points=[[0,0.5],[1,0.5]];portConstraint=eastwest;" parent="gyolgve-ai5faWCOUoNd-0" vertex="1">
                    <mxGeometry y="262" width="180" height="30" as="geometry"/>
                </mxCell>
                <mxCell id="hHnrdNrwomO3HZSzoKWz-13" value="9" style="shape=partialRectangle;html=1;whiteSpace=wrap;connectable=0;fillColor=none;top=0;left=0;bottom=0;right=0;overflow=hidden;" parent="hHnrdNrwomO3HZSzoKWz-12" vertex="1">
                    <mxGeometry width="40" height="30" as="geometry"/>
                </mxCell>
                <mxCell id="hHnrdNrwomO3HZSzoKWz-14" value="Gender" style="shape=partialRectangle;html=1;whiteSpace=wrap;connectable=0;fillColor=none;top=0;left=0;bottom=0;right=0;align=left;spacingLeft=6;overflow=hidden;" parent="hHnrdNrwomO3HZSzoKWz-12" vertex="1">
                    <mxGeometry x="40" width="140" height="30" as="geometry"/>
                </mxCell>
                <mxCell id="gyolgve-ai5faWCOUoNd-11" value="Result" style="shape=table;startSize=40;container=1;collapsible=0;childLayout=tableLayout;fixedRows=1;rowLines=0;fontStyle=1;align=center;rounded=0;sketch=0;fontColor=#46495D;strokeColor=#788AA3;fillColor=#B2C9AB;" parent="mvMvy7dG3c4JRi--3KPx-1" vertex="1">
                    <mxGeometry x="256" y="448" width="180" height="246" as="geometry"/>
                </mxCell>
                <mxCell id="gyolgve-ai5faWCOUoNd-12" value="" style="shape=partialRectangle;html=1;whiteSpace=wrap;collapsible=0;dropTarget=0;pointerEvents=0;fillColor=none;top=0;left=0;bottom=0;right=0;points=[[0,0.5],[1,0.5]];portConstraint=eastwest;" parent="gyolgve-ai5faWCOUoNd-11" vertex="1">
                    <mxGeometry y="40" width="180" height="30" as="geometry"/>
                </mxCell>
                <mxCell id="gyolgve-ai5faWCOUoNd-13" value="1" style="shape=partialRectangle;html=1;whiteSpace=wrap;connectable=0;fillColor=none;top=0;left=0;bottom=0;right=0;overflow=hidden;" parent="gyolgve-ai5faWCOUoNd-12" vertex="1">
                    <mxGeometry width="40" height="30" as="geometry"/>
                </mxCell>
                <mxCell id="gyolgve-ai5faWCOUoNd-14" value="ResultID" style="shape=partialRectangle;html=1;whiteSpace=wrap;connectable=0;fillColor=none;top=0;left=0;bottom=0;right=0;align=left;spacingLeft=6;overflow=hidden;" parent="gyolgve-ai5faWCOUoNd-12" vertex="1">
                    <mxGeometry x="40" width="140" height="30" as="geometry"/>
                </mxCell>
                <mxCell id="gyolgve-ai5faWCOUoNd-15" value="" style="shape=partialRectangle;html=1;whiteSpace=wrap;collapsible=0;dropTarget=0;pointerEvents=0;fillColor=none;top=0;left=0;bottom=1;right=0;points=[[0,0.5],[1,0.5]];portConstraint=eastwest;" parent="gyolgve-ai5faWCOUoNd-11" vertex="1">
                    <mxGeometry y="70" width="180" height="26" as="geometry"/>
                </mxCell>
                <mxCell id="gyolgve-ai5faWCOUoNd-16" value="2" style="shape=partialRectangle;html=1;whiteSpace=wrap;connectable=0;fillColor=none;top=0;left=0;bottom=0;right=0;overflow=hidden;" parent="gyolgve-ai5faWCOUoNd-15" vertex="1">
                    <mxGeometry width="40" height="26" as="geometry"/>
                </mxCell>
                <mxCell id="gyolgve-ai5faWCOUoNd-17" value="SwimerID" style="shape=partialRectangle;html=1;whiteSpace=wrap;connectable=0;fillColor=none;top=0;left=0;bottom=0;right=0;align=left;spacingLeft=6;overflow=hidden;" parent="gyolgve-ai5faWCOUoNd-15" vertex="1">
                    <mxGeometry x="40" width="140" height="26" as="geometry"/>
                </mxCell>
                <mxCell id="gyolgve-ai5faWCOUoNd-18" value="" style="shape=partialRectangle;html=1;whiteSpace=wrap;collapsible=0;dropTarget=0;pointerEvents=0;fillColor=none;top=0;left=0;bottom=0;right=0;points=[[0,0.5],[1,0.5]];portConstraint=eastwest;" parent="gyolgve-ai5faWCOUoNd-11" vertex="1">
                    <mxGeometry y="96" width="180" height="30" as="geometry"/>
                </mxCell>
                <mxCell id="gyolgve-ai5faWCOUoNd-19" value="3" style="shape=partialRectangle;html=1;whiteSpace=wrap;connectable=0;fillColor=none;top=0;left=0;bottom=0;right=0;overflow=hidden;" parent="gyolgve-ai5faWCOUoNd-18" vertex="1">
                    <mxGeometry width="40" height="30" as="geometry"/>
                </mxCell>
                <mxCell id="gyolgve-ai5faWCOUoNd-20" value="CompetitionID" style="shape=partialRectangle;html=1;whiteSpace=wrap;connectable=0;fillColor=none;top=0;left=0;bottom=0;right=0;align=left;spacingLeft=6;overflow=hidden;" parent="gyolgve-ai5faWCOUoNd-18" vertex="1">
                    <mxGeometry x="40" width="140" height="30" as="geometry"/>
                </mxCell>
                <mxCell id="gyolgve-ai5faWCOUoNd-37" value="" style="shape=partialRectangle;html=1;whiteSpace=wrap;collapsible=0;dropTarget=0;pointerEvents=0;fillColor=none;top=0;left=0;bottom=0;right=0;points=[[0,0.5],[1,0.5]];portConstraint=eastwest;" parent="gyolgve-ai5faWCOUoNd-11" vertex="1">
                    <mxGeometry y="126" width="180" height="30" as="geometry"/>
                </mxCell>
                <mxCell id="gyolgve-ai5faWCOUoNd-38" value="4" style="shape=partialRectangle;html=1;whiteSpace=wrap;connectable=0;fillColor=none;top=0;left=0;bottom=0;right=0;overflow=hidden;" parent="gyolgve-ai5faWCOUoNd-37" vertex="1">
                    <mxGeometry width="40" height="30" as="geometry"/>
                </mxCell>
                <mxCell id="gyolgve-ai5faWCOUoNd-39" value="JudgeID" style="shape=partialRectangle;html=1;whiteSpace=wrap;connectable=0;fillColor=none;top=0;left=0;bottom=0;right=0;align=left;spacingLeft=6;overflow=hidden;" parent="gyolgve-ai5faWCOUoNd-37" vertex="1">
                    <mxGeometry x="40" width="140" height="30" as="geometry"/>
                </mxCell>
                <mxCell id="gyolgve-ai5faWCOUoNd-40" value="" style="shape=partialRectangle;html=1;whiteSpace=wrap;collapsible=0;dropTarget=0;pointerEvents=0;fillColor=none;top=0;left=0;bottom=0;right=0;points=[[0,0.5],[1,0.5]];portConstraint=eastwest;" parent="gyolgve-ai5faWCOUoNd-11" vertex="1">
                    <mxGeometry y="156" width="180" height="30" as="geometry"/>
                </mxCell>
                <mxCell id="gyolgve-ai5faWCOUoNd-41" value="5" style="shape=partialRectangle;html=1;whiteSpace=wrap;connectable=0;fillColor=none;top=0;left=0;bottom=0;right=0;overflow=hidden;" parent="gyolgve-ai5faWCOUoNd-40" vertex="1">
                    <mxGeometry width="40" height="30" as="geometry"/>
                </mxCell>
                <mxCell id="gyolgve-ai5faWCOUoNd-42" value="Time" style="shape=partialRectangle;html=1;whiteSpace=wrap;connectable=0;fillColor=none;top=0;left=0;bottom=0;right=0;align=left;spacingLeft=6;overflow=hidden;" parent="gyolgve-ai5faWCOUoNd-40" vertex="1">
                    <mxGeometry x="40" width="140" height="30" as="geometry"/>
                </mxCell>
                <mxCell id="gyolgve-ai5faWCOUoNd-43" value="" style="shape=partialRectangle;html=1;whiteSpace=wrap;collapsible=0;dropTarget=0;pointerEvents=0;fillColor=none;top=0;left=0;bottom=0;right=0;points=[[0,0.5],[1,0.5]];portConstraint=eastwest;" parent="gyolgve-ai5faWCOUoNd-11" vertex="1">
                    <mxGeometry y="186" width="180" height="30" as="geometry"/>
                </mxCell>
                <mxCell id="gyolgve-ai5faWCOUoNd-44" value="6" style="shape=partialRectangle;html=1;whiteSpace=wrap;connectable=0;fillColor=none;top=0;left=0;bottom=0;right=0;overflow=hidden;" parent="gyolgve-ai5faWCOUoNd-43" vertex="1">
                    <mxGeometry width="40" height="30" as="geometry"/>
                </mxCell>
                <mxCell id="gyolgve-ai5faWCOUoNd-45" value="Style" style="shape=partialRectangle;html=1;whiteSpace=wrap;connectable=0;fillColor=none;top=0;left=0;bottom=0;right=0;align=left;spacingLeft=6;overflow=hidden;" parent="gyolgve-ai5faWCOUoNd-43" vertex="1">
                    <mxGeometry x="40" width="140" height="30" as="geometry"/>
                </mxCell>
                <mxCell id="hHnrdNrwomO3HZSzoKWz-24" value="" style="shape=partialRectangle;html=1;whiteSpace=wrap;collapsible=0;dropTarget=0;pointerEvents=0;fillColor=none;top=0;left=0;bottom=0;right=0;points=[[0,0.5],[1,0.5]];portConstraint=eastwest;" parent="gyolgve-ai5faWCOUoNd-11" vertex="1">
                    <mxGeometry y="216" width="180" height="30" as="geometry"/>
                </mxCell>
                <mxCell id="hHnrdNrwomO3HZSzoKWz-25" value="6" style="shape=partialRectangle;html=1;whiteSpace=wrap;connectable=0;fillColor=none;top=0;left=0;bottom=0;right=0;overflow=hidden;" parent="hHnrdNrwomO3HZSzoKWz-24" vertex="1">
                    <mxGeometry width="40" height="30" as="geometry"/>
                </mxCell>
                <mxCell id="hHnrdNrwomO3HZSzoKWz-26" value="Date" style="shape=partialRectangle;html=1;whiteSpace=wrap;connectable=0;fillColor=none;top=0;left=0;bottom=0;right=0;align=left;spacingLeft=6;overflow=hidden;" parent="hHnrdNrwomO3HZSzoKWz-24" vertex="1">
                    <mxGeometry x="40" width="140" height="30" as="geometry"/>
                </mxCell>
                <mxCell id="gyolgve-ai5faWCOUoNd-59" value="Swimmer" style="shape=table;startSize=40;container=1;collapsible=0;childLayout=tableLayout;fixedRows=1;rowLines=0;fontStyle=1;align=center;rounded=0;sketch=0;fontColor=#46495D;strokeColor=#788AA3;fillColor=#B2C9AB;" parent="mvMvy7dG3c4JRi--3KPx-1" vertex="1">
                    <mxGeometry x="544" y="32" width="184" height="426" as="geometry"/>
                </mxCell>
                <mxCell id="gyolgve-ai5faWCOUoNd-60" value="" style="shape=partialRectangle;html=1;whiteSpace=wrap;collapsible=0;dropTarget=0;pointerEvents=0;fillColor=none;top=0;left=0;bottom=0;right=0;points=[[0,0.5],[1,0.5]];portConstraint=eastwest;" parent="gyolgve-ai5faWCOUoNd-59" vertex="1">
                    <mxGeometry y="40" width="184" height="30" as="geometry"/>
                </mxCell>
                <mxCell id="gyolgve-ai5faWCOUoNd-61" value="1" style="shape=partialRectangle;html=1;whiteSpace=wrap;connectable=0;fillColor=none;top=0;left=0;bottom=0;right=0;overflow=hidden;" parent="gyolgve-ai5faWCOUoNd-60" vertex="1">
                    <mxGeometry width="40" height="30" as="geometry"/>
                </mxCell>
                <mxCell id="gyolgve-ai5faWCOUoNd-62" value="SwimmerID" style="shape=partialRectangle;html=1;whiteSpace=wrap;connectable=0;fillColor=none;top=0;left=0;bottom=0;right=0;align=left;spacingLeft=6;overflow=hidden;" parent="gyolgve-ai5faWCOUoNd-60" vertex="1">
                    <mxGeometry x="40" width="144" height="30" as="geometry"/>
                </mxCell>
                <mxCell id="Y5ObW4eg2f1hHHvFG_6l-0" value="" style="shape=partialRectangle;html=1;whiteSpace=wrap;collapsible=0;dropTarget=0;pointerEvents=0;fillColor=none;top=0;left=0;bottom=0;right=0;points=[[0,0.5],[1,0.5]];portConstraint=eastwest;" parent="gyolgve-ai5faWCOUoNd-59" vertex="1">
                    <mxGeometry y="70" width="184" height="30" as="geometry"/>
                </mxCell>
                <mxCell id="Y5ObW4eg2f1hHHvFG_6l-1" value="2" style="shape=partialRectangle;html=1;whiteSpace=wrap;connectable=0;fillColor=none;top=0;left=0;bottom=0;right=0;overflow=hidden;" parent="Y5ObW4eg2f1hHHvFG_6l-0" vertex="1">
                    <mxGeometry width="40" height="30" as="geometry"/>
                </mxCell>
                <mxCell id="Y5ObW4eg2f1hHHvFG_6l-2" value="CoachID" style="shape=partialRectangle;html=1;whiteSpace=wrap;connectable=0;fillColor=none;top=0;left=0;bottom=0;right=0;align=left;spacingLeft=6;overflow=hidden;" parent="Y5ObW4eg2f1hHHvFG_6l-0" vertex="1">
                    <mxGeometry x="40" width="144" height="30" as="geometry"/>
                </mxCell>
                <mxCell id="gyolgve-ai5faWCOUoNd-63" value="" style="shape=partialRectangle;html=1;whiteSpace=wrap;collapsible=0;dropTarget=0;pointerEvents=0;fillColor=none;top=0;left=0;bottom=1;right=0;points=[[0,0.5],[1,0.5]];portConstraint=eastwest;" parent="gyolgve-ai5faWCOUoNd-59" vertex="1">
                    <mxGeometry y="100" width="184" height="26" as="geometry"/>
                </mxCell>
                <mxCell id="gyolgve-ai5faWCOUoNd-64" value="3" style="shape=partialRectangle;html=1;whiteSpace=wrap;connectable=0;fillColor=none;top=0;left=0;bottom=0;right=0;overflow=hidden;" parent="gyolgve-ai5faWCOUoNd-63" vertex="1">
                    <mxGeometry width="40" height="26" as="geometry"/>
                </mxCell>
                <mxCell id="gyolgve-ai5faWCOUoNd-65" value="CountryID" style="shape=partialRectangle;html=1;whiteSpace=wrap;connectable=0;fillColor=none;top=0;left=0;bottom=0;right=0;align=left;spacingLeft=6;overflow=hidden;" parent="gyolgve-ai5faWCOUoNd-63" vertex="1">
                    <mxGeometry x="40" width="144" height="26" as="geometry"/>
                </mxCell>
                <mxCell id="Y5ObW4eg2f1hHHvFG_6l-3" value="" style="shape=partialRectangle;html=1;whiteSpace=wrap;collapsible=0;dropTarget=0;pointerEvents=0;fillColor=none;top=0;left=0;bottom=0;right=0;points=[[0,0.5],[1,0.5]];portConstraint=eastwest;" parent="gyolgve-ai5faWCOUoNd-59" vertex="1">
                    <mxGeometry y="126" width="184" height="30" as="geometry"/>
                </mxCell>
                <mxCell id="Y5ObW4eg2f1hHHvFG_6l-4" value="4" style="shape=partialRectangle;html=1;whiteSpace=wrap;connectable=0;fillColor=none;top=0;left=0;bottom=0;right=0;overflow=hidden;" parent="Y5ObW4eg2f1hHHvFG_6l-3" vertex="1">
                    <mxGeometry width="40" height="30" as="geometry"/>
                </mxCell>
                <mxCell id="Y5ObW4eg2f1hHHvFG_6l-5" value="CompetitionID" style="shape=partialRectangle;html=1;whiteSpace=wrap;connectable=0;fillColor=none;top=0;left=0;bottom=0;right=0;align=left;spacingLeft=6;overflow=hidden;" parent="Y5ObW4eg2f1hHHvFG_6l-3" vertex="1">
                    <mxGeometry x="40" width="144" height="30" as="geometry"/>
                </mxCell>
                <mxCell id="Y5ObW4eg2f1hHHvFG_6l-6" value="" style="shape=partialRectangle;html=1;whiteSpace=wrap;collapsible=0;dropTarget=0;pointerEvents=0;fillColor=none;top=0;left=0;bottom=0;right=0;points=[[0,0.5],[1,0.5]];portConstraint=eastwest;" parent="gyolgve-ai5faWCOUoNd-59" vertex="1">
                    <mxGeometry y="156" width="184" height="30" as="geometry"/>
                </mxCell>
                <mxCell id="Y5ObW4eg2f1hHHvFG_6l-7" value="5" style="shape=partialRectangle;html=1;whiteSpace=wrap;connectable=0;fillColor=none;top=0;left=0;bottom=0;right=0;overflow=hidden;" parent="Y5ObW4eg2f1hHHvFG_6l-6" vertex="1">
                    <mxGeometry width="40" height="30" as="geometry"/>
                </mxCell>
                <mxCell id="Y5ObW4eg2f1hHHvFG_6l-8" value="ResultID" style="shape=partialRectangle;html=1;whiteSpace=wrap;connectable=0;fillColor=none;top=0;left=0;bottom=0;right=0;align=left;spacingLeft=6;overflow=hidden;" parent="Y5ObW4eg2f1hHHvFG_6l-6" vertex="1">
                    <mxGeometry x="40" width="144" height="30" as="geometry"/>
                </mxCell>
                <mxCell id="08lXn7UrBo5lOZibLP5f-3" value="" style="shape=partialRectangle;html=1;whiteSpace=wrap;collapsible=0;dropTarget=0;pointerEvents=0;fillColor=none;top=0;left=0;bottom=0;right=0;points=[[0,0.5],[1,0.5]];portConstraint=eastwest;" vertex="1" parent="gyolgve-ai5faWCOUoNd-59">
                    <mxGeometry y="186" width="184" height="30" as="geometry"/>
                </mxCell>
                <mxCell id="08lXn7UrBo5lOZibLP5f-4" value="6" style="shape=partialRectangle;html=1;whiteSpace=wrap;connectable=0;fillColor=none;top=0;left=0;bottom=0;right=0;overflow=hidden;" vertex="1" parent="08lXn7UrBo5lOZibLP5f-3">
                    <mxGeometry width="40" height="30" as="geometry"/>
                </mxCell>
                <mxCell id="08lXn7UrBo5lOZibLP5f-5" value="LaboratoryID" style="shape=partialRectangle;html=1;whiteSpace=wrap;connectable=0;fillColor=none;top=0;left=0;bottom=0;right=0;align=left;spacingLeft=6;overflow=hidden;" vertex="1" parent="08lXn7UrBo5lOZibLP5f-3">
                    <mxGeometry x="40" width="144" height="30" as="geometry"/>
                </mxCell>
                <mxCell id="gyolgve-ai5faWCOUoNd-66" value="" style="shape=partialRectangle;html=1;whiteSpace=wrap;collapsible=0;dropTarget=0;pointerEvents=0;fillColor=none;top=0;left=0;bottom=0;right=0;points=[[0,0.5],[1,0.5]];portConstraint=eastwest;" parent="gyolgve-ai5faWCOUoNd-59" vertex="1">
                    <mxGeometry y="216" width="184" height="30" as="geometry"/>
                </mxCell>
                <mxCell id="gyolgve-ai5faWCOUoNd-67" value="7" style="shape=partialRectangle;html=1;whiteSpace=wrap;connectable=0;fillColor=none;top=0;left=0;bottom=0;right=0;overflow=hidden;" parent="gyolgve-ai5faWCOUoNd-66" vertex="1">
                    <mxGeometry width="40" height="30" as="geometry"/>
                </mxCell>
                <mxCell id="gyolgve-ai5faWCOUoNd-68" value="FirstName" style="shape=partialRectangle;html=1;whiteSpace=wrap;connectable=0;fillColor=none;top=0;left=0;bottom=0;right=0;align=left;spacingLeft=6;overflow=hidden;" parent="gyolgve-ai5faWCOUoNd-66" vertex="1">
                    <mxGeometry x="40" width="144" height="30" as="geometry"/>
                </mxCell>
                <mxCell id="gyolgve-ai5faWCOUoNd-69" value="" style="shape=partialRectangle;html=1;whiteSpace=wrap;collapsible=0;dropTarget=0;pointerEvents=0;fillColor=none;top=0;left=0;bottom=0;right=0;points=[[0,0.5],[1,0.5]];portConstraint=eastwest;" parent="gyolgve-ai5faWCOUoNd-59" vertex="1">
                    <mxGeometry y="246" width="184" height="30" as="geometry"/>
                </mxCell>
                <mxCell id="gyolgve-ai5faWCOUoNd-70" value="8" style="shape=partialRectangle;html=1;whiteSpace=wrap;connectable=0;fillColor=none;top=0;left=0;bottom=0;right=0;overflow=hidden;" parent="gyolgve-ai5faWCOUoNd-69" vertex="1">
                    <mxGeometry width="40" height="30" as="geometry"/>
                </mxCell>
                <mxCell id="gyolgve-ai5faWCOUoNd-71" value="LastName" style="shape=partialRectangle;html=1;whiteSpace=wrap;connectable=0;fillColor=none;top=0;left=0;bottom=0;right=0;align=left;spacingLeft=6;overflow=hidden;" parent="gyolgve-ai5faWCOUoNd-69" vertex="1">
                    <mxGeometry x="40" width="144" height="30" as="geometry"/>
                </mxCell>
                <mxCell id="gyolgve-ai5faWCOUoNd-72" value="" style="shape=partialRectangle;html=1;whiteSpace=wrap;collapsible=0;dropTarget=0;pointerEvents=0;fillColor=none;top=0;left=0;bottom=0;right=0;points=[[0,0.5],[1,0.5]];portConstraint=eastwest;" parent="gyolgve-ai5faWCOUoNd-59" vertex="1">
                    <mxGeometry y="276" width="184" height="30" as="geometry"/>
                </mxCell>
                <mxCell id="gyolgve-ai5faWCOUoNd-73" value="9" style="shape=partialRectangle;html=1;whiteSpace=wrap;connectable=0;fillColor=none;top=0;left=0;bottom=0;right=0;overflow=hidden;" parent="gyolgve-ai5faWCOUoNd-72" vertex="1">
                    <mxGeometry width="40" height="30" as="geometry"/>
                </mxCell>
                <mxCell id="gyolgve-ai5faWCOUoNd-74" value="BirthName" style="shape=partialRectangle;html=1;whiteSpace=wrap;connectable=0;fillColor=none;top=0;left=0;bottom=0;right=0;align=left;spacingLeft=6;overflow=hidden;" parent="gyolgve-ai5faWCOUoNd-72" vertex="1">
                    <mxGeometry x="40" width="144" height="30" as="geometry"/>
                </mxCell>
                <mxCell id="gyolgve-ai5faWCOUoNd-75" value="" style="shape=partialRectangle;html=1;whiteSpace=wrap;collapsible=0;dropTarget=0;pointerEvents=0;fillColor=none;top=0;left=0;bottom=0;right=0;points=[[0,0.5],[1,0.5]];portConstraint=eastwest;" parent="gyolgve-ai5faWCOUoNd-59" vertex="1">
                    <mxGeometry y="306" width="184" height="30" as="geometry"/>
                </mxCell>
                <mxCell id="gyolgve-ai5faWCOUoNd-76" value="10" style="shape=partialRectangle;html=1;whiteSpace=wrap;connectable=0;fillColor=none;top=0;left=0;bottom=0;right=0;overflow=hidden;" parent="gyolgve-ai5faWCOUoNd-75" vertex="1">
                    <mxGeometry width="40" height="30" as="geometry"/>
                </mxCell>
                <mxCell id="gyolgve-ai5faWCOUoNd-77" value="Gender" style="shape=partialRectangle;html=1;whiteSpace=wrap;connectable=0;fillColor=none;top=0;left=0;bottom=0;right=0;align=left;spacingLeft=6;overflow=hidden;" parent="gyolgve-ai5faWCOUoNd-75" vertex="1">
                    <mxGeometry x="40" width="144" height="30" as="geometry"/>
                </mxCell>
                <mxCell id="gyolgve-ai5faWCOUoNd-87" value="" style="shape=partialRectangle;html=1;whiteSpace=wrap;collapsible=0;dropTarget=0;pointerEvents=0;fillColor=none;top=0;left=0;bottom=0;right=0;points=[[0,0.5],[1,0.5]];portConstraint=eastwest;" parent="gyolgve-ai5faWCOUoNd-59" vertex="1">
                    <mxGeometry y="336" width="184" height="30" as="geometry"/>
                </mxCell>
                <mxCell id="gyolgve-ai5faWCOUoNd-88" value="11" style="shape=partialRectangle;html=1;whiteSpace=wrap;connectable=0;fillColor=none;top=0;left=0;bottom=0;right=0;overflow=hidden;" parent="gyolgve-ai5faWCOUoNd-87" vertex="1">
                    <mxGeometry width="40" height="30" as="geometry"/>
                </mxCell>
                <mxCell id="gyolgve-ai5faWCOUoNd-89" value="Rank" style="shape=partialRectangle;html=1;whiteSpace=wrap;connectable=0;fillColor=none;top=0;left=0;bottom=0;right=0;align=left;spacingLeft=6;overflow=hidden;" parent="gyolgve-ai5faWCOUoNd-87" vertex="1">
                    <mxGeometry x="40" width="144" height="30" as="geometry"/>
                </mxCell>
                <mxCell id="YvW5GELVvHII5aWt2_u--0" value="" style="shape=partialRectangle;html=1;whiteSpace=wrap;collapsible=0;dropTarget=0;pointerEvents=0;fillColor=none;top=0;left=0;bottom=0;right=0;points=[[0,0.5],[1,0.5]];portConstraint=eastwest;" vertex="1" parent="gyolgve-ai5faWCOUoNd-59">
                    <mxGeometry y="366" width="184" height="30" as="geometry"/>
                </mxCell>
                <mxCell id="YvW5GELVvHII5aWt2_u--1" value="12" style="shape=partialRectangle;html=1;whiteSpace=wrap;connectable=0;fillColor=none;top=0;left=0;bottom=0;right=0;overflow=hidden;" vertex="1" parent="YvW5GELVvHII5aWt2_u--0">
                    <mxGeometry width="40" height="30" as="geometry"/>
                </mxCell>
                <mxCell id="YvW5GELVvHII5aWt2_u--2" value="PassportNumber" style="shape=partialRectangle;html=1;whiteSpace=wrap;connectable=0;fillColor=none;top=0;left=0;bottom=0;right=0;align=left;spacingLeft=6;overflow=hidden;" vertex="1" parent="YvW5GELVvHII5aWt2_u--0">
                    <mxGeometry x="40" width="144" height="30" as="geometry"/>
                </mxCell>
                <mxCell id="J1Xi__0R0ApcOaYCKPqU-0" value="" style="shape=partialRectangle;html=1;whiteSpace=wrap;collapsible=0;dropTarget=0;pointerEvents=0;fillColor=none;top=0;left=0;bottom=0;right=0;points=[[0,0.5],[1,0.5]];portConstraint=eastwest;" vertex="1" parent="gyolgve-ai5faWCOUoNd-59">
                    <mxGeometry y="396" width="184" height="30" as="geometry"/>
                </mxCell>
                <mxCell id="J1Xi__0R0ApcOaYCKPqU-1" value="13" style="shape=partialRectangle;html=1;whiteSpace=wrap;connectable=0;fillColor=none;top=0;left=0;bottom=0;right=0;overflow=hidden;" vertex="1" parent="J1Xi__0R0ApcOaYCKPqU-0">
                    <mxGeometry width="40" height="30" as="geometry"/>
                </mxCell>
                <mxCell id="J1Xi__0R0ApcOaYCKPqU-2" value="DopingTest" style="shape=partialRectangle;html=1;whiteSpace=wrap;connectable=0;fillColor=none;top=0;left=0;bottom=0;right=0;align=left;spacingLeft=6;overflow=hidden;" vertex="1" parent="J1Xi__0R0ApcOaYCKPqU-0">
                    <mxGeometry x="40" width="144" height="30" as="geometry"/>
                </mxCell>
                <mxCell id="gyolgve-ai5faWCOUoNd-140" value="Sponsor" style="shape=table;startSize=40;container=1;collapsible=0;childLayout=tableLayout;fixedRows=1;rowLines=0;fontStyle=1;align=center;rounded=0;sketch=0;fontColor=#46495D;strokeColor=#788AA3;fillColor=#B2C9AB;" parent="mvMvy7dG3c4JRi--3KPx-1" vertex="1">
                    <mxGeometry x="256" y="1169" width="180" height="216" as="geometry"/>
                </mxCell>
                <mxCell id="hHnrdNrwomO3HZSzoKWz-39" value="" style="shape=partialRectangle;html=1;whiteSpace=wrap;collapsible=0;dropTarget=0;pointerEvents=0;fillColor=none;top=0;left=0;bottom=0;right=0;points=[[0,0.5],[1,0.5]];portConstraint=eastwest;" parent="gyolgve-ai5faWCOUoNd-140" vertex="1">
                    <mxGeometry y="40" width="180" height="30" as="geometry"/>
                </mxCell>
                <mxCell id="hHnrdNrwomO3HZSzoKWz-40" value="1" style="shape=partialRectangle;html=1;whiteSpace=wrap;connectable=0;fillColor=none;top=0;left=0;bottom=0;right=0;overflow=hidden;" parent="hHnrdNrwomO3HZSzoKWz-39" vertex="1">
                    <mxGeometry width="40" height="30" as="geometry"/>
                </mxCell>
                <mxCell id="hHnrdNrwomO3HZSzoKWz-41" value="SponsorID" style="shape=partialRectangle;html=1;whiteSpace=wrap;connectable=0;fillColor=none;top=0;left=0;bottom=0;right=0;align=left;spacingLeft=6;overflow=hidden;" parent="hHnrdNrwomO3HZSzoKWz-39" vertex="1">
                    <mxGeometry x="40" width="140" height="30" as="geometry"/>
                </mxCell>
                <mxCell id="hHnrdNrwomO3HZSzoKWz-42" value="" style="shape=partialRectangle;html=1;whiteSpace=wrap;collapsible=0;dropTarget=0;pointerEvents=0;fillColor=none;top=0;left=0;bottom=0;right=0;points=[[0,0.5],[1,0.5]];portConstraint=eastwest;" parent="gyolgve-ai5faWCOUoNd-140" vertex="1">
                    <mxGeometry y="70" width="180" height="30" as="geometry"/>
                </mxCell>
                <mxCell id="hHnrdNrwomO3HZSzoKWz-43" value="2" style="shape=partialRectangle;html=1;whiteSpace=wrap;connectable=0;fillColor=none;top=0;left=0;bottom=0;right=0;overflow=hidden;" parent="hHnrdNrwomO3HZSzoKWz-42" vertex="1">
                    <mxGeometry width="40" height="30" as="geometry"/>
                </mxCell>
                <mxCell id="hHnrdNrwomO3HZSzoKWz-44" value="CompetitionID" style="shape=partialRectangle;html=1;whiteSpace=wrap;connectable=0;fillColor=none;top=0;left=0;bottom=0;right=0;align=left;spacingLeft=6;overflow=hidden;" parent="hHnrdNrwomO3HZSzoKWz-42" vertex="1">
                    <mxGeometry x="40" width="140" height="30" as="geometry"/>
                </mxCell>
                <mxCell id="hHnrdNrwomO3HZSzoKWz-45" value="" style="shape=partialRectangle;html=1;whiteSpace=wrap;collapsible=0;dropTarget=0;pointerEvents=0;fillColor=none;top=0;left=0;bottom=0;right=0;points=[[0,0.5],[1,0.5]];portConstraint=eastwest;" parent="gyolgve-ai5faWCOUoNd-140" vertex="1">
                    <mxGeometry y="100" width="180" height="30" as="geometry"/>
                </mxCell>
                <mxCell id="hHnrdNrwomO3HZSzoKWz-46" value="3" style="shape=partialRectangle;html=1;whiteSpace=wrap;connectable=0;fillColor=none;top=0;left=0;bottom=0;right=0;overflow=hidden;" parent="hHnrdNrwomO3HZSzoKWz-45" vertex="1">
                    <mxGeometry width="40" height="30" as="geometry"/>
                </mxCell>
                <mxCell id="hHnrdNrwomO3HZSzoKWz-47" value="CountryID" style="shape=partialRectangle;html=1;whiteSpace=wrap;connectable=0;fillColor=none;top=0;left=0;bottom=0;right=0;align=left;spacingLeft=6;overflow=hidden;" parent="hHnrdNrwomO3HZSzoKWz-45" vertex="1">
                    <mxGeometry x="40" width="140" height="30" as="geometry"/>
                </mxCell>
                <mxCell id="gyolgve-ai5faWCOUoNd-141" value="" style="shape=partialRectangle;html=1;whiteSpace=wrap;collapsible=0;dropTarget=0;pointerEvents=0;fillColor=none;top=0;left=0;bottom=0;right=0;points=[[0,0.5],[1,0.5]];portConstraint=eastwest;" parent="gyolgve-ai5faWCOUoNd-140" vertex="1">
                    <mxGeometry y="130" width="180" height="30" as="geometry"/>
                </mxCell>
                <mxCell id="gyolgve-ai5faWCOUoNd-142" value="4" style="shape=partialRectangle;html=1;whiteSpace=wrap;connectable=0;fillColor=none;top=0;left=0;bottom=0;right=0;overflow=hidden;" parent="gyolgve-ai5faWCOUoNd-141" vertex="1">
                    <mxGeometry width="40" height="30" as="geometry"/>
                </mxCell>
                <mxCell id="gyolgve-ai5faWCOUoNd-143" value="Name" style="shape=partialRectangle;html=1;whiteSpace=wrap;connectable=0;fillColor=none;top=0;left=0;bottom=0;right=0;align=left;spacingLeft=6;overflow=hidden;" parent="gyolgve-ai5faWCOUoNd-141" vertex="1">
                    <mxGeometry x="40" width="140" height="30" as="geometry"/>
                </mxCell>
                <mxCell id="gyolgve-ai5faWCOUoNd-147" value="" style="shape=partialRectangle;html=1;whiteSpace=wrap;collapsible=0;dropTarget=0;pointerEvents=0;fillColor=none;top=0;left=0;bottom=0;right=0;points=[[0,0.5],[1,0.5]];portConstraint=eastwest;" parent="gyolgve-ai5faWCOUoNd-140" vertex="1">
                    <mxGeometry y="160" width="180" height="30" as="geometry"/>
                </mxCell>
                <mxCell id="gyolgve-ai5faWCOUoNd-148" value="5" style="shape=partialRectangle;html=1;whiteSpace=wrap;connectable=0;fillColor=none;top=0;left=0;bottom=0;right=0;overflow=hidden;" parent="gyolgve-ai5faWCOUoNd-147" vertex="1">
                    <mxGeometry width="40" height="30" as="geometry"/>
                </mxCell>
                <mxCell id="gyolgve-ai5faWCOUoNd-149" value="Category" style="shape=partialRectangle;html=1;whiteSpace=wrap;connectable=0;fillColor=none;top=0;left=0;bottom=0;right=0;align=left;spacingLeft=6;overflow=hidden;" parent="gyolgve-ai5faWCOUoNd-147" vertex="1">
                    <mxGeometry x="40" width="140" height="30" as="geometry"/>
                </mxCell>
                <mxCell id="gyolgve-ai5faWCOUoNd-144" value="" style="shape=partialRectangle;html=1;whiteSpace=wrap;collapsible=0;dropTarget=0;pointerEvents=0;fillColor=none;top=0;left=0;bottom=1;right=0;points=[[0,0.5],[1,0.5]];portConstraint=eastwest;" parent="gyolgve-ai5faWCOUoNd-140" vertex="1">
                    <mxGeometry y="190" width="180" height="26" as="geometry"/>
                </mxCell>
                <mxCell id="gyolgve-ai5faWCOUoNd-145" value="6" style="shape=partialRectangle;html=1;whiteSpace=wrap;connectable=0;fillColor=none;top=0;left=0;bottom=0;right=0;overflow=hidden;" parent="gyolgve-ai5faWCOUoNd-144" vertex="1">
                    <mxGeometry width="40" height="26" as="geometry"/>
                </mxCell>
                <mxCell id="gyolgve-ai5faWCOUoNd-146" value="Amount" style="shape=partialRectangle;html=1;whiteSpace=wrap;connectable=0;fillColor=none;top=0;left=0;bottom=0;right=0;align=left;spacingLeft=6;overflow=hidden;" parent="gyolgve-ai5faWCOUoNd-144" vertex="1">
                    <mxGeometry x="40" width="140" height="26" as="geometry"/>
                </mxCell>
                <mxCell id="gyolgve-ai5faWCOUoNd-184" value="Pool" style="shape=table;startSize=40;container=1;collapsible=0;childLayout=tableLayout;fixedRows=1;rowLines=0;fontStyle=1;align=center;rounded=0;sketch=0;fontColor=#46495D;strokeColor=#788AA3;fillColor=#B2C9AB;" parent="mvMvy7dG3c4JRi--3KPx-1" vertex="1">
                    <mxGeometry x="584" y="919" width="180" height="250" as="geometry"/>
                </mxCell>
                <mxCell id="gyolgve-ai5faWCOUoNd-191" value="" style="shape=partialRectangle;html=1;whiteSpace=wrap;collapsible=0;dropTarget=0;pointerEvents=0;fillColor=none;top=0;left=0;bottom=0;right=0;points=[[0,0.5],[1,0.5]];portConstraint=eastwest;" parent="gyolgve-ai5faWCOUoNd-184" vertex="1">
                    <mxGeometry y="40" width="180" height="30" as="geometry"/>
                </mxCell>
                <mxCell id="gyolgve-ai5faWCOUoNd-192" value="1" style="shape=partialRectangle;html=1;whiteSpace=wrap;connectable=0;fillColor=none;top=0;left=0;bottom=0;right=0;overflow=hidden;" parent="gyolgve-ai5faWCOUoNd-191" vertex="1">
                    <mxGeometry width="40" height="30" as="geometry"/>
                </mxCell>
                <mxCell id="gyolgve-ai5faWCOUoNd-193" value="PoolID" style="shape=partialRectangle;html=1;whiteSpace=wrap;connectable=0;fillColor=none;top=0;left=0;bottom=0;right=0;align=left;spacingLeft=6;overflow=hidden;" parent="gyolgve-ai5faWCOUoNd-191" vertex="1">
                    <mxGeometry x="40" width="140" height="30" as="geometry"/>
                </mxCell>
                <mxCell id="hHnrdNrwomO3HZSzoKWz-18" value="" style="shape=partialRectangle;html=1;whiteSpace=wrap;collapsible=0;dropTarget=0;pointerEvents=0;fillColor=none;top=0;left=0;bottom=0;right=0;points=[[0,0.5],[1,0.5]];portConstraint=eastwest;" parent="gyolgve-ai5faWCOUoNd-184" vertex="1">
                    <mxGeometry y="70" width="180" height="34" as="geometry"/>
                </mxCell>
                <mxCell id="hHnrdNrwomO3HZSzoKWz-19" value="2" style="shape=partialRectangle;html=1;whiteSpace=wrap;connectable=0;fillColor=none;top=0;left=0;bottom=0;right=0;overflow=hidden;" parent="hHnrdNrwomO3HZSzoKWz-18" vertex="1">
                    <mxGeometry width="40" height="34" as="geometry"/>
                </mxCell>
                <mxCell id="hHnrdNrwomO3HZSzoKWz-20" value="CompetitionID" style="shape=partialRectangle;html=1;whiteSpace=wrap;connectable=0;fillColor=none;top=0;left=0;bottom=0;right=0;align=left;spacingLeft=6;overflow=hidden;" parent="hHnrdNrwomO3HZSzoKWz-18" vertex="1">
                    <mxGeometry x="40" width="140" height="34" as="geometry"/>
                </mxCell>
                <mxCell id="hHnrdNrwomO3HZSzoKWz-21" value="" style="shape=partialRectangle;html=1;whiteSpace=wrap;collapsible=0;dropTarget=0;pointerEvents=0;fillColor=none;top=0;left=0;bottom=0;right=0;points=[[0,0.5],[1,0.5]];portConstraint=eastwest;" parent="gyolgve-ai5faWCOUoNd-184" vertex="1">
                    <mxGeometry y="104" width="180" height="30" as="geometry"/>
                </mxCell>
                <mxCell id="hHnrdNrwomO3HZSzoKWz-22" value="3" style="shape=partialRectangle;html=1;whiteSpace=wrap;connectable=0;fillColor=none;top=0;left=0;bottom=0;right=0;overflow=hidden;" parent="hHnrdNrwomO3HZSzoKWz-21" vertex="1">
                    <mxGeometry width="40" height="30" as="geometry"/>
                </mxCell>
                <mxCell id="hHnrdNrwomO3HZSzoKWz-23" value="Name" style="shape=partialRectangle;html=1;whiteSpace=wrap;connectable=0;fillColor=none;top=0;left=0;bottom=0;right=0;align=left;spacingLeft=6;overflow=hidden;" parent="hHnrdNrwomO3HZSzoKWz-21" vertex="1">
                    <mxGeometry x="40" width="140" height="30" as="geometry"/>
                </mxCell>
                <mxCell id="gyolgve-ai5faWCOUoNd-188" value="" style="shape=partialRectangle;html=1;whiteSpace=wrap;collapsible=0;dropTarget=0;pointerEvents=0;fillColor=none;top=0;left=0;bottom=1;right=0;points=[[0,0.5],[1,0.5]];portConstraint=eastwest;" parent="gyolgve-ai5faWCOUoNd-184" vertex="1">
                    <mxGeometry y="134" width="180" height="26" as="geometry"/>
                </mxCell>
                <mxCell id="gyolgve-ai5faWCOUoNd-189" value="4" style="shape=partialRectangle;html=1;whiteSpace=wrap;connectable=0;fillColor=none;top=0;left=0;bottom=0;right=0;overflow=hidden;" parent="gyolgve-ai5faWCOUoNd-188" vertex="1">
                    <mxGeometry width="40" height="26" as="geometry"/>
                </mxCell>
                <mxCell id="gyolgve-ai5faWCOUoNd-190" value="CityID" style="shape=partialRectangle;html=1;whiteSpace=wrap;connectable=0;fillColor=none;top=0;left=0;bottom=0;right=0;align=left;spacingLeft=6;overflow=hidden;" parent="gyolgve-ai5faWCOUoNd-188" vertex="1">
                    <mxGeometry x="40" width="140" height="26" as="geometry"/>
                </mxCell>
                <mxCell id="gyolgve-ai5faWCOUoNd-194" value="" style="shape=partialRectangle;html=1;whiteSpace=wrap;collapsible=0;dropTarget=0;pointerEvents=0;fillColor=none;top=0;left=0;bottom=0;right=0;points=[[0,0.5],[1,0.5]];portConstraint=eastwest;" parent="gyolgve-ai5faWCOUoNd-184" vertex="1">
                    <mxGeometry y="160" width="180" height="30" as="geometry"/>
                </mxCell>
                <mxCell id="gyolgve-ai5faWCOUoNd-195" value="5" style="shape=partialRectangle;html=1;whiteSpace=wrap;connectable=0;fillColor=none;top=0;left=0;bottom=0;right=0;overflow=hidden;" parent="gyolgve-ai5faWCOUoNd-194" vertex="1">
                    <mxGeometry width="40" height="30" as="geometry"/>
                </mxCell>
                <mxCell id="gyolgve-ai5faWCOUoNd-196" value="Length" style="shape=partialRectangle;html=1;whiteSpace=wrap;connectable=0;fillColor=none;top=0;left=0;bottom=0;right=0;align=left;spacingLeft=6;overflow=hidden;" parent="gyolgve-ai5faWCOUoNd-194" vertex="1">
                    <mxGeometry x="40" width="140" height="30" as="geometry"/>
                </mxCell>
                <mxCell id="gyolgve-ai5faWCOUoNd-197" value="" style="shape=partialRectangle;html=1;whiteSpace=wrap;collapsible=0;dropTarget=0;pointerEvents=0;fillColor=none;top=0;left=0;bottom=0;right=0;points=[[0,0.5],[1,0.5]];portConstraint=eastwest;" parent="gyolgve-ai5faWCOUoNd-184" vertex="1">
                    <mxGeometry y="190" width="180" height="30" as="geometry"/>
                </mxCell>
                <mxCell id="gyolgve-ai5faWCOUoNd-198" value="6" style="shape=partialRectangle;html=1;whiteSpace=wrap;connectable=0;fillColor=none;top=0;left=0;bottom=0;right=0;overflow=hidden;" parent="gyolgve-ai5faWCOUoNd-197" vertex="1">
                    <mxGeometry width="40" height="30" as="geometry"/>
                </mxCell>
                <mxCell id="gyolgve-ai5faWCOUoNd-199" value="Width" style="shape=partialRectangle;html=1;whiteSpace=wrap;connectable=0;fillColor=none;top=0;left=0;bottom=0;right=0;align=left;spacingLeft=6;overflow=hidden;" parent="gyolgve-ai5faWCOUoNd-197" vertex="1">
                    <mxGeometry x="40" width="140" height="30" as="geometry"/>
                </mxCell>
                <mxCell id="gyolgve-ai5faWCOUoNd-200" value="" style="shape=partialRectangle;html=1;whiteSpace=wrap;collapsible=0;dropTarget=0;pointerEvents=0;fillColor=none;top=0;left=0;bottom=0;right=0;points=[[0,0.5],[1,0.5]];portConstraint=eastwest;" parent="gyolgve-ai5faWCOUoNd-184" vertex="1">
                    <mxGeometry y="220" width="180" height="30" as="geometry"/>
                </mxCell>
                <mxCell id="gyolgve-ai5faWCOUoNd-201" value="7" style="shape=partialRectangle;html=1;whiteSpace=wrap;connectable=0;fillColor=none;top=0;left=0;bottom=0;right=0;overflow=hidden;" parent="gyolgve-ai5faWCOUoNd-200" vertex="1">
                    <mxGeometry width="40" height="30" as="geometry"/>
                </mxCell>
                <mxCell id="gyolgve-ai5faWCOUoNd-202" value="Depth" style="shape=partialRectangle;html=1;whiteSpace=wrap;connectable=0;fillColor=none;top=0;left=0;bottom=0;right=0;align=left;spacingLeft=6;overflow=hidden;" parent="gyolgve-ai5faWCOUoNd-200" vertex="1">
                    <mxGeometry x="40" width="140" height="30" as="geometry"/>
                </mxCell>
                <mxCell id="gyolgve-ai5faWCOUoNd-96" value="Competition" style="shape=table;startSize=40;container=1;collapsible=0;childLayout=tableLayout;fixedRows=1;rowLines=0;fontStyle=1;align=center;rounded=0;sketch=0;fontColor=#46495D;strokeColor=#788AA3;fillColor=#B2C9AB;" parent="mvMvy7dG3c4JRi--3KPx-1" vertex="1">
                    <mxGeometry x="256" y="808" width="180" height="246" as="geometry"/>
                </mxCell>
                <mxCell id="gyolgve-ai5faWCOUoNd-97" value="" style="shape=partialRectangle;html=1;whiteSpace=wrap;collapsible=0;dropTarget=0;pointerEvents=0;fillColor=none;top=0;left=0;bottom=0;right=0;points=[[0,0.5],[1,0.5]];portConstraint=eastwest;" parent="gyolgve-ai5faWCOUoNd-96" vertex="1">
                    <mxGeometry y="40" width="180" height="30" as="geometry"/>
                </mxCell>
                <mxCell id="gyolgve-ai5faWCOUoNd-98" value="1" style="shape=partialRectangle;html=1;whiteSpace=wrap;connectable=0;fillColor=none;top=0;left=0;bottom=0;right=0;overflow=hidden;" parent="gyolgve-ai5faWCOUoNd-97" vertex="1">
                    <mxGeometry width="40" height="30" as="geometry"/>
                </mxCell>
                <mxCell id="gyolgve-ai5faWCOUoNd-99" value="CompetitionID" style="shape=partialRectangle;html=1;whiteSpace=wrap;connectable=0;fillColor=none;top=0;left=0;bottom=0;right=0;align=left;spacingLeft=6;overflow=hidden;" parent="gyolgve-ai5faWCOUoNd-97" vertex="1">
                    <mxGeometry x="40" width="140" height="30" as="geometry"/>
                </mxCell>
                <mxCell id="hHnrdNrwomO3HZSzoKWz-36" value="" style="shape=partialRectangle;html=1;whiteSpace=wrap;collapsible=0;dropTarget=0;pointerEvents=0;fillColor=none;top=0;left=0;bottom=0;right=0;points=[[0,0.5],[1,0.5]];portConstraint=eastwest;" parent="gyolgve-ai5faWCOUoNd-96" vertex="1">
                    <mxGeometry y="70" width="180" height="30" as="geometry"/>
                </mxCell>
                <mxCell id="hHnrdNrwomO3HZSzoKWz-37" value="2" style="shape=partialRectangle;html=1;whiteSpace=wrap;connectable=0;fillColor=none;top=0;left=0;bottom=0;right=0;overflow=hidden;" parent="hHnrdNrwomO3HZSzoKWz-36" vertex="1">
                    <mxGeometry width="40" height="30" as="geometry"/>
                </mxCell>
                <mxCell id="hHnrdNrwomO3HZSzoKWz-38" value="ResultID" style="shape=partialRectangle;html=1;whiteSpace=wrap;connectable=0;fillColor=none;top=0;left=0;bottom=0;right=0;align=left;spacingLeft=6;overflow=hidden;" parent="hHnrdNrwomO3HZSzoKWz-36" vertex="1">
                    <mxGeometry x="40" width="140" height="30" as="geometry"/>
                </mxCell>
                <mxCell id="hHnrdNrwomO3HZSzoKWz-33" value="" style="shape=partialRectangle;html=1;whiteSpace=wrap;collapsible=0;dropTarget=0;pointerEvents=0;fillColor=none;top=0;left=0;bottom=0;right=0;points=[[0,0.5],[1,0.5]];portConstraint=eastwest;" parent="gyolgve-ai5faWCOUoNd-96" vertex="1">
                    <mxGeometry y="100" width="180" height="30" as="geometry"/>
                </mxCell>
                <mxCell id="hHnrdNrwomO3HZSzoKWz-34" value="3" style="shape=partialRectangle;html=1;whiteSpace=wrap;connectable=0;fillColor=none;top=0;left=0;bottom=0;right=0;overflow=hidden;" parent="hHnrdNrwomO3HZSzoKWz-33" vertex="1">
                    <mxGeometry width="40" height="30" as="geometry"/>
                </mxCell>
                <mxCell id="hHnrdNrwomO3HZSzoKWz-35" value="JudgeID" style="shape=partialRectangle;html=1;whiteSpace=wrap;connectable=0;fillColor=none;top=0;left=0;bottom=0;right=0;align=left;spacingLeft=6;overflow=hidden;" parent="hHnrdNrwomO3HZSzoKWz-33" vertex="1">
                    <mxGeometry x="40" width="140" height="30" as="geometry"/>
                </mxCell>
                <mxCell id="gyolgve-ai5faWCOUoNd-103" value="" style="shape=partialRectangle;html=1;whiteSpace=wrap;collapsible=0;dropTarget=0;pointerEvents=0;fillColor=none;top=0;left=0;bottom=0;right=0;points=[[0,0.5],[1,0.5]];portConstraint=eastwest;" parent="gyolgve-ai5faWCOUoNd-96" vertex="1">
                    <mxGeometry y="130" width="180" height="30" as="geometry"/>
                </mxCell>
                <mxCell id="gyolgve-ai5faWCOUoNd-104" value="4" style="shape=partialRectangle;html=1;whiteSpace=wrap;connectable=0;fillColor=none;top=0;left=0;bottom=0;right=0;overflow=hidden;" parent="gyolgve-ai5faWCOUoNd-103" vertex="1">
                    <mxGeometry width="40" height="30" as="geometry"/>
                </mxCell>
                <mxCell id="gyolgve-ai5faWCOUoNd-105" value="PoolID" style="shape=partialRectangle;html=1;whiteSpace=wrap;connectable=0;fillColor=none;top=0;left=0;bottom=0;right=0;align=left;spacingLeft=6;overflow=hidden;" parent="gyolgve-ai5faWCOUoNd-103" vertex="1">
                    <mxGeometry x="40" width="140" height="30" as="geometry"/>
                </mxCell>
                <mxCell id="gyolgve-ai5faWCOUoNd-100" value="" style="shape=partialRectangle;html=1;whiteSpace=wrap;collapsible=0;dropTarget=0;pointerEvents=0;fillColor=none;top=0;left=0;bottom=1;right=0;points=[[0,0.5],[1,0.5]];portConstraint=eastwest;" parent="gyolgve-ai5faWCOUoNd-96" vertex="1">
                    <mxGeometry y="160" width="180" height="26" as="geometry"/>
                </mxCell>
                <mxCell id="gyolgve-ai5faWCOUoNd-101" value="5" style="shape=partialRectangle;html=1;whiteSpace=wrap;connectable=0;fillColor=none;top=0;left=0;bottom=0;right=0;overflow=hidden;" parent="gyolgve-ai5faWCOUoNd-100" vertex="1">
                    <mxGeometry width="40" height="26" as="geometry"/>
                </mxCell>
                <mxCell id="gyolgve-ai5faWCOUoNd-102" value="Name" style="shape=partialRectangle;html=1;whiteSpace=wrap;connectable=0;fillColor=none;top=0;left=0;bottom=0;right=0;align=left;spacingLeft=6;overflow=hidden;" parent="gyolgve-ai5faWCOUoNd-100" vertex="1">
                    <mxGeometry x="40" width="140" height="26" as="geometry"/>
                </mxCell>
                <mxCell id="hHnrdNrwomO3HZSzoKWz-30" value="" style="shape=partialRectangle;html=1;whiteSpace=wrap;collapsible=0;dropTarget=0;pointerEvents=0;fillColor=none;top=0;left=0;bottom=0;right=0;points=[[0,0.5],[1,0.5]];portConstraint=eastwest;" parent="gyolgve-ai5faWCOUoNd-96" vertex="1">
                    <mxGeometry y="186" width="180" height="30" as="geometry"/>
                </mxCell>
                <mxCell id="hHnrdNrwomO3HZSzoKWz-31" value="6" style="shape=partialRectangle;html=1;whiteSpace=wrap;connectable=0;fillColor=none;top=0;left=0;bottom=0;right=0;overflow=hidden;" parent="hHnrdNrwomO3HZSzoKWz-30" vertex="1">
                    <mxGeometry width="40" height="30" as="geometry"/>
                </mxCell>
                <mxCell id="hHnrdNrwomO3HZSzoKWz-32" value="Category" style="shape=partialRectangle;html=1;whiteSpace=wrap;connectable=0;fillColor=none;top=0;left=0;bottom=0;right=0;align=left;spacingLeft=6;overflow=hidden;" parent="hHnrdNrwomO3HZSzoKWz-30" vertex="1">
                    <mxGeometry x="40" width="140" height="30" as="geometry"/>
                </mxCell>
                <mxCell id="gyolgve-ai5faWCOUoNd-308" value="" style="shape=partialRectangle;html=1;whiteSpace=wrap;collapsible=0;dropTarget=0;pointerEvents=0;fillColor=none;top=0;left=0;bottom=0;right=0;points=[[0,0.5],[1,0.5]];portConstraint=eastwest;" parent="gyolgve-ai5faWCOUoNd-96" vertex="1">
                    <mxGeometry y="216" width="180" height="30" as="geometry"/>
                </mxCell>
                <mxCell id="gyolgve-ai5faWCOUoNd-309" value="7" style="shape=partialRectangle;html=1;whiteSpace=wrap;connectable=0;fillColor=none;top=0;left=0;bottom=0;right=0;overflow=hidden;" parent="gyolgve-ai5faWCOUoNd-308" vertex="1">
                    <mxGeometry width="40" height="30" as="geometry"/>
                </mxCell>
                <mxCell id="gyolgve-ai5faWCOUoNd-310" value="Date" style="shape=partialRectangle;html=1;whiteSpace=wrap;connectable=0;fillColor=none;top=0;left=0;bottom=0;right=0;align=left;spacingLeft=6;overflow=hidden;" parent="gyolgve-ai5faWCOUoNd-308" vertex="1">
                    <mxGeometry x="40" width="140" height="30" as="geometry"/>
                </mxCell>
                <mxCell id="gyolgve-ai5faWCOUoNd-209" value="Coach" style="shape=table;startSize=40;container=1;collapsible=0;childLayout=tableLayout;fixedRows=1;rowLines=0;fontStyle=1;align=center;rounded=0;sketch=0;fontColor=#46495D;strokeColor=#788AA3;fillColor=#B2C9AB;" parent="mvMvy7dG3c4JRi--3KPx-1" vertex="1">
                    <mxGeometry x="842" y="440" width="180" height="216" as="geometry"/>
                </mxCell>
                <mxCell id="gyolgve-ai5faWCOUoNd-210" value="" style="shape=partialRectangle;html=1;whiteSpace=wrap;collapsible=0;dropTarget=0;pointerEvents=0;fillColor=none;top=0;left=0;bottom=0;right=0;points=[[0,0.5],[1,0.5]];portConstraint=eastwest;" parent="gyolgve-ai5faWCOUoNd-209" vertex="1">
                    <mxGeometry y="40" width="180" height="30" as="geometry"/>
                </mxCell>
                <mxCell id="gyolgve-ai5faWCOUoNd-211" value="1" style="shape=partialRectangle;html=1;whiteSpace=wrap;connectable=0;fillColor=none;top=0;left=0;bottom=0;right=0;overflow=hidden;" parent="gyolgve-ai5faWCOUoNd-210" vertex="1">
                    <mxGeometry width="40" height="30" as="geometry"/>
                </mxCell>
                <mxCell id="gyolgve-ai5faWCOUoNd-212" value="CoachID" style="shape=partialRectangle;html=1;whiteSpace=wrap;connectable=0;fillColor=none;top=0;left=0;bottom=0;right=0;align=left;spacingLeft=6;overflow=hidden;" parent="gyolgve-ai5faWCOUoNd-210" vertex="1">
                    <mxGeometry x="40" width="140" height="30" as="geometry"/>
                </mxCell>
                <mxCell id="gyolgve-ai5faWCOUoNd-213" value="" style="shape=partialRectangle;html=1;whiteSpace=wrap;collapsible=0;dropTarget=0;pointerEvents=0;fillColor=none;top=0;left=0;bottom=1;right=0;points=[[0,0.5],[1,0.5]];portConstraint=eastwest;" parent="gyolgve-ai5faWCOUoNd-209" vertex="1">
                    <mxGeometry y="70" width="180" height="26" as="geometry"/>
                </mxCell>
                <mxCell id="gyolgve-ai5faWCOUoNd-214" value="2" style="shape=partialRectangle;html=1;whiteSpace=wrap;connectable=0;fillColor=none;top=0;left=0;bottom=0;right=0;overflow=hidden;" parent="gyolgve-ai5faWCOUoNd-213" vertex="1">
                    <mxGeometry width="40" height="26" as="geometry"/>
                </mxCell>
                <mxCell id="gyolgve-ai5faWCOUoNd-215" value="FirstName" style="shape=partialRectangle;html=1;whiteSpace=wrap;connectable=0;fillColor=none;top=0;left=0;bottom=0;right=0;align=left;spacingLeft=6;overflow=hidden;" parent="gyolgve-ai5faWCOUoNd-213" vertex="1">
                    <mxGeometry x="40" width="140" height="26" as="geometry"/>
                </mxCell>
                <mxCell id="gyolgve-ai5faWCOUoNd-216" value="" style="shape=partialRectangle;html=1;whiteSpace=wrap;collapsible=0;dropTarget=0;pointerEvents=0;fillColor=none;top=0;left=0;bottom=0;right=0;points=[[0,0.5],[1,0.5]];portConstraint=eastwest;" parent="gyolgve-ai5faWCOUoNd-209" vertex="1">
                    <mxGeometry y="96" width="180" height="30" as="geometry"/>
                </mxCell>
                <mxCell id="gyolgve-ai5faWCOUoNd-217" value="3" style="shape=partialRectangle;html=1;whiteSpace=wrap;connectable=0;fillColor=none;top=0;left=0;bottom=0;right=0;overflow=hidden;" parent="gyolgve-ai5faWCOUoNd-216" vertex="1">
                    <mxGeometry width="40" height="30" as="geometry"/>
                </mxCell>
                <mxCell id="gyolgve-ai5faWCOUoNd-218" value="LastName" style="shape=partialRectangle;html=1;whiteSpace=wrap;connectable=0;fillColor=none;top=0;left=0;bottom=0;right=0;align=left;spacingLeft=6;overflow=hidden;" parent="gyolgve-ai5faWCOUoNd-216" vertex="1">
                    <mxGeometry x="40" width="140" height="30" as="geometry"/>
                </mxCell>
                <mxCell id="gyolgve-ai5faWCOUoNd-219" value="" style="shape=partialRectangle;html=1;whiteSpace=wrap;collapsible=0;dropTarget=0;pointerEvents=0;fillColor=none;top=0;left=0;bottom=0;right=0;points=[[0,0.5],[1,0.5]];portConstraint=eastwest;" parent="gyolgve-ai5faWCOUoNd-209" vertex="1">
                    <mxGeometry y="126" width="180" height="30" as="geometry"/>
                </mxCell>
                <mxCell id="gyolgve-ai5faWCOUoNd-220" value="4" style="shape=partialRectangle;html=1;whiteSpace=wrap;connectable=0;fillColor=none;top=0;left=0;bottom=0;right=0;overflow=hidden;" parent="gyolgve-ai5faWCOUoNd-219" vertex="1">
                    <mxGeometry width="40" height="30" as="geometry"/>
                </mxCell>
                <mxCell id="gyolgve-ai5faWCOUoNd-221" value="Rank" style="shape=partialRectangle;html=1;whiteSpace=wrap;connectable=0;fillColor=none;top=0;left=0;bottom=0;right=0;align=left;spacingLeft=6;overflow=hidden;" parent="gyolgve-ai5faWCOUoNd-219" vertex="1">
                    <mxGeometry x="40" width="140" height="30" as="geometry"/>
                </mxCell>
                <mxCell id="gyolgve-ai5faWCOUoNd-302" value="" style="shape=partialRectangle;html=1;whiteSpace=wrap;collapsible=0;dropTarget=0;pointerEvents=0;fillColor=none;top=0;left=0;bottom=0;right=0;points=[[0,0.5],[1,0.5]];portConstraint=eastwest;" parent="gyolgve-ai5faWCOUoNd-209" vertex="1">
                    <mxGeometry y="156" width="180" height="30" as="geometry"/>
                </mxCell>
                <mxCell id="gyolgve-ai5faWCOUoNd-303" value="5" style="shape=partialRectangle;html=1;whiteSpace=wrap;connectable=0;fillColor=none;top=0;left=0;bottom=0;right=0;overflow=hidden;" parent="gyolgve-ai5faWCOUoNd-302" vertex="1">
                    <mxGeometry width="40" height="30" as="geometry"/>
                </mxCell>
                <mxCell id="gyolgve-ai5faWCOUoNd-304" value="CountryID" style="shape=partialRectangle;html=1;whiteSpace=wrap;connectable=0;fillColor=none;top=0;left=0;bottom=0;right=0;align=left;spacingLeft=6;overflow=hidden;" parent="gyolgve-ai5faWCOUoNd-302" vertex="1">
                    <mxGeometry x="40" width="140" height="30" as="geometry"/>
                </mxCell>
                <mxCell id="Fe1FQ7PnB3UqlzhvZGoB-0" value="" style="shape=partialRectangle;html=1;whiteSpace=wrap;collapsible=0;dropTarget=0;pointerEvents=0;fillColor=none;top=0;left=0;bottom=0;right=0;points=[[0,0.5],[1,0.5]];portConstraint=eastwest;" vertex="1" parent="gyolgve-ai5faWCOUoNd-209">
                    <mxGeometry y="186" width="180" height="30" as="geometry"/>
                </mxCell>
                <mxCell id="Fe1FQ7PnB3UqlzhvZGoB-1" value="6" style="shape=partialRectangle;html=1;whiteSpace=wrap;connectable=0;fillColor=none;top=0;left=0;bottom=0;right=0;overflow=hidden;" vertex="1" parent="Fe1FQ7PnB3UqlzhvZGoB-0">
                    <mxGeometry width="40" height="30" as="geometry"/>
                </mxCell>
                <mxCell id="Fe1FQ7PnB3UqlzhvZGoB-2" value="PassportNumber" style="shape=partialRectangle;html=1;whiteSpace=wrap;connectable=0;fillColor=none;top=0;left=0;bottom=0;right=0;align=left;spacingLeft=6;overflow=hidden;" vertex="1" parent="Fe1FQ7PnB3UqlzhvZGoB-0">
                    <mxGeometry x="40" width="140" height="30" as="geometry"/>
                </mxCell>
                <mxCell id="gyolgve-ai5faWCOUoNd-240" style="edgeStyle=orthogonalEdgeStyle;curved=0;rounded=1;sketch=0;orthogonalLoop=1;jettySize=auto;html=1;exitX=0;exitY=0.5;exitDx=0;exitDy=0;fontColor=#46495D;strokeColor=#788AA3;fillColor=#B2C9AB;entryX=1;entryY=0.5;entryDx=0;entryDy=0;" parent="mvMvy7dG3c4JRi--3KPx-1" source="gyolgve-ai5faWCOUoNd-213" target="JsH2GUi7b-OpdOykYzpg-0" edge="1">
                    <mxGeometry relative="1" as="geometry">
                        <mxPoint x="808" y="570.4705882352941" as="targetPoint"/>
                    </mxGeometry>
                </mxCell>
                <mxCell id="gyolgve-ai5faWCOUoNd-242" value="WADA&#10;Laboratory" style="shape=table;startSize=40;container=1;collapsible=0;childLayout=tableLayout;fixedRows=1;rowLines=0;fontStyle=1;align=center;rounded=0;sketch=0;fontColor=#46495D;strokeColor=#788AA3;fillColor=#B2C9AB;" parent="mvMvy7dG3c4JRi--3KPx-1" vertex="1">
                    <mxGeometry x="850" y="728" width="180" height="186" as="geometry"/>
                </mxCell>
                <mxCell id="08lXn7UrBo5lOZibLP5f-0" value="" style="shape=partialRectangle;html=1;whiteSpace=wrap;collapsible=0;dropTarget=0;pointerEvents=0;fillColor=none;top=0;left=0;bottom=0;right=0;points=[[0,0.5],[1,0.5]];portConstraint=eastwest;" vertex="1" parent="gyolgve-ai5faWCOUoNd-242">
                    <mxGeometry y="40" width="180" height="30" as="geometry"/>
                </mxCell>
                <mxCell id="08lXn7UrBo5lOZibLP5f-1" value="1" style="shape=partialRectangle;html=1;whiteSpace=wrap;connectable=0;fillColor=none;top=0;left=0;bottom=0;right=0;overflow=hidden;" vertex="1" parent="08lXn7UrBo5lOZibLP5f-0">
                    <mxGeometry width="40" height="30" as="geometry"/>
                </mxCell>
                <mxCell id="08lXn7UrBo5lOZibLP5f-2" value="LaboratoryID" style="shape=partialRectangle;html=1;whiteSpace=wrap;connectable=0;fillColor=none;top=0;left=0;bottom=0;right=0;align=left;spacingLeft=6;overflow=hidden;" vertex="1" parent="08lXn7UrBo5lOZibLP5f-0">
                    <mxGeometry x="40" width="140" height="30" as="geometry"/>
                </mxCell>
                <mxCell id="gyolgve-ai5faWCOUoNd-243" value="" style="shape=partialRectangle;html=1;whiteSpace=wrap;collapsible=0;dropTarget=0;pointerEvents=0;fillColor=none;top=0;left=0;bottom=0;right=0;points=[[0,0.5],[1,0.5]];portConstraint=eastwest;" parent="gyolgve-ai5faWCOUoNd-242" vertex="1">
                    <mxGeometry y="70" width="180" height="30" as="geometry"/>
                </mxCell>
                <mxCell id="gyolgve-ai5faWCOUoNd-244" value="2" style="shape=partialRectangle;html=1;whiteSpace=wrap;connectable=0;fillColor=none;top=0;left=0;bottom=0;right=0;overflow=hidden;" parent="gyolgve-ai5faWCOUoNd-243" vertex="1">
                    <mxGeometry width="40" height="30" as="geometry"/>
                </mxCell>
                <mxCell id="gyolgve-ai5faWCOUoNd-245" value="Name" style="shape=partialRectangle;html=1;whiteSpace=wrap;connectable=0;fillColor=none;top=0;left=0;bottom=0;right=0;align=left;spacingLeft=6;overflow=hidden;" parent="gyolgve-ai5faWCOUoNd-243" vertex="1">
                    <mxGeometry x="40" width="140" height="30" as="geometry"/>
                </mxCell>
                <mxCell id="gyolgve-ai5faWCOUoNd-246" value="" style="shape=partialRectangle;html=1;whiteSpace=wrap;collapsible=0;dropTarget=0;pointerEvents=0;fillColor=none;top=0;left=0;bottom=1;right=0;points=[[0,0.5],[1,0.5]];portConstraint=eastwest;" parent="gyolgve-ai5faWCOUoNd-242" vertex="1">
                    <mxGeometry y="100" width="180" height="26" as="geometry"/>
                </mxCell>
                <mxCell id="gyolgve-ai5faWCOUoNd-247" value="3" style="shape=partialRectangle;html=1;whiteSpace=wrap;connectable=0;fillColor=none;top=0;left=0;bottom=0;right=0;overflow=hidden;" parent="gyolgve-ai5faWCOUoNd-246" vertex="1">
                    <mxGeometry width="40" height="26" as="geometry"/>
                </mxCell>
                <mxCell id="gyolgve-ai5faWCOUoNd-248" value="Test Type" style="shape=partialRectangle;html=1;whiteSpace=wrap;connectable=0;fillColor=none;top=0;left=0;bottom=0;right=0;align=left;spacingLeft=6;overflow=hidden;" parent="gyolgve-ai5faWCOUoNd-246" vertex="1">
                    <mxGeometry x="40" width="140" height="26" as="geometry"/>
                </mxCell>
                <mxCell id="gyolgve-ai5faWCOUoNd-249" value="" style="shape=partialRectangle;html=1;whiteSpace=wrap;collapsible=0;dropTarget=0;pointerEvents=0;fillColor=none;top=0;left=0;bottom=0;right=0;points=[[0,0.5],[1,0.5]];portConstraint=eastwest;" parent="gyolgve-ai5faWCOUoNd-242" vertex="1">
                    <mxGeometry y="126" width="180" height="30" as="geometry"/>
                </mxCell>
                <mxCell id="gyolgve-ai5faWCOUoNd-250" value="4" style="shape=partialRectangle;html=1;whiteSpace=wrap;connectable=0;fillColor=none;top=0;left=0;bottom=0;right=0;overflow=hidden;" parent="gyolgve-ai5faWCOUoNd-249" vertex="1">
                    <mxGeometry width="40" height="30" as="geometry"/>
                </mxCell>
                <mxCell id="gyolgve-ai5faWCOUoNd-251" value="Test Result" style="shape=partialRectangle;html=1;whiteSpace=wrap;connectable=0;fillColor=none;top=0;left=0;bottom=0;right=0;align=left;spacingLeft=6;overflow=hidden;" parent="gyolgve-ai5faWCOUoNd-249" vertex="1">
                    <mxGeometry x="40" width="140" height="30" as="geometry"/>
                </mxCell>
                <mxCell id="gyolgve-ai5faWCOUoNd-252" value="" style="shape=partialRectangle;html=1;whiteSpace=wrap;collapsible=0;dropTarget=0;pointerEvents=0;fillColor=none;top=0;left=0;bottom=0;right=0;points=[[0,0.5],[1,0.5]];portConstraint=eastwest;" parent="gyolgve-ai5faWCOUoNd-242" vertex="1">
                    <mxGeometry y="156" width="180" height="30" as="geometry"/>
                </mxCell>
                <mxCell id="gyolgve-ai5faWCOUoNd-253" value="5" style="shape=partialRectangle;html=1;whiteSpace=wrap;connectable=0;fillColor=none;top=0;left=0;bottom=0;right=0;overflow=hidden;" parent="gyolgve-ai5faWCOUoNd-252" vertex="1">
                    <mxGeometry width="40" height="30" as="geometry"/>
                </mxCell>
                <mxCell id="gyolgve-ai5faWCOUoNd-254" value="Data" style="shape=partialRectangle;html=1;whiteSpace=wrap;connectable=0;fillColor=none;top=0;left=0;bottom=0;right=0;align=left;spacingLeft=6;overflow=hidden;" parent="gyolgve-ai5faWCOUoNd-252" vertex="1">
                    <mxGeometry x="40" width="140" height="30" as="geometry"/>
                </mxCell>
                <mxCell id="gyolgve-ai5faWCOUoNd-258" value="City" style="shape=table;startSize=40;container=1;collapsible=0;childLayout=tableLayout;fixedRows=1;rowLines=0;fontStyle=1;align=center;rounded=0;sketch=0;fontColor=#46495D;strokeColor=#788AA3;fillColor=#B2C9AB;" parent="mvMvy7dG3c4JRi--3KPx-1" vertex="1">
                    <mxGeometry x="888" y="944" width="180" height="126" as="geometry"/>
                </mxCell>
                <mxCell id="gyolgve-ai5faWCOUoNd-259" value="" style="shape=partialRectangle;html=1;whiteSpace=wrap;collapsible=0;dropTarget=0;pointerEvents=0;fillColor=none;top=0;left=0;bottom=0;right=0;points=[[0,0.5],[1,0.5]];portConstraint=eastwest;" parent="gyolgve-ai5faWCOUoNd-258" vertex="1">
                    <mxGeometry y="40" width="180" height="30" as="geometry"/>
                </mxCell>
                <mxCell id="gyolgve-ai5faWCOUoNd-260" value="1" style="shape=partialRectangle;html=1;whiteSpace=wrap;connectable=0;fillColor=none;top=0;left=0;bottom=0;right=0;overflow=hidden;" parent="gyolgve-ai5faWCOUoNd-259" vertex="1">
                    <mxGeometry width="40" height="30" as="geometry"/>
                </mxCell>
                <mxCell id="gyolgve-ai5faWCOUoNd-261" value="CityID" style="shape=partialRectangle;html=1;whiteSpace=wrap;connectable=0;fillColor=none;top=0;left=0;bottom=0;right=0;align=left;spacingLeft=6;overflow=hidden;" parent="gyolgve-ai5faWCOUoNd-259" vertex="1">
                    <mxGeometry x="40" width="140" height="30" as="geometry"/>
                </mxCell>
                <mxCell id="gyolgve-ai5faWCOUoNd-262" value="" style="shape=partialRectangle;html=1;whiteSpace=wrap;collapsible=0;dropTarget=0;pointerEvents=0;fillColor=none;top=0;left=0;bottom=1;right=0;points=[[0,0.5],[1,0.5]];portConstraint=eastwest;" parent="gyolgve-ai5faWCOUoNd-258" vertex="1">
                    <mxGeometry y="70" width="180" height="26" as="geometry"/>
                </mxCell>
                <mxCell id="gyolgve-ai5faWCOUoNd-263" value="2" style="shape=partialRectangle;html=1;whiteSpace=wrap;connectable=0;fillColor=none;top=0;left=0;bottom=0;right=0;overflow=hidden;" parent="gyolgve-ai5faWCOUoNd-262" vertex="1">
                    <mxGeometry width="40" height="26" as="geometry"/>
                </mxCell>
                <mxCell id="gyolgve-ai5faWCOUoNd-264" value="Name" style="shape=partialRectangle;html=1;whiteSpace=wrap;connectable=0;fillColor=none;top=0;left=0;bottom=0;right=0;align=left;spacingLeft=6;overflow=hidden;" parent="gyolgve-ai5faWCOUoNd-262" vertex="1">
                    <mxGeometry x="40" width="140" height="26" as="geometry"/>
                </mxCell>
                <mxCell id="gyolgve-ai5faWCOUoNd-265" value="" style="shape=partialRectangle;html=1;whiteSpace=wrap;collapsible=0;dropTarget=0;pointerEvents=0;fillColor=none;top=0;left=0;bottom=0;right=0;points=[[0,0.5],[1,0.5]];portConstraint=eastwest;" parent="gyolgve-ai5faWCOUoNd-258" vertex="1">
                    <mxGeometry y="96" width="180" height="30" as="geometry"/>
                </mxCell>
                <mxCell id="gyolgve-ai5faWCOUoNd-266" value="3" style="shape=partialRectangle;html=1;whiteSpace=wrap;connectable=0;fillColor=none;top=0;left=0;bottom=0;right=0;overflow=hidden;" parent="gyolgve-ai5faWCOUoNd-265" vertex="1">
                    <mxGeometry width="40" height="30" as="geometry"/>
                </mxCell>
                <mxCell id="gyolgve-ai5faWCOUoNd-267" value="CountryID" style="shape=partialRectangle;html=1;whiteSpace=wrap;connectable=0;fillColor=none;top=0;left=0;bottom=0;right=0;align=left;spacingLeft=6;overflow=hidden;" parent="gyolgve-ai5faWCOUoNd-265" vertex="1">
                    <mxGeometry x="40" width="140" height="30" as="geometry"/>
                </mxCell>
                <mxCell id="gyolgve-ai5faWCOUoNd-271" style="edgeStyle=orthogonalEdgeStyle;curved=0;rounded=1;sketch=0;orthogonalLoop=1;jettySize=auto;html=1;exitX=0;exitY=0.5;exitDx=0;exitDy=0;entryX=1.025;entryY=0.081;entryDx=0;entryDy=0;entryPerimeter=0;fontColor=#46495D;strokeColor=#788AA3;fillColor=#B2C9AB;" parent="mvMvy7dG3c4JRi--3KPx-1" source="gyolgve-ai5faWCOUoNd-262" target="gyolgve-ai5faWCOUoNd-194" edge="1">
                    <mxGeometry relative="1" as="geometry"/>
                </mxCell>
                <mxCell id="gyolgve-ai5faWCOUoNd-305" style="edgeStyle=orthogonalEdgeStyle;curved=0;rounded=1;sketch=0;orthogonalLoop=1;jettySize=auto;html=1;exitX=0.25;exitY=0;exitDx=0;exitDy=0;entryX=1.013;entryY=0.785;entryDx=0;entryDy=0;entryPerimeter=0;fontColor=#46495D;strokeColor=#788AA3;fillColor=#B2C9AB;" parent="mvMvy7dG3c4JRi--3KPx-1" source="gyolgve-ai5faWCOUoNd-272" target="gyolgve-ai5faWCOUoNd-219" edge="1">
                    <mxGeometry relative="1" as="geometry"/>
                </mxCell>
                <mxCell id="gyolgve-ai5faWCOUoNd-306" style="edgeStyle=orthogonalEdgeStyle;curved=0;rounded=1;sketch=0;orthogonalLoop=1;jettySize=auto;html=1;exitX=0.5;exitY=0;exitDx=0;exitDy=0;entryX=1;entryY=0.5;entryDx=0;entryDy=0;fontColor=#46495D;strokeColor=#788AA3;fillColor=#B2C9AB;" parent="mvMvy7dG3c4JRi--3KPx-1" source="gyolgve-ai5faWCOUoNd-272" target="gyolgve-ai5faWCOUoNd-69" edge="1">
                    <mxGeometry relative="1" as="geometry"/>
                </mxCell>
                <mxCell id="gyolgve-ai5faWCOUoNd-307" style="edgeStyle=orthogonalEdgeStyle;curved=0;rounded=1;sketch=0;orthogonalLoop=1;jettySize=auto;html=1;exitX=0.75;exitY=0;exitDx=0;exitDy=0;entryX=0.75;entryY=0;entryDx=0;entryDy=0;fontColor=#46495D;strokeColor=#788AA3;fillColor=#B2C9AB;" parent="mvMvy7dG3c4JRi--3KPx-1" source="gyolgve-ai5faWCOUoNd-272" target="gyolgve-ai5faWCOUoNd-0" edge="1">
                    <mxGeometry relative="1" as="geometry"/>
                </mxCell>
                <mxCell id="gyolgve-ai5faWCOUoNd-272" value="Country" style="shape=table;startSize=40;container=1;collapsible=0;childLayout=tableLayout;fixedRows=1;rowLines=0;fontStyle=1;align=center;rounded=0;sketch=0;fontColor=#46495D;strokeColor=#788AA3;fillColor=#B2C9AB;" parent="mvMvy7dG3c4JRi--3KPx-1" vertex="1">
                    <mxGeometry x="1144" y="944" width="180" height="156" as="geometry"/>
                </mxCell>
                <mxCell id="gyolgve-ai5faWCOUoNd-273" value="" style="shape=partialRectangle;html=1;whiteSpace=wrap;collapsible=0;dropTarget=0;pointerEvents=0;fillColor=none;top=0;left=0;bottom=0;right=0;points=[[0,0.5],[1,0.5]];portConstraint=eastwest;" parent="gyolgve-ai5faWCOUoNd-272" vertex="1">
                    <mxGeometry y="40" width="180" height="30" as="geometry"/>
                </mxCell>
                <mxCell id="gyolgve-ai5faWCOUoNd-274" value="1" style="shape=partialRectangle;html=1;whiteSpace=wrap;connectable=0;fillColor=none;top=0;left=0;bottom=0;right=0;overflow=hidden;" parent="gyolgve-ai5faWCOUoNd-273" vertex="1">
                    <mxGeometry width="40" height="30" as="geometry"/>
                </mxCell>
                <mxCell id="gyolgve-ai5faWCOUoNd-275" value="CountryID" style="shape=partialRectangle;html=1;whiteSpace=wrap;connectable=0;fillColor=none;top=0;left=0;bottom=0;right=0;align=left;spacingLeft=6;overflow=hidden;" parent="gyolgve-ai5faWCOUoNd-273" vertex="1">
                    <mxGeometry x="40" width="140" height="30" as="geometry"/>
                </mxCell>
                <mxCell id="gyolgve-ai5faWCOUoNd-276" value="" style="shape=partialRectangle;html=1;whiteSpace=wrap;collapsible=0;dropTarget=0;pointerEvents=0;fillColor=none;top=0;left=0;bottom=1;right=0;points=[[0,0.5],[1,0.5]];portConstraint=eastwest;" parent="gyolgve-ai5faWCOUoNd-272" vertex="1">
                    <mxGeometry y="70" width="180" height="26" as="geometry"/>
                </mxCell>
                <mxCell id="gyolgve-ai5faWCOUoNd-277" value="2" style="shape=partialRectangle;html=1;whiteSpace=wrap;connectable=0;fillColor=none;top=0;left=0;bottom=0;right=0;overflow=hidden;" parent="gyolgve-ai5faWCOUoNd-276" vertex="1">
                    <mxGeometry width="40" height="26" as="geometry"/>
                </mxCell>
                <mxCell id="gyolgve-ai5faWCOUoNd-278" value="Name" style="shape=partialRectangle;html=1;whiteSpace=wrap;connectable=0;fillColor=none;top=0;left=0;bottom=0;right=0;align=left;spacingLeft=6;overflow=hidden;" parent="gyolgve-ai5faWCOUoNd-276" vertex="1">
                    <mxGeometry x="40" width="140" height="26" as="geometry"/>
                </mxCell>
                <mxCell id="gyolgve-ai5faWCOUoNd-279" value="" style="shape=partialRectangle;html=1;whiteSpace=wrap;collapsible=0;dropTarget=0;pointerEvents=0;fillColor=none;top=0;left=0;bottom=0;right=0;points=[[0,0.5],[1,0.5]];portConstraint=eastwest;" parent="gyolgve-ai5faWCOUoNd-272" vertex="1">
                    <mxGeometry y="96" width="180" height="30" as="geometry"/>
                </mxCell>
                <mxCell id="gyolgve-ai5faWCOUoNd-280" value="3" style="shape=partialRectangle;html=1;whiteSpace=wrap;connectable=0;fillColor=none;top=0;left=0;bottom=0;right=0;overflow=hidden;" parent="gyolgve-ai5faWCOUoNd-279" vertex="1">
                    <mxGeometry width="40" height="30" as="geometry"/>
                </mxCell>
                <mxCell id="gyolgve-ai5faWCOUoNd-281" value="TimeZone" style="shape=partialRectangle;html=1;whiteSpace=wrap;connectable=0;fillColor=none;top=0;left=0;bottom=0;right=0;align=left;spacingLeft=6;overflow=hidden;" parent="gyolgve-ai5faWCOUoNd-279" vertex="1">
                    <mxGeometry x="40" width="140" height="30" as="geometry"/>
                </mxCell>
                <mxCell id="gyolgve-ai5faWCOUoNd-295" value="" style="shape=partialRectangle;html=1;whiteSpace=wrap;collapsible=0;dropTarget=0;pointerEvents=0;fillColor=none;top=0;left=0;bottom=0;right=0;points=[[0,0.5],[1,0.5]];portConstraint=eastwest;" parent="gyolgve-ai5faWCOUoNd-272" vertex="1">
                    <mxGeometry y="126" width="180" height="30" as="geometry"/>
                </mxCell>
                <mxCell id="gyolgve-ai5faWCOUoNd-296" value="4" style="shape=partialRectangle;html=1;whiteSpace=wrap;connectable=0;fillColor=none;top=0;left=0;bottom=0;right=0;overflow=hidden;" parent="gyolgve-ai5faWCOUoNd-295" vertex="1">
                    <mxGeometry width="40" height="30" as="geometry"/>
                </mxCell>
                <mxCell id="gyolgve-ai5faWCOUoNd-297" value="TelCode" style="shape=partialRectangle;html=1;whiteSpace=wrap;connectable=0;fillColor=none;top=0;left=0;bottom=0;right=0;align=left;spacingLeft=6;overflow=hidden;" parent="gyolgve-ai5faWCOUoNd-295" vertex="1">
                    <mxGeometry x="40" width="140" height="30" as="geometry"/>
                </mxCell>
                <mxCell id="gyolgve-ai5faWCOUoNd-301" style="edgeStyle=orthogonalEdgeStyle;curved=0;rounded=1;sketch=0;orthogonalLoop=1;jettySize=auto;html=1;exitX=0;exitY=0.5;exitDx=0;exitDy=0;entryX=1;entryY=0.5;entryDx=0;entryDy=0;fontColor=#46495D;strokeColor=#788AA3;fillColor=#B2C9AB;" parent="mvMvy7dG3c4JRi--3KPx-1" source="gyolgve-ai5faWCOUoNd-276" target="gyolgve-ai5faWCOUoNd-262" edge="1">
                    <mxGeometry relative="1" as="geometry"/>
                </mxCell>
                <mxCell id="hHnrdNrwomO3HZSzoKWz-48" style="edgeStyle=orthogonalEdgeStyle;curved=0;rounded=1;sketch=0;orthogonalLoop=1;jettySize=auto;html=1;exitX=0.234;exitY=1.108;exitDx=0;exitDy=0;entryX=1.022;entryY=0.2;entryDx=0;entryDy=0;fontColor=#46495D;strokeColor=#788AA3;fillColor=#B2C9AB;exitPerimeter=0;entryPerimeter=0;" parent="mvMvy7dG3c4JRi--3KPx-1" source="gyolgve-ai5faWCOUoNd-295" target="hHnrdNrwomO3HZSzoKWz-39" edge="1">
                    <mxGeometry relative="1" as="geometry">
                        <Array as="points">
                            <mxPoint x="1184" y="1103"/>
                            <mxPoint x="1184" y="1215"/>
                        </Array>
                    </mxGeometry>
                </mxCell>
            </root>
        </mxGraphModel>
    </diagram>
    <diagram id="IfHyJyz9EYh7LRXMcbfJ" name="Logical model">
        <mxGraphModel dx="1165" dy="1845" grid="1" gridSize="10" guides="1" tooltips="1" connect="1" arrows="1" fold="1" page="1" pageScale="1" pageWidth="827" pageHeight="1169" math="0" shadow="0">
            <root>
                <mxCell id="KUSGV_cUyTdbwqlPM9OB-0"/>
                <mxCell id="KUSGV_cUyTdbwqlPM9OB-1" parent="KUSGV_cUyTdbwqlPM9OB-0"/>
                <mxCell id="hb47lm85LWCOrQ8CDC2U-0" value="" style="endArrow=none;html=1;rounded=0;exitX=1;exitY=0.5;exitDx=0;exitDy=0;strokeColor=#788AA3;fontColor=#46495D;" parent="KUSGV_cUyTdbwqlPM9OB-1" source="hb47lm85LWCOrQ8CDC2U-6" target="hb47lm85LWCOrQ8CDC2U-38" edge="1">
                    <mxGeometry relative="1" as="geometry">
                        <mxPoint x="340" y="400" as="sourcePoint"/>
                        <mxPoint x="500" y="400" as="targetPoint"/>
                    </mxGeometry>
                </mxCell>
                <mxCell id="hb47lm85LWCOrQ8CDC2U-3" value="Swimmer" style="swimlane;fontStyle=0;childLayout=stackLayout;horizontal=1;startSize=26;fillColor=#B2C9AB;horizontalStack=0;resizeParent=1;resizeParentMax=0;resizeLast=0;collapsible=1;marginBottom=0;swimlaneFillColor=#ffffff;align=center;fontSize=14;strokeColor=#788AA3;fontColor=#46495D;" parent="KUSGV_cUyTdbwqlPM9OB-1" vertex="1">
                    <mxGeometry x="380" y="240" width="210" height="318" as="geometry"/>
                </mxCell>
                <mxCell id="hb47lm85LWCOrQ8CDC2U-4" value="SwimmerId int" style="shape=partialRectangle;top=0;left=0;right=0;bottom=1;align=left;verticalAlign=middle;fillColor=none;spacingLeft=34;spacingRight=4;overflow=hidden;rotatable=0;points=[[0,0.5],[1,0.5]];portConstraint=eastwest;dropTarget=0;fontStyle=1;fontSize=12;strokeColor=#788AA3;fontColor=#46495D;" parent="hb47lm85LWCOrQ8CDC2U-3" vertex="1">
                    <mxGeometry y="26" width="210" height="30" as="geometry"/>
                </mxCell>
                <mxCell id="hb47lm85LWCOrQ8CDC2U-5" value="PK" style="shape=partialRectangle;top=0;left=0;bottom=0;fillColor=none;align=left;verticalAlign=middle;spacingLeft=4;spacingRight=4;overflow=hidden;rotatable=0;points=[];portConstraint=eastwest;part=1;fontSize=12;strokeColor=#788AA3;fontColor=#46495D;" parent="hb47lm85LWCOrQ8CDC2U-4" vertex="1" connectable="0">
                    <mxGeometry width="30" height="30" as="geometry"/>
                </mxCell>
                <mxCell id="hb47lm85LWCOrQ8CDC2U-6" value="CoachId int" style="shape=partialRectangle;top=0;left=0;right=0;bottom=0;align=left;verticalAlign=top;fillColor=none;spacingLeft=34;spacingRight=4;overflow=hidden;rotatable=0;points=[[0,0.5],[1,0.5]];portConstraint=eastwest;dropTarget=0;fontSize=12;strokeColor=#788AA3;fontColor=#46495D;" parent="hb47lm85LWCOrQ8CDC2U-3" vertex="1">
                    <mxGeometry y="56" width="210" height="26" as="geometry"/>
                </mxCell>
                <mxCell id="hb47lm85LWCOrQ8CDC2U-7" value="FK" style="shape=partialRectangle;top=0;left=0;bottom=0;fillColor=none;align=left;verticalAlign=top;spacingLeft=4;spacingRight=4;overflow=hidden;rotatable=0;points=[];portConstraint=eastwest;part=1;fontSize=12;strokeColor=#788AA3;fontColor=#46495D;" parent="hb47lm85LWCOrQ8CDC2U-6" vertex="1" connectable="0">
                    <mxGeometry width="30" height="26" as="geometry"/>
                </mxCell>
                <mxCell id="OI_5MtHbVKfGzaldjVNq-6" value="CompetitionId int" style="shape=partialRectangle;top=0;left=0;right=0;bottom=0;align=left;verticalAlign=top;fillColor=none;spacingLeft=34;spacingRight=4;overflow=hidden;rotatable=0;points=[[0,0.5],[1,0.5]];portConstraint=eastwest;dropTarget=0;fontSize=12;strokeColor=#788AA3;fontColor=#46495D;" parent="hb47lm85LWCOrQ8CDC2U-3" vertex="1">
                    <mxGeometry y="82" width="210" height="26" as="geometry"/>
                </mxCell>
                <mxCell id="OI_5MtHbVKfGzaldjVNq-7" value="FK" style="shape=partialRectangle;top=0;left=0;bottom=0;fillColor=none;align=left;verticalAlign=top;spacingLeft=4;spacingRight=4;overflow=hidden;rotatable=0;points=[];portConstraint=eastwest;part=1;fontSize=12;strokeColor=#788AA3;fontColor=#46495D;" parent="OI_5MtHbVKfGzaldjVNq-6" vertex="1" connectable="0">
                    <mxGeometry width="30" height="26" as="geometry"/>
                </mxCell>
                <mxCell id="OI_5MtHbVKfGzaldjVNq-8" value="ResultId int" style="shape=partialRectangle;top=0;left=0;right=0;bottom=0;align=left;verticalAlign=top;fillColor=none;spacingLeft=34;spacingRight=4;overflow=hidden;rotatable=0;points=[[0,0.5],[1,0.5]];portConstraint=eastwest;dropTarget=0;fontSize=12;strokeColor=#788AA3;fontColor=#46495D;" parent="hb47lm85LWCOrQ8CDC2U-3" vertex="1">
                    <mxGeometry y="108" width="210" height="26" as="geometry"/>
                </mxCell>
                <mxCell id="OI_5MtHbVKfGzaldjVNq-9" value="FK" style="shape=partialRectangle;top=0;left=0;bottom=0;fillColor=none;align=left;verticalAlign=top;spacingLeft=4;spacingRight=4;overflow=hidden;rotatable=0;points=[];portConstraint=eastwest;part=1;fontSize=12;strokeColor=#788AA3;fontColor=#46495D;" parent="OI_5MtHbVKfGzaldjVNq-8" vertex="1" connectable="0">
                    <mxGeometry width="30" height="26" as="geometry"/>
                </mxCell>
                <mxCell id="Zq1OrkkYRM8Tgrt13dhO-2" value="LaboretoryId int" style="shape=partialRectangle;top=0;left=0;right=0;bottom=0;align=left;verticalAlign=top;fillColor=none;spacingLeft=34;spacingRight=4;overflow=hidden;rotatable=0;points=[[0,0.5],[1,0.5]];portConstraint=eastwest;dropTarget=0;fontSize=12;strokeColor=#788AA3;fontColor=#46495D;" parent="hb47lm85LWCOrQ8CDC2U-3" vertex="1">
                    <mxGeometry y="134" width="210" height="26" as="geometry"/>
                </mxCell>
                <mxCell id="Zq1OrkkYRM8Tgrt13dhO-3" value="FK" style="shape=partialRectangle;top=0;left=0;bottom=0;fillColor=none;align=left;verticalAlign=top;spacingLeft=4;spacingRight=4;overflow=hidden;rotatable=0;points=[];portConstraint=eastwest;part=1;fontSize=12;strokeColor=#788AA3;fontColor=#46495D;" parent="Zq1OrkkYRM8Tgrt13dhO-2" vertex="1" connectable="0">
                    <mxGeometry width="30" height="26" as="geometry"/>
                </mxCell>
                <mxCell id="hb47lm85LWCOrQ8CDC2U-8" value="FirstName nvarchar(50)" style="shape=partialRectangle;top=0;left=0;right=0;bottom=0;align=left;verticalAlign=top;fillColor=none;spacingLeft=34;spacingRight=4;overflow=hidden;rotatable=0;points=[[0,0.5],[1,0.5]];portConstraint=eastwest;dropTarget=0;fontSize=12;strokeColor=#788AA3;fontColor=#46495D;" parent="hb47lm85LWCOrQ8CDC2U-3" vertex="1">
                    <mxGeometry y="160" width="210" height="26" as="geometry"/>
                </mxCell>
                <mxCell id="hb47lm85LWCOrQ8CDC2U-9" value="" style="shape=partialRectangle;top=0;left=0;bottom=0;fillColor=none;align=left;verticalAlign=top;spacingLeft=4;spacingRight=4;overflow=hidden;rotatable=0;points=[];portConstraint=eastwest;part=1;fontSize=12;strokeColor=#788AA3;fontColor=#46495D;" parent="hb47lm85LWCOrQ8CDC2U-8" vertex="1" connectable="0">
                    <mxGeometry width="30" height="26" as="geometry"/>
                </mxCell>
                <mxCell id="hb47lm85LWCOrQ8CDC2U-10" value="LastName nvarchar(50)" style="shape=partialRectangle;top=0;left=0;right=0;bottom=0;align=left;verticalAlign=top;fillColor=none;spacingLeft=34;spacingRight=4;overflow=hidden;rotatable=0;points=[[0,0.5],[1,0.5]];portConstraint=eastwest;dropTarget=0;fontSize=12;strokeColor=#788AA3;fontColor=#46495D;" parent="hb47lm85LWCOrQ8CDC2U-3" vertex="1">
                    <mxGeometry y="186" width="210" height="26" as="geometry"/>
                </mxCell>
                <mxCell id="hb47lm85LWCOrQ8CDC2U-11" value="" style="shape=partialRectangle;top=0;left=0;bottom=0;fillColor=none;align=left;verticalAlign=top;spacingLeft=4;spacingRight=4;overflow=hidden;rotatable=0;points=[];portConstraint=eastwest;part=1;fontSize=12;strokeColor=#788AA3;fontColor=#46495D;" parent="hb47lm85LWCOrQ8CDC2U-10" vertex="1" connectable="0">
                    <mxGeometry width="30" height="26" as="geometry"/>
                </mxCell>
                <mxCell id="hb47lm85LWCOrQ8CDC2U-12" value="PassportNumber nvarchar(20)" style="shape=partialRectangle;top=0;left=0;right=0;bottom=0;align=left;verticalAlign=top;fillColor=none;spacingLeft=34;spacingRight=4;overflow=hidden;rotatable=0;points=[[0,0.5],[1,0.5]];portConstraint=eastwest;dropTarget=0;fontSize=12;strokeColor=#788AA3;fontColor=#46495D;" parent="hb47lm85LWCOrQ8CDC2U-3" vertex="1">
                    <mxGeometry y="212" width="210" height="26" as="geometry"/>
                </mxCell>
                <mxCell id="hb47lm85LWCOrQ8CDC2U-13" value="" style="shape=partialRectangle;top=0;left=0;bottom=0;fillColor=none;align=left;verticalAlign=top;spacingLeft=4;spacingRight=4;overflow=hidden;rotatable=0;points=[];portConstraint=eastwest;part=1;fontSize=12;strokeColor=#788AA3;fontColor=#46495D;" parent="hb47lm85LWCOrQ8CDC2U-12" vertex="1" connectable="0">
                    <mxGeometry width="30" height="26" as="geometry"/>
                </mxCell>
                <mxCell id="hb47lm85LWCOrQ8CDC2U-14" value="BirthDate date" style="shape=partialRectangle;top=0;left=0;right=0;bottom=0;align=left;verticalAlign=top;fillColor=none;spacingLeft=34;spacingRight=4;overflow=hidden;rotatable=0;points=[[0,0.5],[1,0.5]];portConstraint=eastwest;dropTarget=0;fontSize=12;strokeColor=#788AA3;fontColor=#46495D;" parent="hb47lm85LWCOrQ8CDC2U-3" vertex="1">
                    <mxGeometry y="238" width="210" height="26" as="geometry"/>
                </mxCell>
                <mxCell id="hb47lm85LWCOrQ8CDC2U-15" value="" style="shape=partialRectangle;top=0;left=0;bottom=0;fillColor=none;align=left;verticalAlign=top;spacingLeft=4;spacingRight=4;overflow=hidden;rotatable=0;points=[];portConstraint=eastwest;part=1;fontSize=12;strokeColor=#788AA3;fontColor=#46495D;" parent="hb47lm85LWCOrQ8CDC2U-14" vertex="1" connectable="0">
                    <mxGeometry width="30" height="26" as="geometry"/>
                </mxCell>
                <mxCell id="hb47lm85LWCOrQ8CDC2U-16" value="Gender nvarchar (10)" style="shape=partialRectangle;top=0;left=0;right=0;bottom=0;align=left;verticalAlign=top;fillColor=none;spacingLeft=34;spacingRight=4;overflow=hidden;rotatable=0;points=[[0,0.5],[1,0.5]];portConstraint=eastwest;dropTarget=0;fontSize=12;strokeColor=#788AA3;fontColor=#46495D;" parent="hb47lm85LWCOrQ8CDC2U-3" vertex="1">
                    <mxGeometry y="264" width="210" height="28" as="geometry"/>
                </mxCell>
                <mxCell id="hb47lm85LWCOrQ8CDC2U-17" value="" style="shape=partialRectangle;top=0;left=0;bottom=0;fillColor=none;align=left;verticalAlign=top;spacingLeft=4;spacingRight=4;overflow=hidden;rotatable=0;points=[];portConstraint=eastwest;part=1;fontSize=12;strokeColor=#788AA3;fontColor=#46495D;" parent="hb47lm85LWCOrQ8CDC2U-16" vertex="1" connectable="0">
                    <mxGeometry y="-10.769230769230768" width="30" height="38.76923076923077" as="geometry"/>
                </mxCell>
                <mxCell id="Zq1OrkkYRM8Tgrt13dhO-0" value="Doping Test bit" style="shape=partialRectangle;top=0;left=0;right=0;bottom=0;align=left;verticalAlign=top;fillColor=none;spacingLeft=34;spacingRight=4;overflow=hidden;rotatable=0;points=[[0,0.5],[1,0.5]];portConstraint=eastwest;dropTarget=0;fontSize=12;strokeColor=#788AA3;fontColor=#46495D;" parent="hb47lm85LWCOrQ8CDC2U-3" vertex="1">
                    <mxGeometry y="292" width="210" height="26" as="geometry"/>
                </mxCell>
                <mxCell id="Zq1OrkkYRM8Tgrt13dhO-1" value="" style="shape=partialRectangle;top=0;left=0;bottom=0;fillColor=none;align=left;verticalAlign=top;spacingLeft=4;spacingRight=4;overflow=hidden;rotatable=0;points=[];portConstraint=eastwest;part=1;fontSize=12;strokeColor=#788AA3;fontColor=#46495D;" parent="Zq1OrkkYRM8Tgrt13dhO-0" vertex="1" connectable="0">
                    <mxGeometry width="30" height="26" as="geometry"/>
                </mxCell>
                <mxCell id="hb47lm85LWCOrQ8CDC2U-20" value="Results" style="swimlane;fontStyle=0;childLayout=stackLayout;horizontal=1;startSize=26;fillColor=#B2C9AB;horizontalStack=0;resizeParent=1;resizeParentMax=0;resizeLast=0;collapsible=1;marginBottom=0;swimlaneFillColor=#ffffff;align=center;fontSize=14;strokeColor=#788AA3;fontColor=#46495D;" parent="KUSGV_cUyTdbwqlPM9OB-1" vertex="1">
                    <mxGeometry x="410" y="-80" width="160" height="212" as="geometry"/>
                </mxCell>
                <mxCell id="hb47lm85LWCOrQ8CDC2U-21" value="ResultId bigint" style="shape=partialRectangle;top=0;left=0;right=0;bottom=1;align=left;verticalAlign=middle;fillColor=none;spacingLeft=34;spacingRight=4;overflow=hidden;rotatable=0;points=[[0,0.5],[1,0.5]];portConstraint=eastwest;dropTarget=0;fontStyle=1;fontSize=12;strokeColor=#788AA3;fontColor=#46495D;" parent="hb47lm85LWCOrQ8CDC2U-20" vertex="1">
                    <mxGeometry y="26" width="160" height="30" as="geometry"/>
                </mxCell>
                <mxCell id="hb47lm85LWCOrQ8CDC2U-22" value="PK" style="shape=partialRectangle;top=0;left=0;bottom=0;fillColor=none;align=left;verticalAlign=middle;spacingLeft=4;spacingRight=4;overflow=hidden;rotatable=0;points=[];portConstraint=eastwest;part=1;fontSize=12;strokeColor=#788AA3;fontColor=#46495D;" parent="hb47lm85LWCOrQ8CDC2U-21" vertex="1" connectable="0">
                    <mxGeometry width="30" height="30" as="geometry"/>
                </mxCell>
                <mxCell id="hb47lm85LWCOrQ8CDC2U-23" value="CompetitionId int" style="shape=partialRectangle;top=0;left=0;right=0;bottom=0;align=left;verticalAlign=top;fillColor=none;spacingLeft=34;spacingRight=4;overflow=hidden;rotatable=0;points=[[0,0.5],[1,0.5]];portConstraint=eastwest;dropTarget=0;fontSize=12;strokeColor=#788AA3;fontColor=#46495D;" parent="hb47lm85LWCOrQ8CDC2U-20" vertex="1">
                    <mxGeometry y="56" width="160" height="26" as="geometry"/>
                </mxCell>
                <mxCell id="hb47lm85LWCOrQ8CDC2U-24" value="FK" style="shape=partialRectangle;top=0;left=0;bottom=0;fillColor=none;align=left;verticalAlign=top;spacingLeft=4;spacingRight=4;overflow=hidden;rotatable=0;points=[];portConstraint=eastwest;part=1;fontSize=12;strokeColor=#788AA3;fontColor=#46495D;" parent="hb47lm85LWCOrQ8CDC2U-23" vertex="1" connectable="0">
                    <mxGeometry width="30" height="26" as="geometry"/>
                </mxCell>
                <mxCell id="hb47lm85LWCOrQ8CDC2U-25" value="JudgeId int" style="shape=partialRectangle;top=0;left=0;right=0;bottom=0;align=left;verticalAlign=top;fillColor=none;spacingLeft=34;spacingRight=4;overflow=hidden;rotatable=0;points=[[0,0.5],[1,0.5]];portConstraint=eastwest;dropTarget=0;fontSize=12;strokeColor=#788AA3;fontColor=#46495D;" parent="hb47lm85LWCOrQ8CDC2U-20" vertex="1">
                    <mxGeometry y="82" width="160" height="26" as="geometry"/>
                </mxCell>
                <mxCell id="hb47lm85LWCOrQ8CDC2U-26" value="FK" style="shape=partialRectangle;top=0;left=0;bottom=0;fillColor=none;align=left;verticalAlign=top;spacingLeft=4;spacingRight=4;overflow=hidden;rotatable=0;points=[];portConstraint=eastwest;part=1;fontSize=12;strokeColor=#788AA3;fontColor=#46495D;" parent="hb47lm85LWCOrQ8CDC2U-25" vertex="1" connectable="0">
                    <mxGeometry width="30" height="26" as="geometry"/>
                </mxCell>
                <mxCell id="hb47lm85LWCOrQ8CDC2U-27" value="SwimmerId int" style="shape=partialRectangle;top=0;left=0;right=0;bottom=0;align=left;verticalAlign=top;fillColor=none;spacingLeft=34;spacingRight=4;overflow=hidden;rotatable=0;points=[[0,0.5],[1,0.5]];portConstraint=eastwest;dropTarget=0;fontSize=12;strokeColor=#788AA3;fontColor=#46495D;" parent="hb47lm85LWCOrQ8CDC2U-20" vertex="1">
                    <mxGeometry y="108" width="160" height="26" as="geometry"/>
                </mxCell>
                <mxCell id="hb47lm85LWCOrQ8CDC2U-28" value="FK" style="shape=partialRectangle;top=0;left=0;bottom=0;fillColor=none;align=left;verticalAlign=top;spacingLeft=4;spacingRight=4;overflow=hidden;rotatable=0;points=[];portConstraint=eastwest;part=1;fontSize=12;strokeColor=#788AA3;fontColor=#46495D;" parent="hb47lm85LWCOrQ8CDC2U-27" vertex="1" connectable="0">
                    <mxGeometry width="30" height="26" as="geometry"/>
                </mxCell>
                <mxCell id="hb47lm85LWCOrQ8CDC2U-29" value="Time time" style="shape=partialRectangle;top=0;left=0;right=0;bottom=0;align=left;verticalAlign=top;fillColor=none;spacingLeft=34;spacingRight=4;overflow=hidden;rotatable=0;points=[[0,0.5],[1,0.5]];portConstraint=eastwest;dropTarget=0;fontSize=12;strokeColor=#788AA3;fontColor=#46495D;" parent="hb47lm85LWCOrQ8CDC2U-20" vertex="1">
                    <mxGeometry y="134" width="160" height="26" as="geometry"/>
                </mxCell>
                <mxCell id="hb47lm85LWCOrQ8CDC2U-30" value="" style="shape=partialRectangle;top=0;left=0;bottom=0;fillColor=none;align=left;verticalAlign=top;spacingLeft=4;spacingRight=4;overflow=hidden;rotatable=0;points=[];portConstraint=eastwest;part=1;fontSize=12;strokeColor=#788AA3;fontColor=#46495D;" parent="hb47lm85LWCOrQ8CDC2U-29" vertex="1" connectable="0">
                    <mxGeometry width="30" height="26" as="geometry"/>
                </mxCell>
                <mxCell id="hb47lm85LWCOrQ8CDC2U-31" value="" style="shape=partialRectangle;top=0;left=0;right=0;bottom=0;align=left;verticalAlign=top;fillColor=none;spacingLeft=34;spacingRight=4;overflow=hidden;rotatable=0;points=[[0,0.5],[1,0.5]];portConstraint=eastwest;dropTarget=0;fontSize=12;strokeColor=#788AA3;fontColor=#46495D;" parent="hb47lm85LWCOrQ8CDC2U-20" vertex="1">
                    <mxGeometry y="160" width="160" as="geometry"/>
                </mxCell>
                <mxCell id="hb47lm85LWCOrQ8CDC2U-32" value="" style="shape=partialRectangle;top=0;left=0;bottom=0;fillColor=none;align=left;verticalAlign=top;spacingLeft=4;spacingRight=4;overflow=hidden;rotatable=0;points=[];portConstraint=eastwest;part=1;fontSize=12;strokeColor=#788AA3;fontColor=#46495D;" parent="hb47lm85LWCOrQ8CDC2U-31" vertex="1" connectable="0">
                    <mxGeometry width="30" as="geometry"/>
                </mxCell>
                <mxCell id="hb47lm85LWCOrQ8CDC2U-33" value="Style nvarchar (50)" style="shape=partialRectangle;top=0;left=0;right=0;bottom=0;align=left;verticalAlign=top;fillColor=none;spacingLeft=34;spacingRight=4;overflow=hidden;rotatable=0;points=[[0,0.5],[1,0.5]];portConstraint=eastwest;dropTarget=0;fontSize=12;strokeColor=#788AA3;fontColor=#46495D;" parent="hb47lm85LWCOrQ8CDC2U-20" vertex="1">
                    <mxGeometry y="160" width="160" height="26" as="geometry"/>
                </mxCell>
                <mxCell id="hb47lm85LWCOrQ8CDC2U-34" value="" style="shape=partialRectangle;top=0;left=0;bottom=0;fillColor=none;align=left;verticalAlign=top;spacingLeft=4;spacingRight=4;overflow=hidden;rotatable=0;points=[];portConstraint=eastwest;part=1;fontSize=12;strokeColor=#788AA3;fontColor=#46495D;" parent="hb47lm85LWCOrQ8CDC2U-33" vertex="1" connectable="0">
                    <mxGeometry width="30" height="26" as="geometry"/>
                </mxCell>
                <mxCell id="hb47lm85LWCOrQ8CDC2U-35" value="Date datetime" style="shape=partialRectangle;top=0;left=0;right=0;bottom=0;align=left;verticalAlign=top;fillColor=none;spacingLeft=34;spacingRight=4;overflow=hidden;rotatable=0;points=[[0,0.5],[1,0.5]];portConstraint=eastwest;dropTarget=0;fontSize=12;strokeColor=#788AA3;fontColor=#46495D;" parent="hb47lm85LWCOrQ8CDC2U-20" vertex="1">
                    <mxGeometry y="186" width="160" height="26" as="geometry"/>
                </mxCell>
                <mxCell id="hb47lm85LWCOrQ8CDC2U-36" value="" style="shape=partialRectangle;top=0;left=0;bottom=0;fillColor=none;align=left;verticalAlign=top;spacingLeft=4;spacingRight=4;overflow=hidden;rotatable=0;points=[];portConstraint=eastwest;part=1;fontSize=12;strokeColor=#788AA3;fontColor=#46495D;" parent="hb47lm85LWCOrQ8CDC2U-35" vertex="1" connectable="0">
                    <mxGeometry width="30" height="26" as="geometry"/>
                </mxCell>
                <mxCell id="hb47lm85LWCOrQ8CDC2U-37" value="Coach" style="swimlane;fontStyle=0;childLayout=stackLayout;horizontal=1;startSize=26;fillColor=#B2C9AB;horizontalStack=0;resizeParent=1;resizeParentMax=0;resizeLast=0;collapsible=1;marginBottom=0;swimlaneFillColor=#ffffff;align=center;fontSize=14;strokeColor=#788AA3;fontColor=#46495D;" parent="KUSGV_cUyTdbwqlPM9OB-1" vertex="1">
                    <mxGeometry x="710" y="270" width="240" height="186" as="geometry"/>
                </mxCell>
                <mxCell id="hb47lm85LWCOrQ8CDC2U-38" value="CoachId int" style="shape=partialRectangle;top=0;left=0;right=0;bottom=1;align=left;verticalAlign=middle;fillColor=none;spacingLeft=34;spacingRight=4;overflow=hidden;rotatable=0;points=[[0,0.5],[1,0.5]];portConstraint=eastwest;dropTarget=0;fontStyle=1;fontSize=12;strokeColor=#788AA3;fontColor=#46495D;" parent="hb47lm85LWCOrQ8CDC2U-37" vertex="1">
                    <mxGeometry y="26" width="240" height="30" as="geometry"/>
                </mxCell>
                <mxCell id="hb47lm85LWCOrQ8CDC2U-39" value="PK" style="shape=partialRectangle;top=0;left=0;bottom=0;fillColor=none;align=left;verticalAlign=middle;spacingLeft=4;spacingRight=4;overflow=hidden;rotatable=0;points=[];portConstraint=eastwest;part=1;fontSize=12;strokeColor=#788AA3;fontColor=#46495D;" parent="hb47lm85LWCOrQ8CDC2U-38" vertex="1" connectable="0">
                    <mxGeometry width="30" height="30" as="geometry"/>
                </mxCell>
                <mxCell id="hb47lm85LWCOrQ8CDC2U-46" value="SwimmerId smallint" style="shape=partialRectangle;top=0;left=0;right=0;bottom=0;align=left;verticalAlign=top;fillColor=none;spacingLeft=34;spacingRight=4;overflow=hidden;rotatable=0;points=[[0,0.5],[1,0.5]];portConstraint=eastwest;dropTarget=0;fontSize=12;strokeColor=#788AA3;fontColor=#46495D;" parent="hb47lm85LWCOrQ8CDC2U-37" vertex="1">
                    <mxGeometry y="56" width="240" height="26" as="geometry"/>
                </mxCell>
                <mxCell id="hb47lm85LWCOrQ8CDC2U-47" value="FK" style="shape=partialRectangle;top=0;left=0;bottom=0;fillColor=none;align=left;verticalAlign=top;spacingLeft=4;spacingRight=4;overflow=hidden;rotatable=0;points=[];portConstraint=eastwest;part=1;fontSize=12;strokeColor=#788AA3;fontColor=#46495D;" parent="hb47lm85LWCOrQ8CDC2U-46" vertex="1" connectable="0">
                    <mxGeometry width="30" height="26" as="geometry"/>
                </mxCell>
                <mxCell id="hb47lm85LWCOrQ8CDC2U-40" value="FirstName nvarchar(50)" style="shape=partialRectangle;top=0;left=0;right=0;bottom=0;align=left;verticalAlign=top;fillColor=none;spacingLeft=34;spacingRight=4;overflow=hidden;rotatable=0;points=[[0,0.5],[1,0.5]];portConstraint=eastwest;dropTarget=0;fontSize=12;strokeColor=#788AA3;fontColor=#46495D;" parent="hb47lm85LWCOrQ8CDC2U-37" vertex="1">
                    <mxGeometry y="82" width="240" height="26" as="geometry"/>
                </mxCell>
                <mxCell id="hb47lm85LWCOrQ8CDC2U-41" value="" style="shape=partialRectangle;top=0;left=0;bottom=0;fillColor=none;align=left;verticalAlign=top;spacingLeft=4;spacingRight=4;overflow=hidden;rotatable=0;points=[];portConstraint=eastwest;part=1;fontSize=12;strokeColor=#788AA3;fontColor=#46495D;" parent="hb47lm85LWCOrQ8CDC2U-40" vertex="1" connectable="0">
                    <mxGeometry width="30" height="26" as="geometry"/>
                </mxCell>
                <mxCell id="hb47lm85LWCOrQ8CDC2U-42" value="LastName nvarchar(50)" style="shape=partialRectangle;top=0;left=0;right=0;bottom=0;align=left;verticalAlign=top;fillColor=none;spacingLeft=34;spacingRight=4;overflow=hidden;rotatable=0;points=[[0,0.5],[1,0.5]];portConstraint=eastwest;dropTarget=0;fontSize=12;strokeColor=#788AA3;fontColor=#46495D;" parent="hb47lm85LWCOrQ8CDC2U-37" vertex="1">
                    <mxGeometry y="108" width="240" height="26" as="geometry"/>
                </mxCell>
                <mxCell id="hb47lm85LWCOrQ8CDC2U-43" value="" style="shape=partialRectangle;top=0;left=0;bottom=0;fillColor=none;align=left;verticalAlign=top;spacingLeft=4;spacingRight=4;overflow=hidden;rotatable=0;points=[];portConstraint=eastwest;part=1;fontSize=12;strokeColor=#788AA3;fontColor=#46495D;" parent="hb47lm85LWCOrQ8CDC2U-42" vertex="1" connectable="0">
                    <mxGeometry width="30" height="26" as="geometry"/>
                </mxCell>
                <mxCell id="hb47lm85LWCOrQ8CDC2U-44" value="PassportNumber nvarchar(20)" style="shape=partialRectangle;top=0;left=0;right=0;bottom=0;align=left;verticalAlign=top;fillColor=none;spacingLeft=34;spacingRight=4;overflow=hidden;rotatable=0;points=[[0,0.5],[1,0.5]];portConstraint=eastwest;dropTarget=0;fontSize=12;strokeColor=#788AA3;fontColor=#46495D;" parent="hb47lm85LWCOrQ8CDC2U-37" vertex="1">
                    <mxGeometry y="134" width="240" height="26" as="geometry"/>
                </mxCell>
                <mxCell id="hb47lm85LWCOrQ8CDC2U-45" value="" style="shape=partialRectangle;top=0;left=0;bottom=0;fillColor=none;align=left;verticalAlign=top;spacingLeft=4;spacingRight=4;overflow=hidden;rotatable=0;points=[];portConstraint=eastwest;part=1;fontSize=12;strokeColor=#788AA3;fontColor=#46495D;" parent="hb47lm85LWCOrQ8CDC2U-44" vertex="1" connectable="0">
                    <mxGeometry width="30" height="26" as="geometry"/>
                </mxCell>
                <mxCell id="fk0Iinjc2G_9Y7pLENN2-0" value="Rank nvarchar(20)" style="shape=partialRectangle;top=0;left=0;right=0;bottom=0;align=left;verticalAlign=top;fillColor=none;spacingLeft=34;spacingRight=4;overflow=hidden;rotatable=0;points=[[0,0.5],[1,0.5]];portConstraint=eastwest;dropTarget=0;fontSize=12;strokeColor=#788AA3;fontColor=#46495D;" parent="hb47lm85LWCOrQ8CDC2U-37" vertex="1">
                    <mxGeometry y="160" width="240" height="26" as="geometry"/>
                </mxCell>
                <mxCell id="fk0Iinjc2G_9Y7pLENN2-1" value="" style="shape=partialRectangle;top=0;left=0;bottom=0;fillColor=none;align=left;verticalAlign=top;spacingLeft=4;spacingRight=4;overflow=hidden;rotatable=0;points=[];portConstraint=eastwest;part=1;fontSize=12;strokeColor=#788AA3;fontColor=#46495D;" parent="fk0Iinjc2G_9Y7pLENN2-0" vertex="1" connectable="0">
                    <mxGeometry width="30" height="26" as="geometry"/>
                </mxCell>
                <mxCell id="hb47lm85LWCOrQ8CDC2U-48" value="" style="shape=partialRectangle;top=0;left=0;right=0;bottom=0;align=left;verticalAlign=top;fillColor=none;spacingLeft=34;spacingRight=4;overflow=hidden;rotatable=0;points=[[0,0.5],[1,0.5]];portConstraint=eastwest;dropTarget=0;fontSize=12;strokeColor=#788AA3;fontColor=#46495D;" parent="hb47lm85LWCOrQ8CDC2U-37" vertex="1">
                    <mxGeometry y="186" width="240" as="geometry"/>
                </mxCell>
                <mxCell id="hb47lm85LWCOrQ8CDC2U-49" value="" style="shape=partialRectangle;top=0;left=0;bottom=0;fillColor=none;align=left;verticalAlign=top;spacingLeft=4;spacingRight=4;overflow=hidden;rotatable=0;points=[];portConstraint=eastwest;part=1;fontSize=12;strokeColor=#788AA3;fontColor=#46495D;" parent="hb47lm85LWCOrQ8CDC2U-48" vertex="1" connectable="0">
                    <mxGeometry width="30" as="geometry"/>
                </mxCell>
                <mxCell id="hb47lm85LWCOrQ8CDC2U-50" style="edgeStyle=orthogonalEdgeStyle;rounded=0;orthogonalLoop=1;jettySize=auto;html=1;exitX=0;exitY=0.5;exitDx=0;exitDy=0;entryX=0;entryY=0.5;entryDx=0;entryDy=0;endArrow=none;endFill=0;strokeColor=#788AA3;fontColor=#46495D;" parent="KUSGV_cUyTdbwqlPM9OB-1" source="hb47lm85LWCOrQ8CDC2U-4" target="hb47lm85LWCOrQ8CDC2U-27" edge="1">
                    <mxGeometry relative="1" as="geometry"/>
                </mxCell>
                <mxCell id="hb47lm85LWCOrQ8CDC2U-52" value="1" style="text;html=1;align=center;verticalAlign=middle;resizable=0;points=[];autosize=1;fontColor=#46495D;" parent="KUSGV_cUyTdbwqlPM9OB-1" vertex="1">
                    <mxGeometry x="360" y="260" width="20" height="20" as="geometry"/>
                </mxCell>
                <mxCell id="hb47lm85LWCOrQ8CDC2U-53" value="N" style="text;html=1;align=center;verticalAlign=middle;resizable=0;points=[];autosize=1;fontColor=#46495D;" parent="KUSGV_cUyTdbwqlPM9OB-1" vertex="1">
                    <mxGeometry x="394" y="24" width="20" height="20" as="geometry"/>
                </mxCell>
                <mxCell id="Zhil4Vp-r4YQikVRdTSz-0" value="1" style="text;html=1;align=center;verticalAlign=middle;resizable=0;points=[];autosize=1;fontColor=#46495D;" parent="KUSGV_cUyTdbwqlPM9OB-1" vertex="1">
                    <mxGeometry x="690" y="290" width="20" height="20" as="geometry"/>
                </mxCell>
                <mxCell id="Zhil4Vp-r4YQikVRdTSz-1" value="N" style="text;html=1;align=center;verticalAlign=middle;resizable=0;points=[];autosize=1;fontColor=#46495D;" parent="KUSGV_cUyTdbwqlPM9OB-1" vertex="1">
                    <mxGeometry x="590" y="290" width="20" height="20" as="geometry"/>
                </mxCell>
                <mxCell id="5eb1qRJxWaML8ZwUBkQg-0" value="Judge" style="swimlane;fontStyle=0;childLayout=stackLayout;horizontal=1;startSize=26;fillColor=#B2C9AB;horizontalStack=0;resizeParent=1;resizeParentMax=0;resizeLast=0;collapsible=1;marginBottom=0;swimlaneFillColor=#ffffff;align=center;fontSize=14;strokeColor=#788AA3;fontColor=#46495D;" parent="KUSGV_cUyTdbwqlPM9OB-1" vertex="1">
                    <mxGeometry x="380" y="-480" width="210" height="268" as="geometry"/>
                </mxCell>
                <mxCell id="5eb1qRJxWaML8ZwUBkQg-1" value="JudgeId int" style="shape=partialRectangle;top=0;left=0;right=0;bottom=1;align=left;verticalAlign=middle;fillColor=none;spacingLeft=34;spacingRight=4;overflow=hidden;rotatable=0;points=[[0,0.5],[1,0.5]];portConstraint=eastwest;dropTarget=0;fontStyle=1;fontSize=12;strokeColor=#788AA3;fontColor=#46495D;" parent="5eb1qRJxWaML8ZwUBkQg-0" vertex="1">
                    <mxGeometry y="26" width="210" height="30" as="geometry"/>
                </mxCell>
                <mxCell id="5eb1qRJxWaML8ZwUBkQg-2" value="PK" style="shape=partialRectangle;top=0;left=0;bottom=0;fillColor=none;align=left;verticalAlign=middle;spacingLeft=4;spacingRight=4;overflow=hidden;rotatable=0;points=[];portConstraint=eastwest;part=1;fontSize=12;strokeColor=#788AA3;fontColor=#46495D;" parent="5eb1qRJxWaML8ZwUBkQg-1" vertex="1" connectable="0">
                    <mxGeometry width="30" height="30" as="geometry"/>
                </mxCell>
                <mxCell id="5eb1qRJxWaML8ZwUBkQg-3" value="ResultId int&#10;" style="shape=partialRectangle;top=0;left=0;right=0;bottom=0;align=left;verticalAlign=top;fillColor=none;spacingLeft=34;spacingRight=4;overflow=hidden;rotatable=0;points=[[0,0.5],[1,0.5]];portConstraint=eastwest;dropTarget=0;fontSize=12;strokeColor=#788AA3;fontColor=#46495D;" parent="5eb1qRJxWaML8ZwUBkQg-0" vertex="1">
                    <mxGeometry y="56" width="210" height="26" as="geometry"/>
                </mxCell>
                <mxCell id="5eb1qRJxWaML8ZwUBkQg-4" value="FK" style="shape=partialRectangle;top=0;left=0;bottom=0;fillColor=none;align=left;verticalAlign=top;spacingLeft=4;spacingRight=4;overflow=hidden;rotatable=0;points=[];portConstraint=eastwest;part=1;fontSize=12;strokeColor=#788AA3;fontColor=#46495D;" parent="5eb1qRJxWaML8ZwUBkQg-3" vertex="1" connectable="0">
                    <mxGeometry width="30" height="26" as="geometry"/>
                </mxCell>
                <mxCell id="5eb1qRJxWaML8ZwUBkQg-15" value="SwimmerId int" style="shape=partialRectangle;top=0;left=0;right=0;bottom=0;align=left;verticalAlign=top;fillColor=none;spacingLeft=34;spacingRight=4;overflow=hidden;rotatable=0;points=[[0,0.5],[1,0.5]];portConstraint=eastwest;dropTarget=0;fontSize=12;strokeColor=#788AA3;fontColor=#46495D;" parent="5eb1qRJxWaML8ZwUBkQg-0" vertex="1">
                    <mxGeometry y="82" width="210" height="26" as="geometry"/>
                </mxCell>
                <mxCell id="5eb1qRJxWaML8ZwUBkQg-16" value="FK" style="shape=partialRectangle;top=0;left=0;bottom=0;fillColor=none;align=left;verticalAlign=top;spacingLeft=4;spacingRight=4;overflow=hidden;rotatable=0;points=[];portConstraint=eastwest;part=1;fontSize=12;strokeColor=#788AA3;fontColor=#46495D;" parent="5eb1qRJxWaML8ZwUBkQg-15" vertex="1" connectable="0">
                    <mxGeometry width="31.5" height="26" as="geometry"/>
                </mxCell>
                <mxCell id="5eb1qRJxWaML8ZwUBkQg-5" value="FirstName nvarchar(50)" style="shape=partialRectangle;top=0;left=0;right=0;bottom=0;align=left;verticalAlign=top;fillColor=none;spacingLeft=34;spacingRight=4;overflow=hidden;rotatable=0;points=[[0,0.5],[1,0.5]];portConstraint=eastwest;dropTarget=0;fontSize=12;strokeColor=#788AA3;fontColor=#46495D;" parent="5eb1qRJxWaML8ZwUBkQg-0" vertex="1">
                    <mxGeometry y="108" width="210" height="26" as="geometry"/>
                </mxCell>
                <mxCell id="5eb1qRJxWaML8ZwUBkQg-6" value="" style="shape=partialRectangle;top=0;left=0;bottom=0;fillColor=none;align=left;verticalAlign=top;spacingLeft=4;spacingRight=4;overflow=hidden;rotatable=0;points=[];portConstraint=eastwest;part=1;fontSize=12;strokeColor=#788AA3;fontColor=#46495D;" parent="5eb1qRJxWaML8ZwUBkQg-5" vertex="1" connectable="0">
                    <mxGeometry width="30" height="26" as="geometry"/>
                </mxCell>
                <mxCell id="5eb1qRJxWaML8ZwUBkQg-7" value="LastName nvarchar(50)" style="shape=partialRectangle;top=0;left=0;right=0;bottom=0;align=left;verticalAlign=top;fillColor=none;spacingLeft=34;spacingRight=4;overflow=hidden;rotatable=0;points=[[0,0.5],[1,0.5]];portConstraint=eastwest;dropTarget=0;fontSize=12;strokeColor=#788AA3;fontColor=#46495D;" parent="5eb1qRJxWaML8ZwUBkQg-0" vertex="1">
                    <mxGeometry y="134" width="210" height="26" as="geometry"/>
                </mxCell>
                <mxCell id="5eb1qRJxWaML8ZwUBkQg-8" value="" style="shape=partialRectangle;top=0;left=0;bottom=0;fillColor=none;align=left;verticalAlign=top;spacingLeft=4;spacingRight=4;overflow=hidden;rotatable=0;points=[];portConstraint=eastwest;part=1;fontSize=12;strokeColor=#788AA3;fontColor=#46495D;" parent="5eb1qRJxWaML8ZwUBkQg-7" vertex="1" connectable="0">
                    <mxGeometry width="30" height="26" as="geometry"/>
                </mxCell>
                <mxCell id="5eb1qRJxWaML8ZwUBkQg-9" value="PassportNumber nvarchar(20)" style="shape=partialRectangle;top=0;left=0;right=0;bottom=0;align=left;verticalAlign=top;fillColor=none;spacingLeft=34;spacingRight=4;overflow=hidden;rotatable=0;points=[[0,0.5],[1,0.5]];portConstraint=eastwest;dropTarget=0;fontSize=12;strokeColor=#788AA3;fontColor=#46495D;" parent="5eb1qRJxWaML8ZwUBkQg-0" vertex="1">
                    <mxGeometry y="160" width="210" height="26" as="geometry"/>
                </mxCell>
                <mxCell id="5eb1qRJxWaML8ZwUBkQg-10" value="" style="shape=partialRectangle;top=0;left=0;bottom=0;fillColor=none;align=left;verticalAlign=top;spacingLeft=4;spacingRight=4;overflow=hidden;rotatable=0;points=[];portConstraint=eastwest;part=1;fontSize=12;strokeColor=#788AA3;fontColor=#46495D;" parent="5eb1qRJxWaML8ZwUBkQg-9" vertex="1" connectable="0">
                    <mxGeometry width="30" height="26" as="geometry"/>
                </mxCell>
                <mxCell id="5eb1qRJxWaML8ZwUBkQg-11" value="Country smallint" style="shape=partialRectangle;top=0;left=0;right=0;bottom=0;align=left;verticalAlign=top;fillColor=none;spacingLeft=34;spacingRight=4;overflow=hidden;rotatable=0;points=[[0,0.5],[1,0.5]];portConstraint=eastwest;dropTarget=0;fontSize=12;strokeColor=#788AA3;fontColor=#46495D;" parent="5eb1qRJxWaML8ZwUBkQg-0" vertex="1">
                    <mxGeometry y="186" width="210" height="26" as="geometry"/>
                </mxCell>
                <mxCell id="5eb1qRJxWaML8ZwUBkQg-12" value="" style="shape=partialRectangle;top=0;left=0;bottom=0;fillColor=none;align=left;verticalAlign=top;spacingLeft=4;spacingRight=4;overflow=hidden;rotatable=0;points=[];portConstraint=eastwest;part=1;fontSize=12;strokeColor=#788AA3;fontColor=#46495D;" parent="5eb1qRJxWaML8ZwUBkQg-11" vertex="1" connectable="0">
                    <mxGeometry width="30" height="26" as="geometry"/>
                </mxCell>
                <mxCell id="5eb1qRJxWaML8ZwUBkQg-13" value="Class nvarchar (10)" style="shape=partialRectangle;top=0;left=0;right=0;bottom=0;align=left;verticalAlign=top;fillColor=none;spacingLeft=34;spacingRight=4;overflow=hidden;rotatable=0;points=[[0,0.5],[1,0.5]];portConstraint=eastwest;dropTarget=0;fontSize=12;strokeColor=#788AA3;fontColor=#46495D;" parent="5eb1qRJxWaML8ZwUBkQg-0" vertex="1">
                    <mxGeometry y="212" width="210" height="28" as="geometry"/>
                </mxCell>
                <mxCell id="5eb1qRJxWaML8ZwUBkQg-14" value="" style="shape=partialRectangle;top=0;left=0;bottom=0;fillColor=none;align=left;verticalAlign=top;spacingLeft=4;spacingRight=4;overflow=hidden;rotatable=0;points=[];portConstraint=eastwest;part=1;fontSize=12;strokeColor=#788AA3;fontColor=#46495D;" parent="5eb1qRJxWaML8ZwUBkQg-13" vertex="1" connectable="0">
                    <mxGeometry y="-10.769230769230768" width="30" height="38.76923076923077" as="geometry"/>
                </mxCell>
                <mxCell id="mi1_N4gyda_cG74H80Wo-0" value="Gender nvarchar (10)" style="shape=partialRectangle;top=0;left=0;right=0;bottom=0;align=left;verticalAlign=top;fillColor=none;spacingLeft=34;spacingRight=4;overflow=hidden;rotatable=0;points=[[0,0.5],[1,0.5]];portConstraint=eastwest;dropTarget=0;fontSize=12;strokeColor=#788AA3;fontColor=#46495D;" parent="5eb1qRJxWaML8ZwUBkQg-0" vertex="1">
                    <mxGeometry y="240" width="210" height="28" as="geometry"/>
                </mxCell>
                <mxCell id="mi1_N4gyda_cG74H80Wo-1" value="" style="shape=partialRectangle;top=0;left=0;bottom=0;fillColor=none;align=left;verticalAlign=top;spacingLeft=4;spacingRight=4;overflow=hidden;rotatable=0;points=[];portConstraint=eastwest;part=1;fontSize=12;strokeColor=#788AA3;fontColor=#46495D;" parent="mi1_N4gyda_cG74H80Wo-0" vertex="1" connectable="0">
                    <mxGeometry y="-10.769230769230768" width="30" height="38.76923076923077" as="geometry"/>
                </mxCell>
                <mxCell id="ptEEuJr7u8m562aVtnTd-1" value="N" style="text;html=1;align=center;verticalAlign=middle;resizable=0;points=[];autosize=1;fontColor=#46495D;" parent="KUSGV_cUyTdbwqlPM9OB-1" vertex="1">
                    <mxGeometry x="490" y="-103" width="20" height="20" as="geometry"/>
                </mxCell>
                <mxCell id="ptEEuJr7u8m562aVtnTd-2" value="1" style="text;html=1;align=center;verticalAlign=middle;resizable=0;points=[];autosize=1;fontColor=#46495D;" parent="KUSGV_cUyTdbwqlPM9OB-1" vertex="1">
                    <mxGeometry x="490" y="-212" width="20" height="20" as="geometry"/>
                </mxCell>
                <mxCell id="aOcEHc109FeoM6-WewTq-0" value="Competition" style="swimlane;fontStyle=0;childLayout=stackLayout;horizontal=1;startSize=26;fillColor=#B2C9AB;horizontalStack=0;resizeParent=1;resizeParentMax=0;resizeLast=0;collapsible=1;marginBottom=0;swimlaneFillColor=#ffffff;align=center;fontSize=14;strokeColor=#788AA3;fontColor=#46495D;" parent="KUSGV_cUyTdbwqlPM9OB-1" vertex="1">
                    <mxGeometry x="730" y="-90" width="210" height="212" as="geometry"/>
                </mxCell>
                <mxCell id="aOcEHc109FeoM6-WewTq-1" value="CompetitionId int" style="shape=partialRectangle;top=0;left=0;right=0;bottom=1;align=left;verticalAlign=middle;fillColor=none;spacingLeft=34;spacingRight=4;overflow=hidden;rotatable=0;points=[[0,0.5],[1,0.5]];portConstraint=eastwest;dropTarget=0;fontStyle=1;fontSize=12;strokeColor=#788AA3;fontColor=#46495D;" parent="aOcEHc109FeoM6-WewTq-0" vertex="1">
                    <mxGeometry y="26" width="210" height="30" as="geometry"/>
                </mxCell>
                <mxCell id="aOcEHc109FeoM6-WewTq-2" value="PK" style="shape=partialRectangle;top=0;left=0;bottom=0;fillColor=none;align=left;verticalAlign=middle;spacingLeft=4;spacingRight=4;overflow=hidden;rotatable=0;points=[];portConstraint=eastwest;part=1;fontSize=12;strokeColor=#788AA3;fontColor=#46495D;" parent="aOcEHc109FeoM6-WewTq-1" vertex="1" connectable="0">
                    <mxGeometry width="30" height="30" as="geometry"/>
                </mxCell>
                <mxCell id="aOcEHc109FeoM6-WewTq-3" value="ResultId int" style="shape=partialRectangle;top=0;left=0;right=0;bottom=0;align=left;verticalAlign=top;fillColor=none;spacingLeft=34;spacingRight=4;overflow=hidden;rotatable=0;points=[[0,0.5],[1,0.5]];portConstraint=eastwest;dropTarget=0;fontSize=12;strokeColor=#788AA3;fontColor=#46495D;" parent="aOcEHc109FeoM6-WewTq-0" vertex="1">
                    <mxGeometry y="56" width="210" height="26" as="geometry"/>
                </mxCell>
                <mxCell id="aOcEHc109FeoM6-WewTq-4" value="FK" style="shape=partialRectangle;top=0;left=0;bottom=0;fillColor=none;align=left;verticalAlign=top;spacingLeft=4;spacingRight=4;overflow=hidden;rotatable=0;points=[];portConstraint=eastwest;part=1;fontSize=12;strokeColor=#788AA3;fontColor=#46495D;" parent="aOcEHc109FeoM6-WewTq-3" vertex="1" connectable="0">
                    <mxGeometry width="30" height="26" as="geometry"/>
                </mxCell>
                <mxCell id="aOcEHc109FeoM6-WewTq-15" value="JudgeId int" style="shape=partialRectangle;top=0;left=0;right=0;bottom=0;align=left;verticalAlign=top;fillColor=none;spacingLeft=34;spacingRight=4;overflow=hidden;rotatable=0;points=[[0,0.5],[1,0.5]];portConstraint=eastwest;dropTarget=0;fontSize=12;strokeColor=#788AA3;fontColor=#46495D;" parent="aOcEHc109FeoM6-WewTq-0" vertex="1">
                    <mxGeometry y="82" width="210" height="26" as="geometry"/>
                </mxCell>
                <mxCell id="aOcEHc109FeoM6-WewTq-16" value="FK" style="shape=partialRectangle;top=0;left=0;bottom=0;fillColor=none;align=left;verticalAlign=top;spacingLeft=4;spacingRight=4;overflow=hidden;rotatable=0;points=[];portConstraint=eastwest;part=1;fontSize=12;strokeColor=#788AA3;fontColor=#46495D;" parent="aOcEHc109FeoM6-WewTq-15" vertex="1" connectable="0">
                    <mxGeometry width="31.5" height="26" as="geometry"/>
                </mxCell>
                <mxCell id="h_0NvL3OV3dmvWZzKven-0" value="PoolId int" style="shape=partialRectangle;top=0;left=0;right=0;bottom=0;align=left;verticalAlign=top;fillColor=none;spacingLeft=34;spacingRight=4;overflow=hidden;rotatable=0;points=[[0,0.5],[1,0.5]];portConstraint=eastwest;dropTarget=0;fontSize=12;strokeColor=#788AA3;fontColor=#46495D;" parent="aOcEHc109FeoM6-WewTq-0" vertex="1">
                    <mxGeometry y="108" width="210" height="26" as="geometry"/>
                </mxCell>
                <mxCell id="h_0NvL3OV3dmvWZzKven-1" value="FK" style="shape=partialRectangle;top=0;left=0;bottom=0;fillColor=none;align=left;verticalAlign=top;spacingLeft=4;spacingRight=4;overflow=hidden;rotatable=0;points=[];portConstraint=eastwest;part=1;fontSize=12;strokeColor=#788AA3;fontColor=#46495D;" parent="h_0NvL3OV3dmvWZzKven-0" vertex="1" connectable="0">
                    <mxGeometry width="31.5" height="26" as="geometry"/>
                </mxCell>
                <mxCell id="aOcEHc109FeoM6-WewTq-5" value="Name nvarchar(50)" style="shape=partialRectangle;top=0;left=0;right=0;bottom=0;align=left;verticalAlign=top;fillColor=none;spacingLeft=34;spacingRight=4;overflow=hidden;rotatable=0;points=[[0,0.5],[1,0.5]];portConstraint=eastwest;dropTarget=0;fontSize=12;strokeColor=#788AA3;fontColor=#46495D;" parent="aOcEHc109FeoM6-WewTq-0" vertex="1">
                    <mxGeometry y="134" width="210" height="26" as="geometry"/>
                </mxCell>
                <mxCell id="aOcEHc109FeoM6-WewTq-6" value="" style="shape=partialRectangle;top=0;left=0;bottom=0;fillColor=none;align=left;verticalAlign=top;spacingLeft=4;spacingRight=4;overflow=hidden;rotatable=0;points=[];portConstraint=eastwest;part=1;fontSize=12;strokeColor=#788AA3;fontColor=#46495D;" parent="aOcEHc109FeoM6-WewTq-5" vertex="1" connectable="0">
                    <mxGeometry width="30" height="26" as="geometry"/>
                </mxCell>
                <mxCell id="aOcEHc109FeoM6-WewTq-7" value="Category nvarchar(50)" style="shape=partialRectangle;top=0;left=0;right=0;bottom=0;align=left;verticalAlign=top;fillColor=none;spacingLeft=34;spacingRight=4;overflow=hidden;rotatable=0;points=[[0,0.5],[1,0.5]];portConstraint=eastwest;dropTarget=0;fontSize=12;strokeColor=#788AA3;fontColor=#46495D;" parent="aOcEHc109FeoM6-WewTq-0" vertex="1">
                    <mxGeometry y="160" width="210" height="26" as="geometry"/>
                </mxCell>
                <mxCell id="aOcEHc109FeoM6-WewTq-8" value="" style="shape=partialRectangle;top=0;left=0;bottom=0;fillColor=none;align=left;verticalAlign=top;spacingLeft=4;spacingRight=4;overflow=hidden;rotatable=0;points=[];portConstraint=eastwest;part=1;fontSize=12;strokeColor=#788AA3;fontColor=#46495D;" parent="aOcEHc109FeoM6-WewTq-7" vertex="1" connectable="0">
                    <mxGeometry width="30" height="26" as="geometry"/>
                </mxCell>
                <mxCell id="aOcEHc109FeoM6-WewTq-11" value="Date datetime" style="shape=partialRectangle;top=0;left=0;right=0;bottom=0;align=left;verticalAlign=top;fillColor=none;spacingLeft=34;spacingRight=4;overflow=hidden;rotatable=0;points=[[0,0.5],[1,0.5]];portConstraint=eastwest;dropTarget=0;fontSize=12;strokeColor=#788AA3;fontColor=#46495D;" parent="aOcEHc109FeoM6-WewTq-0" vertex="1">
                    <mxGeometry y="186" width="210" height="26" as="geometry"/>
                </mxCell>
                <mxCell id="aOcEHc109FeoM6-WewTq-12" value="" style="shape=partialRectangle;top=0;left=0;bottom=0;fillColor=none;align=left;verticalAlign=top;spacingLeft=4;spacingRight=4;overflow=hidden;rotatable=0;points=[];portConstraint=eastwest;part=1;fontSize=12;strokeColor=#788AA3;fontColor=#46495D;" parent="aOcEHc109FeoM6-WewTq-11" vertex="1" connectable="0">
                    <mxGeometry width="30" height="26" as="geometry"/>
                </mxCell>
                <mxCell id="PbXtbHMv1zqdBNBU6o_Y-2" value="" style="endArrow=none;html=1;rounded=0;strokeColor=#788AA3;fontColor=#46495D;" parent="KUSGV_cUyTdbwqlPM9OB-1" edge="1">
                    <mxGeometry relative="1" as="geometry">
                        <mxPoint x="570" y="25.17" as="sourcePoint"/>
                        <mxPoint x="730" y="25.17" as="targetPoint"/>
                    </mxGeometry>
                </mxCell>
                <mxCell id="PbXtbHMv1zqdBNBU6o_Y-3" value="" style="endArrow=none;html=1;rounded=0;entryX=0.479;entryY=1.021;entryDx=0;entryDy=0;entryPerimeter=0;strokeColor=#788AA3;fontColor=#46495D;" parent="KUSGV_cUyTdbwqlPM9OB-1" target="mi1_N4gyda_cG74H80Wo-0" edge="1">
                    <mxGeometry relative="1" as="geometry">
                        <mxPoint x="481.28751047778724" y="-79" as="sourcePoint"/>
                        <mxPoint x="485.4000000000001" y="-211.5999999999999" as="targetPoint"/>
                    </mxGeometry>
                </mxCell>
                <mxCell id="PbXtbHMv1zqdBNBU6o_Y-4" value="1" style="text;html=1;align=center;verticalAlign=middle;resizable=0;points=[];autosize=1;fontColor=#46495D;" parent="KUSGV_cUyTdbwqlPM9OB-1" vertex="1">
                    <mxGeometry x="710" y="4" width="20" height="20" as="geometry"/>
                </mxCell>
                <mxCell id="PbXtbHMv1zqdBNBU6o_Y-5" value="N" style="text;html=1;align=center;verticalAlign=middle;resizable=0;points=[];autosize=1;fontColor=#46495D;" parent="KUSGV_cUyTdbwqlPM9OB-1" vertex="1">
                    <mxGeometry x="570" y="4" width="20" height="20" as="geometry"/>
                </mxCell>
                <mxCell id="IRyKVBiV1rIyTAgWyj-2-0" value="Sponsor" style="swimlane;fontStyle=0;childLayout=stackLayout;horizontal=1;startSize=26;fillColor=#B2C9AB;horizontalStack=0;resizeParent=1;resizeParentMax=0;resizeLast=0;collapsible=1;marginBottom=0;swimlaneFillColor=#ffffff;align=center;fontSize=14;strokeColor=#788AA3;fontColor=#46495D;" parent="KUSGV_cUyTdbwqlPM9OB-1" vertex="1">
                    <mxGeometry x="1080" y="-90" width="210" height="186" as="geometry"/>
                </mxCell>
                <mxCell id="IRyKVBiV1rIyTAgWyj-2-1" value="SponsorId int" style="shape=partialRectangle;top=0;left=0;right=0;bottom=1;align=left;verticalAlign=middle;fillColor=none;spacingLeft=34;spacingRight=4;overflow=hidden;rotatable=0;points=[[0,0.5],[1,0.5]];portConstraint=eastwest;dropTarget=0;fontStyle=1;fontSize=12;strokeColor=#788AA3;fontColor=#46495D;" parent="IRyKVBiV1rIyTAgWyj-2-0" vertex="1">
                    <mxGeometry y="26" width="210" height="30" as="geometry"/>
                </mxCell>
                <mxCell id="IRyKVBiV1rIyTAgWyj-2-2" value="PK" style="shape=partialRectangle;top=0;left=0;bottom=0;fillColor=none;align=left;verticalAlign=middle;spacingLeft=4;spacingRight=4;overflow=hidden;rotatable=0;points=[];portConstraint=eastwest;part=1;fontSize=12;strokeColor=#788AA3;fontColor=#46495D;" parent="IRyKVBiV1rIyTAgWyj-2-1" vertex="1" connectable="0">
                    <mxGeometry width="30" height="30" as="geometry"/>
                </mxCell>
                <mxCell id="IRyKVBiV1rIyTAgWyj-2-3" value="CompetitionId int" style="shape=partialRectangle;top=0;left=0;right=0;bottom=0;align=left;verticalAlign=top;fillColor=none;spacingLeft=34;spacingRight=4;overflow=hidden;rotatable=0;points=[[0,0.5],[1,0.5]];portConstraint=eastwest;dropTarget=0;fontSize=12;strokeColor=#788AA3;fontColor=#46495D;" parent="IRyKVBiV1rIyTAgWyj-2-0" vertex="1">
                    <mxGeometry y="56" width="210" height="26" as="geometry"/>
                </mxCell>
                <mxCell id="IRyKVBiV1rIyTAgWyj-2-4" value="FK" style="shape=partialRectangle;top=0;left=0;bottom=0;fillColor=none;align=left;verticalAlign=top;spacingLeft=4;spacingRight=4;overflow=hidden;rotatable=0;points=[];portConstraint=eastwest;part=1;fontSize=12;strokeColor=#788AA3;fontColor=#46495D;" parent="IRyKVBiV1rIyTAgWyj-2-3" vertex="1" connectable="0">
                    <mxGeometry width="30" height="26" as="geometry"/>
                </mxCell>
                <mxCell id="IRyKVBiV1rIyTAgWyj-2-7" value="Name nvarchar(50)" style="shape=partialRectangle;top=0;left=0;right=0;bottom=0;align=left;verticalAlign=top;fillColor=none;spacingLeft=34;spacingRight=4;overflow=hidden;rotatable=0;points=[[0,0.5],[1,0.5]];portConstraint=eastwest;dropTarget=0;fontSize=12;strokeColor=#788AA3;fontColor=#46495D;" parent="IRyKVBiV1rIyTAgWyj-2-0" vertex="1">
                    <mxGeometry y="82" width="210" height="26" as="geometry"/>
                </mxCell>
                <mxCell id="IRyKVBiV1rIyTAgWyj-2-8" value="" style="shape=partialRectangle;top=0;left=0;bottom=0;fillColor=none;align=left;verticalAlign=top;spacingLeft=4;spacingRight=4;overflow=hidden;rotatable=0;points=[];portConstraint=eastwest;part=1;fontSize=12;strokeColor=#788AA3;fontColor=#46495D;" parent="IRyKVBiV1rIyTAgWyj-2-7" vertex="1" connectable="0">
                    <mxGeometry width="30" height="26" as="geometry"/>
                </mxCell>
                <mxCell id="IRyKVBiV1rIyTAgWyj-2-9" value="Category nvarchar(50)" style="shape=partialRectangle;top=0;left=0;right=0;bottom=0;align=left;verticalAlign=top;fillColor=none;spacingLeft=34;spacingRight=4;overflow=hidden;rotatable=0;points=[[0,0.5],[1,0.5]];portConstraint=eastwest;dropTarget=0;fontSize=12;strokeColor=#788AA3;fontColor=#46495D;" parent="IRyKVBiV1rIyTAgWyj-2-0" vertex="1">
                    <mxGeometry y="108" width="210" height="26" as="geometry"/>
                </mxCell>
                <mxCell id="IRyKVBiV1rIyTAgWyj-2-10" value="" style="shape=partialRectangle;top=0;left=0;bottom=0;fillColor=none;align=left;verticalAlign=top;spacingLeft=4;spacingRight=4;overflow=hidden;rotatable=0;points=[];portConstraint=eastwest;part=1;fontSize=12;strokeColor=#788AA3;fontColor=#46495D;" parent="IRyKVBiV1rIyTAgWyj-2-9" vertex="1" connectable="0">
                    <mxGeometry width="30" height="26" as="geometry"/>
                </mxCell>
                <mxCell id="IRyKVBiV1rIyTAgWyj-2-11" value="Country   smallint" style="shape=partialRectangle;top=0;left=0;right=0;bottom=0;align=left;verticalAlign=top;fillColor=none;spacingLeft=34;spacingRight=4;overflow=hidden;rotatable=0;points=[[0,0.5],[1,0.5]];portConstraint=eastwest;dropTarget=0;fontSize=12;strokeColor=#788AA3;fontColor=#46495D;" parent="IRyKVBiV1rIyTAgWyj-2-0" vertex="1">
                    <mxGeometry y="134" width="210" height="26" as="geometry"/>
                </mxCell>
                <mxCell id="IRyKVBiV1rIyTAgWyj-2-12" value="" style="shape=partialRectangle;top=0;left=0;bottom=0;fillColor=none;align=left;verticalAlign=top;spacingLeft=4;spacingRight=4;overflow=hidden;rotatable=0;points=[];portConstraint=eastwest;part=1;fontSize=12;strokeColor=#788AA3;fontColor=#46495D;" parent="IRyKVBiV1rIyTAgWyj-2-11" vertex="1" connectable="0">
                    <mxGeometry width="30" height="26" as="geometry"/>
                </mxCell>
                <mxCell id="K6aDMeID26gefpa8y8Qg-0" value="Amount   money" style="shape=partialRectangle;top=0;left=0;right=0;bottom=0;align=left;verticalAlign=top;fillColor=none;spacingLeft=34;spacingRight=4;overflow=hidden;rotatable=0;points=[[0,0.5],[1,0.5]];portConstraint=eastwest;dropTarget=0;fontSize=12;strokeColor=#788AA3;fontColor=#46495D;" parent="IRyKVBiV1rIyTAgWyj-2-0" vertex="1">
                    <mxGeometry y="160" width="210" height="26" as="geometry"/>
                </mxCell>
                <mxCell id="K6aDMeID26gefpa8y8Qg-1" value="" style="shape=partialRectangle;top=0;left=0;bottom=0;fillColor=none;align=left;verticalAlign=top;spacingLeft=4;spacingRight=4;overflow=hidden;rotatable=0;points=[];portConstraint=eastwest;part=1;fontSize=12;strokeColor=#788AA3;fontColor=#46495D;" parent="K6aDMeID26gefpa8y8Qg-0" vertex="1" connectable="0">
                    <mxGeometry width="30" height="26" as="geometry"/>
                </mxCell>
                <mxCell id="_Z1fu6OG0uOyq5E2QF6j-0" value="" style="endArrow=none;html=1;rounded=0;strokeColor=#788AA3;fontColor=#46495D;" parent="KUSGV_cUyTdbwqlPM9OB-1" edge="1">
                    <mxGeometry relative="1" as="geometry">
                        <mxPoint x="940" y="4.000000000000071" as="sourcePoint"/>
                        <mxPoint x="1080" y="4" as="targetPoint"/>
                    </mxGeometry>
                </mxCell>
                <mxCell id="_Z1fu6OG0uOyq5E2QF6j-1" value="N" style="text;html=1;align=center;verticalAlign=middle;resizable=0;points=[];autosize=1;fontColor=#46495D;" parent="KUSGV_cUyTdbwqlPM9OB-1" vertex="1">
                    <mxGeometry x="940" y="-15" width="20" height="20" as="geometry"/>
                </mxCell>
                <mxCell id="_Z1fu6OG0uOyq5E2QF6j-2" value="N" style="text;html=1;align=center;verticalAlign=middle;resizable=0;points=[];autosize=1;fontColor=#46495D;" parent="KUSGV_cUyTdbwqlPM9OB-1" vertex="1">
                    <mxGeometry x="1060" y="-16" width="20" height="20" as="geometry"/>
                </mxCell>
                <mxCell id="M3IFdc6WGczHpGQM1rVj-0" value="Pool" style="swimlane;fontStyle=0;childLayout=stackLayout;horizontal=1;startSize=26;fillColor=#B2C9AB;horizontalStack=0;resizeParent=1;resizeParentMax=0;resizeLast=0;collapsible=1;marginBottom=0;swimlaneFillColor=#ffffff;align=center;fontSize=14;strokeColor=#788AA3;fontColor=#46495D;" parent="KUSGV_cUyTdbwqlPM9OB-1" vertex="1">
                    <mxGeometry x="725" y="-452" width="210" height="212" as="geometry"/>
                </mxCell>
                <mxCell id="M3IFdc6WGczHpGQM1rVj-1" value="PoolId int" style="shape=partialRectangle;top=0;left=0;right=0;bottom=1;align=left;verticalAlign=middle;fillColor=none;spacingLeft=34;spacingRight=4;overflow=hidden;rotatable=0;points=[[0,0.5],[1,0.5]];portConstraint=eastwest;dropTarget=0;fontStyle=1;fontSize=12;strokeColor=#788AA3;fontColor=#46495D;" parent="M3IFdc6WGczHpGQM1rVj-0" vertex="1">
                    <mxGeometry y="26" width="210" height="30" as="geometry"/>
                </mxCell>
                <mxCell id="M3IFdc6WGczHpGQM1rVj-2" value="PK" style="shape=partialRectangle;top=0;left=0;bottom=0;fillColor=none;align=left;verticalAlign=middle;spacingLeft=4;spacingRight=4;overflow=hidden;rotatable=0;points=[];portConstraint=eastwest;part=1;fontSize=12;strokeColor=#788AA3;fontColor=#46495D;" parent="M3IFdc6WGczHpGQM1rVj-1" vertex="1" connectable="0">
                    <mxGeometry width="30" height="30" as="geometry"/>
                </mxCell>
                <mxCell id="M3IFdc6WGczHpGQM1rVj-3" value="CompetitionId int" style="shape=partialRectangle;top=0;left=0;right=0;bottom=0;align=left;verticalAlign=top;fillColor=none;spacingLeft=34;spacingRight=4;overflow=hidden;rotatable=0;points=[[0,0.5],[1,0.5]];portConstraint=eastwest;dropTarget=0;fontSize=12;strokeColor=#788AA3;fontColor=#46495D;" parent="M3IFdc6WGczHpGQM1rVj-0" vertex="1">
                    <mxGeometry y="56" width="210" height="26" as="geometry"/>
                </mxCell>
                <mxCell id="M3IFdc6WGczHpGQM1rVj-4" value="FK" style="shape=partialRectangle;top=0;left=0;bottom=0;fillColor=none;align=left;verticalAlign=top;spacingLeft=4;spacingRight=4;overflow=hidden;rotatable=0;points=[];portConstraint=eastwest;part=1;fontSize=12;strokeColor=#788AA3;fontColor=#46495D;" parent="M3IFdc6WGczHpGQM1rVj-3" vertex="1" connectable="0">
                    <mxGeometry width="30" height="26" as="geometry"/>
                </mxCell>
                <mxCell id="M3IFdc6WGczHpGQM1rVj-5" value="Name nvarchar(50)" style="shape=partialRectangle;top=0;left=0;right=0;bottom=0;align=left;verticalAlign=top;fillColor=none;spacingLeft=34;spacingRight=4;overflow=hidden;rotatable=0;points=[[0,0.5],[1,0.5]];portConstraint=eastwest;dropTarget=0;fontSize=12;strokeColor=#788AA3;fontColor=#46495D;" parent="M3IFdc6WGczHpGQM1rVj-0" vertex="1">
                    <mxGeometry y="82" width="210" height="26" as="geometry"/>
                </mxCell>
                <mxCell id="M3IFdc6WGczHpGQM1rVj-6" value="" style="shape=partialRectangle;top=0;left=0;bottom=0;fillColor=none;align=left;verticalAlign=top;spacingLeft=4;spacingRight=4;overflow=hidden;rotatable=0;points=[];portConstraint=eastwest;part=1;fontSize=12;strokeColor=#788AA3;fontColor=#46495D;" parent="M3IFdc6WGczHpGQM1rVj-5" vertex="1" connectable="0">
                    <mxGeometry width="30" height="26" as="geometry"/>
                </mxCell>
                <mxCell id="M3IFdc6WGczHpGQM1rVj-9" value="Country smallint" style="shape=partialRectangle;top=0;left=0;right=0;bottom=0;align=left;verticalAlign=top;fillColor=none;spacingLeft=34;spacingRight=4;overflow=hidden;rotatable=0;points=[[0,0.5],[1,0.5]];portConstraint=eastwest;dropTarget=0;fontSize=12;strokeColor=#788AA3;fontColor=#46495D;" parent="M3IFdc6WGczHpGQM1rVj-0" vertex="1">
                    <mxGeometry y="108" width="210" height="26" as="geometry"/>
                </mxCell>
                <mxCell id="M3IFdc6WGczHpGQM1rVj-10" value="" style="shape=partialRectangle;top=0;left=0;bottom=0;fillColor=none;align=left;verticalAlign=top;spacingLeft=4;spacingRight=4;overflow=hidden;rotatable=0;points=[];portConstraint=eastwest;part=1;fontSize=12;strokeColor=#788AA3;fontColor=#46495D;" parent="M3IFdc6WGczHpGQM1rVj-9" vertex="1" connectable="0">
                    <mxGeometry width="30" height="26" as="geometry"/>
                </mxCell>
                <mxCell id="R84hWaw9LCgz33m9K6Q0-0" value="Lengh smallint" style="shape=partialRectangle;top=0;left=0;right=0;bottom=0;align=left;verticalAlign=top;fillColor=none;spacingLeft=34;spacingRight=4;overflow=hidden;rotatable=0;points=[[0,0.5],[1,0.5]];portConstraint=eastwest;dropTarget=0;fontSize=12;strokeColor=#788AA3;fontColor=#46495D;" parent="M3IFdc6WGczHpGQM1rVj-0" vertex="1">
                    <mxGeometry y="134" width="210" height="26" as="geometry"/>
                </mxCell>
                <mxCell id="R84hWaw9LCgz33m9K6Q0-1" value="" style="shape=partialRectangle;top=0;left=0;bottom=0;fillColor=none;align=left;verticalAlign=top;spacingLeft=4;spacingRight=4;overflow=hidden;rotatable=0;points=[];portConstraint=eastwest;part=1;fontSize=12;strokeColor=#788AA3;fontColor=#46495D;" parent="R84hWaw9LCgz33m9K6Q0-0" vertex="1" connectable="0">
                    <mxGeometry width="30" height="26" as="geometry"/>
                </mxCell>
                <mxCell id="M3IFdc6WGczHpGQM1rVj-11" value="Width  smallint" style="shape=partialRectangle;top=0;left=0;right=0;bottom=0;align=left;verticalAlign=top;fillColor=none;spacingLeft=34;spacingRight=4;overflow=hidden;rotatable=0;points=[[0,0.5],[1,0.5]];portConstraint=eastwest;dropTarget=0;fontSize=12;strokeColor=#788AA3;fontColor=#46495D;" parent="M3IFdc6WGczHpGQM1rVj-0" vertex="1">
                    <mxGeometry y="160" width="210" height="26" as="geometry"/>
                </mxCell>
                <mxCell id="M3IFdc6WGczHpGQM1rVj-12" value="" style="shape=partialRectangle;top=0;left=0;bottom=0;fillColor=none;align=left;verticalAlign=top;spacingLeft=4;spacingRight=4;overflow=hidden;rotatable=0;points=[];portConstraint=eastwest;part=1;fontSize=12;strokeColor=#788AA3;fontColor=#46495D;" parent="M3IFdc6WGczHpGQM1rVj-11" vertex="1" connectable="0">
                    <mxGeometry width="30" height="26" as="geometry"/>
                </mxCell>
                <mxCell id="SEpqvuA8mCCMuoTjORBb-0" value="Depth smallint" style="shape=partialRectangle;top=0;left=0;right=0;bottom=0;align=left;verticalAlign=top;fillColor=none;spacingLeft=34;spacingRight=4;overflow=hidden;rotatable=0;points=[[0,0.5],[1,0.5]];portConstraint=eastwest;dropTarget=0;fontSize=12;strokeColor=#788AA3;fontColor=#46495D;" parent="M3IFdc6WGczHpGQM1rVj-0" vertex="1">
                    <mxGeometry y="186" width="210" height="26" as="geometry"/>
                </mxCell>
                <mxCell id="SEpqvuA8mCCMuoTjORBb-1" value="" style="shape=partialRectangle;top=0;left=0;bottom=0;fillColor=none;align=left;verticalAlign=top;spacingLeft=4;spacingRight=4;overflow=hidden;rotatable=0;points=[];portConstraint=eastwest;part=1;fontSize=12;strokeColor=#788AA3;fontColor=#46495D;" parent="SEpqvuA8mCCMuoTjORBb-0" vertex="1" connectable="0">
                    <mxGeometry width="30" height="26" as="geometry"/>
                </mxCell>
                <mxCell id="h_0NvL3OV3dmvWZzKven-3" value="" style="endArrow=none;html=1;rounded=0;entryX=0.479;entryY=1.021;entryDx=0;entryDy=0;entryPerimeter=0;exitX=0.5;exitY=0;exitDx=0;exitDy=0;strokeColor=#788AA3;fontColor=#46495D;" parent="KUSGV_cUyTdbwqlPM9OB-1" source="aOcEHc109FeoM6-WewTq-0" edge="1">
                    <mxGeometry relative="1" as="geometry">
                        <mxPoint x="835.1075104777872" y="-107.59" as="sourcePoint"/>
                        <mxPoint x="834.4100000000001" y="-240.00200000000004" as="targetPoint"/>
                    </mxGeometry>
                </mxCell>
                <mxCell id="h_0NvL3OV3dmvWZzKven-4" value="1" style="text;html=1;align=center;verticalAlign=middle;resizable=0;points=[];autosize=1;fontColor=#46495D;" parent="KUSGV_cUyTdbwqlPM9OB-1" vertex="1">
                    <mxGeometry x="840" y="-110" width="20" height="20" as="geometry"/>
                </mxCell>
                <mxCell id="h_0NvL3OV3dmvWZzKven-5" value="N" style="text;html=1;align=center;verticalAlign=middle;resizable=0;points=[];autosize=1;fontColor=#46495D;" parent="KUSGV_cUyTdbwqlPM9OB-1" vertex="1">
                    <mxGeometry x="840" y="-240" width="20" height="20" as="geometry"/>
                </mxCell>
                <mxCell id="_GwM92pN1n4AugzIyQ0w-0" value="WADA Laboratory" style="swimlane;fontStyle=0;childLayout=stackLayout;horizontal=1;startSize=26;fillColor=#B2C9AB;horizontalStack=0;resizeParent=1;resizeParentMax=0;resizeLast=0;collapsible=1;marginBottom=0;swimlaneFillColor=#ffffff;align=center;fontSize=14;strokeColor=#788AA3;fontColor=#46495D;" parent="KUSGV_cUyTdbwqlPM9OB-1" vertex="1">
                    <mxGeometry x="405" y="691" width="160" height="186" as="geometry"/>
                </mxCell>
                <mxCell id="_GwM92pN1n4AugzIyQ0w-1" value="LaboratoryId bigint" style="shape=partialRectangle;top=0;left=0;right=0;bottom=1;align=left;verticalAlign=middle;fillColor=none;spacingLeft=34;spacingRight=4;overflow=hidden;rotatable=0;points=[[0,0.5],[1,0.5]];portConstraint=eastwest;dropTarget=0;fontStyle=1;fontSize=12;strokeColor=#788AA3;fontColor=#46495D;" parent="_GwM92pN1n4AugzIyQ0w-0" vertex="1">
                    <mxGeometry y="26" width="160" height="30" as="geometry"/>
                </mxCell>
                <mxCell id="_GwM92pN1n4AugzIyQ0w-2" value="PK" style="shape=partialRectangle;top=0;left=0;bottom=0;fillColor=none;align=left;verticalAlign=middle;spacingLeft=4;spacingRight=4;overflow=hidden;rotatable=0;points=[];portConstraint=eastwest;part=1;fontSize=12;strokeColor=#788AA3;fontColor=#46495D;" parent="_GwM92pN1n4AugzIyQ0w-1" vertex="1" connectable="0">
                    <mxGeometry width="30" height="30" as="geometry"/>
                </mxCell>
                <mxCell id="_GwM92pN1n4AugzIyQ0w-7" value="SwimmerId int" style="shape=partialRectangle;top=0;left=0;right=0;bottom=0;align=left;verticalAlign=top;fillColor=none;spacingLeft=34;spacingRight=4;overflow=hidden;rotatable=0;points=[[0,0.5],[1,0.5]];portConstraint=eastwest;dropTarget=0;fontSize=12;strokeColor=#788AA3;fontColor=#46495D;" parent="_GwM92pN1n4AugzIyQ0w-0" vertex="1">
                    <mxGeometry y="56" width="160" height="26" as="geometry"/>
                </mxCell>
                <mxCell id="_GwM92pN1n4AugzIyQ0w-8" value="FK" style="shape=partialRectangle;top=0;left=0;bottom=0;fillColor=none;align=left;verticalAlign=top;spacingLeft=4;spacingRight=4;overflow=hidden;rotatable=0;points=[];portConstraint=eastwest;part=1;fontSize=12;strokeColor=#788AA3;fontColor=#46495D;" parent="_GwM92pN1n4AugzIyQ0w-7" vertex="1" connectable="0">
                    <mxGeometry width="30" height="26" as="geometry"/>
                </mxCell>
                <mxCell id="pENFkHJFOz0d05R08l_c-0" value="Country smallint" style="shape=partialRectangle;top=0;left=0;right=0;bottom=0;align=left;verticalAlign=top;fillColor=none;spacingLeft=34;spacingRight=4;overflow=hidden;rotatable=0;points=[[0,0.5],[1,0.5]];portConstraint=eastwest;dropTarget=0;fontSize=12;strokeColor=#788AA3;fontColor=#46495D;" parent="_GwM92pN1n4AugzIyQ0w-0" vertex="1">
                    <mxGeometry y="82" width="160" height="26" as="geometry"/>
                </mxCell>
                <mxCell id="pENFkHJFOz0d05R08l_c-1" value="" style="shape=partialRectangle;top=0;left=0;bottom=0;fillColor=none;align=left;verticalAlign=top;spacingLeft=4;spacingRight=4;overflow=hidden;rotatable=0;points=[];portConstraint=eastwest;part=1;fontSize=12;strokeColor=#788AA3;fontColor=#46495D;" parent="pENFkHJFOz0d05R08l_c-0" vertex="1" connectable="0">
                    <mxGeometry width="30" height="26" as="geometry"/>
                </mxCell>
                <mxCell id="zfL8_NagkZa4B-N5A8r8-0" value="City smallint" style="shape=partialRectangle;top=0;left=0;right=0;bottom=0;align=left;verticalAlign=top;fillColor=none;spacingLeft=34;spacingRight=4;overflow=hidden;rotatable=0;points=[[0,0.5],[1,0.5]];portConstraint=eastwest;dropTarget=0;fontSize=12;strokeColor=#788AA3;fontColor=#46495D;" parent="_GwM92pN1n4AugzIyQ0w-0" vertex="1">
                    <mxGeometry y="108" width="160" height="26" as="geometry"/>
                </mxCell>
                <mxCell id="zfL8_NagkZa4B-N5A8r8-1" value="" style="shape=partialRectangle;top=0;left=0;bottom=0;fillColor=none;align=left;verticalAlign=top;spacingLeft=4;spacingRight=4;overflow=hidden;rotatable=0;points=[];portConstraint=eastwest;part=1;fontSize=12;strokeColor=#788AA3;fontColor=#46495D;" parent="zfL8_NagkZa4B-N5A8r8-0" vertex="1" connectable="0">
                    <mxGeometry width="30" height="26" as="geometry"/>
                </mxCell>
                <mxCell id="OI_5MtHbVKfGzaldjVNq-0" value="Test nvarchar (50)" style="shape=partialRectangle;top=0;left=0;right=0;bottom=0;align=left;verticalAlign=top;fillColor=none;spacingLeft=34;spacingRight=4;overflow=hidden;rotatable=0;points=[[0,0.5],[1,0.5]];portConstraint=eastwest;dropTarget=0;fontSize=12;strokeColor=#788AA3;fontColor=#46495D;" parent="_GwM92pN1n4AugzIyQ0w-0" vertex="1">
                    <mxGeometry y="134" width="160" height="26" as="geometry"/>
                </mxCell>
                <mxCell id="OI_5MtHbVKfGzaldjVNq-1" value="" style="shape=partialRectangle;top=0;left=0;bottom=0;fillColor=none;align=left;verticalAlign=top;spacingLeft=4;spacingRight=4;overflow=hidden;rotatable=0;points=[];portConstraint=eastwest;part=1;fontSize=12;strokeColor=#788AA3;fontColor=#46495D;" parent="OI_5MtHbVKfGzaldjVNq-0" vertex="1" connectable="0">
                    <mxGeometry width="30" height="26" as="geometry"/>
                </mxCell>
                <mxCell id="_GwM92pN1n4AugzIyQ0w-11" value="" style="shape=partialRectangle;top=0;left=0;right=0;bottom=0;align=left;verticalAlign=top;fillColor=none;spacingLeft=34;spacingRight=4;overflow=hidden;rotatable=0;points=[[0,0.5],[1,0.5]];portConstraint=eastwest;dropTarget=0;fontSize=12;strokeColor=#788AA3;fontColor=#46495D;" parent="_GwM92pN1n4AugzIyQ0w-0" vertex="1">
                    <mxGeometry y="160" width="160" as="geometry"/>
                </mxCell>
                <mxCell id="_GwM92pN1n4AugzIyQ0w-12" value="" style="shape=partialRectangle;top=0;left=0;bottom=0;fillColor=none;align=left;verticalAlign=top;spacingLeft=4;spacingRight=4;overflow=hidden;rotatable=0;points=[];portConstraint=eastwest;part=1;fontSize=12;strokeColor=#788AA3;fontColor=#46495D;" parent="_GwM92pN1n4AugzIyQ0w-11" vertex="1" connectable="0">
                    <mxGeometry width="30" as="geometry"/>
                </mxCell>
                <mxCell id="_GwM92pN1n4AugzIyQ0w-15" value="Date datetime" style="shape=partialRectangle;top=0;left=0;right=0;bottom=0;align=left;verticalAlign=top;fillColor=none;spacingLeft=34;spacingRight=4;overflow=hidden;rotatable=0;points=[[0,0.5],[1,0.5]];portConstraint=eastwest;dropTarget=0;fontSize=12;strokeColor=#788AA3;fontColor=#46495D;" parent="_GwM92pN1n4AugzIyQ0w-0" vertex="1">
                    <mxGeometry y="160" width="160" height="26" as="geometry"/>
                </mxCell>
                <mxCell id="_GwM92pN1n4AugzIyQ0w-16" value="" style="shape=partialRectangle;top=0;left=0;bottom=0;fillColor=none;align=left;verticalAlign=top;spacingLeft=4;spacingRight=4;overflow=hidden;rotatable=0;points=[];portConstraint=eastwest;part=1;fontSize=12;strokeColor=#788AA3;fontColor=#46495D;" parent="_GwM92pN1n4AugzIyQ0w-15" vertex="1" connectable="0">
                    <mxGeometry width="30" height="26" as="geometry"/>
                </mxCell>
                <mxCell id="OI_5MtHbVKfGzaldjVNq-3" value="N" style="text;html=1;align=center;verticalAlign=middle;resizable=0;points=[];autosize=1;fontColor=#46495D;" parent="KUSGV_cUyTdbwqlPM9OB-1" vertex="1">
                    <mxGeometry x="490" y="558" width="20" height="20" as="geometry"/>
                </mxCell>
                <mxCell id="OI_5MtHbVKfGzaldjVNq-4" value="N" style="text;html=1;align=center;verticalAlign=middle;resizable=0;points=[];autosize=1;fontColor=#46495D;" parent="KUSGV_cUyTdbwqlPM9OB-1" vertex="1">
                    <mxGeometry x="490" y="671" width="20" height="20" as="geometry"/>
                </mxCell>
                <mxCell id="OI_5MtHbVKfGzaldjVNq-5" value="" style="endArrow=none;html=1;rounded=0;entryX=0.479;entryY=1.021;entryDx=0;entryDy=0;entryPerimeter=0;strokeColor=#788AA3;fontColor=#46495D;" parent="KUSGV_cUyTdbwqlPM9OB-1" edge="1">
                    <mxGeometry relative="1" as="geometry">
                        <mxPoint x="485.10751047778723" y="692" as="sourcePoint"/>
                        <mxPoint x="484.41000000000014" y="559.588" as="targetPoint"/>
                    </mxGeometry>
                </mxCell>
                <mxCell id="jDp9yTUCQ4QKiwYVgUug-0" value="City" style="swimlane;fontStyle=0;childLayout=stackLayout;horizontal=1;startSize=26;fillColor=#B2C9AB;horizontalStack=0;resizeParent=1;resizeParentMax=0;resizeLast=0;collapsible=1;marginBottom=0;swimlaneFillColor=#ffffff;align=center;fontSize=14;strokeColor=#788AA3;fontColor=#46495D;" vertex="1" parent="KUSGV_cUyTdbwqlPM9OB-1">
                    <mxGeometry x="1001" y="280" width="240" height="108" as="geometry"/>
                </mxCell>
                <mxCell id="jDp9yTUCQ4QKiwYVgUug-1" value="CityID int" style="shape=partialRectangle;top=0;left=0;right=0;bottom=1;align=left;verticalAlign=middle;fillColor=none;spacingLeft=34;spacingRight=4;overflow=hidden;rotatable=0;points=[[0,0.5],[1,0.5]];portConstraint=eastwest;dropTarget=0;fontStyle=1;fontSize=12;strokeColor=#788AA3;fontColor=#46495D;" vertex="1" parent="jDp9yTUCQ4QKiwYVgUug-0">
                    <mxGeometry y="26" width="240" height="30" as="geometry"/>
                </mxCell>
                <mxCell id="jDp9yTUCQ4QKiwYVgUug-2" value="PK" style="shape=partialRectangle;top=0;left=0;bottom=0;fillColor=none;align=left;verticalAlign=middle;spacingLeft=4;spacingRight=4;overflow=hidden;rotatable=0;points=[];portConstraint=eastwest;part=1;fontSize=12;strokeColor=#788AA3;fontColor=#46495D;" vertex="1" connectable="0" parent="jDp9yTUCQ4QKiwYVgUug-1">
                    <mxGeometry width="30" height="30" as="geometry"/>
                </mxCell>
                <mxCell id="jDp9yTUCQ4QKiwYVgUug-5" value="CountryID int" style="shape=partialRectangle;top=0;left=0;right=0;bottom=0;align=left;verticalAlign=top;fillColor=none;spacingLeft=34;spacingRight=4;overflow=hidden;rotatable=0;points=[[0,0.5],[1,0.5]];portConstraint=eastwest;dropTarget=0;fontSize=12;strokeColor=#788AA3;fontColor=#46495D;" vertex="1" parent="jDp9yTUCQ4QKiwYVgUug-0">
                    <mxGeometry y="56" width="240" height="26" as="geometry"/>
                </mxCell>
                <mxCell id="jDp9yTUCQ4QKiwYVgUug-6" value="FK" style="shape=partialRectangle;top=0;left=0;bottom=0;fillColor=none;align=left;verticalAlign=top;spacingLeft=4;spacingRight=4;overflow=hidden;rotatable=0;points=[];portConstraint=eastwest;part=1;fontSize=12;strokeColor=#788AA3;fontColor=#46495D;" vertex="1" connectable="0" parent="jDp9yTUCQ4QKiwYVgUug-5">
                    <mxGeometry width="30" height="26" as="geometry"/>
                </mxCell>
                <mxCell id="jDp9yTUCQ4QKiwYVgUug-3" value="Name nvarchar(30)" style="shape=partialRectangle;top=0;left=0;right=0;bottom=0;align=left;verticalAlign=top;fillColor=none;spacingLeft=34;spacingRight=4;overflow=hidden;rotatable=0;points=[[0,0.5],[1,0.5]];portConstraint=eastwest;dropTarget=0;fontSize=12;strokeColor=#788AA3;fontColor=#46495D;" vertex="1" parent="jDp9yTUCQ4QKiwYVgUug-0">
                    <mxGeometry y="82" width="240" height="26" as="geometry"/>
                </mxCell>
                <mxCell id="jDp9yTUCQ4QKiwYVgUug-4" value="" style="shape=partialRectangle;top=0;left=0;bottom=0;fillColor=none;align=left;verticalAlign=top;spacingLeft=4;spacingRight=4;overflow=hidden;rotatable=0;points=[];portConstraint=eastwest;part=1;fontSize=12;strokeColor=#788AA3;fontColor=#46495D;" vertex="1" connectable="0" parent="jDp9yTUCQ4QKiwYVgUug-3">
                    <mxGeometry width="30" height="26" as="geometry"/>
                </mxCell>
                <mxCell id="jDp9yTUCQ4QKiwYVgUug-13" value="" style="shape=partialRectangle;top=0;left=0;right=0;bottom=0;align=left;verticalAlign=top;fillColor=none;spacingLeft=34;spacingRight=4;overflow=hidden;rotatable=0;points=[[0,0.5],[1,0.5]];portConstraint=eastwest;dropTarget=0;fontSize=12;strokeColor=#788AA3;fontColor=#46495D;" vertex="1" parent="jDp9yTUCQ4QKiwYVgUug-0">
                    <mxGeometry y="108" width="240" as="geometry"/>
                </mxCell>
                <mxCell id="jDp9yTUCQ4QKiwYVgUug-14" value="" style="shape=partialRectangle;top=0;left=0;bottom=0;fillColor=none;align=left;verticalAlign=top;spacingLeft=4;spacingRight=4;overflow=hidden;rotatable=0;points=[];portConstraint=eastwest;part=1;fontSize=12;strokeColor=#788AA3;fontColor=#46495D;" vertex="1" connectable="0" parent="jDp9yTUCQ4QKiwYVgUug-13">
                    <mxGeometry width="30" as="geometry"/>
                </mxCell>
                <mxCell id="jDp9yTUCQ4QKiwYVgUug-15" value="Country" style="swimlane;fontStyle=0;childLayout=stackLayout;horizontal=1;startSize=26;fillColor=#B2C9AB;horizontalStack=0;resizeParent=1;resizeParentMax=0;resizeLast=0;collapsible=1;marginBottom=0;swimlaneFillColor=#ffffff;align=center;fontSize=14;strokeColor=#788AA3;fontColor=#46495D;" vertex="1" parent="KUSGV_cUyTdbwqlPM9OB-1">
                    <mxGeometry x="1001" y="440" width="240" height="134" as="geometry"/>
                </mxCell>
                <mxCell id="jDp9yTUCQ4QKiwYVgUug-16" value="CountryID int" style="shape=partialRectangle;top=0;left=0;right=0;bottom=1;align=left;verticalAlign=middle;fillColor=none;spacingLeft=34;spacingRight=4;overflow=hidden;rotatable=0;points=[[0,0.5],[1,0.5]];portConstraint=eastwest;dropTarget=0;fontStyle=1;fontSize=12;strokeColor=#788AA3;fontColor=#46495D;" vertex="1" parent="jDp9yTUCQ4QKiwYVgUug-15">
                    <mxGeometry y="26" width="240" height="30" as="geometry"/>
                </mxCell>
                <mxCell id="jDp9yTUCQ4QKiwYVgUug-17" value="PK" style="shape=partialRectangle;top=0;left=0;bottom=0;fillColor=none;align=left;verticalAlign=middle;spacingLeft=4;spacingRight=4;overflow=hidden;rotatable=0;points=[];portConstraint=eastwest;part=1;fontSize=12;strokeColor=#788AA3;fontColor=#46495D;" vertex="1" connectable="0" parent="jDp9yTUCQ4QKiwYVgUug-16">
                    <mxGeometry width="30" height="30" as="geometry"/>
                </mxCell>
                <mxCell id="jDp9yTUCQ4QKiwYVgUug-18" value="Name nvarchar(30)" style="shape=partialRectangle;top=0;left=0;right=0;bottom=0;align=left;verticalAlign=top;fillColor=none;spacingLeft=34;spacingRight=4;overflow=hidden;rotatable=0;points=[[0,0.5],[1,0.5]];portConstraint=eastwest;dropTarget=0;fontSize=12;strokeColor=#788AA3;fontColor=#46495D;" vertex="1" parent="jDp9yTUCQ4QKiwYVgUug-15">
                    <mxGeometry y="56" width="240" height="26" as="geometry"/>
                </mxCell>
                <mxCell id="jDp9yTUCQ4QKiwYVgUug-19" value="" style="shape=partialRectangle;top=0;left=0;bottom=0;fillColor=none;align=left;verticalAlign=top;spacingLeft=4;spacingRight=4;overflow=hidden;rotatable=0;points=[];portConstraint=eastwest;part=1;fontSize=12;strokeColor=#788AA3;fontColor=#46495D;" vertex="1" connectable="0" parent="jDp9yTUCQ4QKiwYVgUug-18">
                    <mxGeometry width="30" height="26" as="geometry"/>
                </mxCell>
                <mxCell id="jDp9yTUCQ4QKiwYVgUug-20" value="TimeZone nvarchar(10)" style="shape=partialRectangle;top=0;left=0;right=0;bottom=0;align=left;verticalAlign=top;fillColor=none;spacingLeft=34;spacingRight=4;overflow=hidden;rotatable=0;points=[[0,0.5],[1,0.5]];portConstraint=eastwest;dropTarget=0;fontSize=12;strokeColor=#788AA3;fontColor=#46495D;" vertex="1" parent="jDp9yTUCQ4QKiwYVgUug-15">
                    <mxGeometry y="82" width="240" height="26" as="geometry"/>
                </mxCell>
                <mxCell id="jDp9yTUCQ4QKiwYVgUug-21" value="" style="shape=partialRectangle;top=0;left=0;bottom=0;fillColor=none;align=left;verticalAlign=top;spacingLeft=4;spacingRight=4;overflow=hidden;rotatable=0;points=[];portConstraint=eastwest;part=1;fontSize=12;strokeColor=#788AA3;fontColor=#46495D;" vertex="1" connectable="0" parent="jDp9yTUCQ4QKiwYVgUug-20">
                    <mxGeometry width="30" height="26" as="geometry"/>
                </mxCell>
                <mxCell id="jDp9yTUCQ4QKiwYVgUug-22" value="" style="shape=partialRectangle;top=0;left=0;right=0;bottom=0;align=left;verticalAlign=top;fillColor=none;spacingLeft=34;spacingRight=4;overflow=hidden;rotatable=0;points=[[0,0.5],[1,0.5]];portConstraint=eastwest;dropTarget=0;fontSize=12;strokeColor=#788AA3;fontColor=#46495D;" vertex="1" parent="jDp9yTUCQ4QKiwYVgUug-15">
                    <mxGeometry y="108" width="240" as="geometry"/>
                </mxCell>
                <mxCell id="jDp9yTUCQ4QKiwYVgUug-23" value="" style="shape=partialRectangle;top=0;left=0;bottom=0;fillColor=none;align=left;verticalAlign=top;spacingLeft=4;spacingRight=4;overflow=hidden;rotatable=0;points=[];portConstraint=eastwest;part=1;fontSize=12;strokeColor=#788AA3;fontColor=#46495D;" vertex="1" connectable="0" parent="jDp9yTUCQ4QKiwYVgUug-22">
                    <mxGeometry width="30" as="geometry"/>
                </mxCell>
                <mxCell id="jDp9yTUCQ4QKiwYVgUug-24" value="TelCode nvarchar(10)" style="shape=partialRectangle;top=0;left=0;right=0;bottom=0;align=left;verticalAlign=top;fillColor=none;spacingLeft=34;spacingRight=4;overflow=hidden;rotatable=0;points=[[0,0.5],[1,0.5]];portConstraint=eastwest;dropTarget=0;fontSize=12;strokeColor=#788AA3;fontColor=#46495D;" vertex="1" parent="jDp9yTUCQ4QKiwYVgUug-15">
                    <mxGeometry y="108" width="240" height="26" as="geometry"/>
                </mxCell>
                <mxCell id="jDp9yTUCQ4QKiwYVgUug-25" value="" style="shape=partialRectangle;top=0;left=0;bottom=0;fillColor=none;align=left;verticalAlign=top;spacingLeft=4;spacingRight=4;overflow=hidden;rotatable=0;points=[];portConstraint=eastwest;part=1;fontSize=12;strokeColor=#788AA3;fontColor=#46495D;" vertex="1" connectable="0" parent="jDp9yTUCQ4QKiwYVgUug-24">
                    <mxGeometry width="30" height="26" as="geometry"/>
                </mxCell>
            </root>
        </mxGraphModel>
    </diagram>
</mxfile>